<svg width="571" height="48" viewBox="0 0 571 48" fill="none" xmlns="http://www.w3.org/2000/svg">
<path fill-rule="evenodd" clip-rule="evenodd" d="M65.1005 0.335215C64.8109 0.631379 64.7725 1.9415 64.7725 11.5201C64.7725 17.4871 64.7155 22.5213 64.6458 22.7069C64.4819 23.1435 63.8105 23.1435 63.6466 22.7069C63.5769 22.5213 63.5199 18.7478 63.5199 14.3213C63.5199 8.34616 63.4554 6.20729 63.2694 6.01717C62.9157 5.65572 62.3351 5.69924 62.1852 6.09868C62.1155 6.28432 62.0585 10.0352 62.0585 14.4344C62.0585 22.428 61.9898 23.2579 61.3278 23.2579C60.686 23.2579 60.5971 22.4176 60.5971 16.3548C60.5971 13.0118 60.5401 10.1251 60.4704 9.93943C60.3192 9.537 59.6474 9.49219 59.409 9.86858C59.3161 10.0154 59.1931 13.0146 59.1357 16.5338C59.037 22.581 59.0098 22.9365 58.6388 23.0095C58.423 23.0517 58.166 22.957 58.0679 22.7987C57.9697 22.6406 57.8881 20.6705 57.8862 18.4211C57.8846 16.1715 57.8261 14.1792 57.7564 13.9935C57.6866 13.8079 57.4706 13.656 57.2762 13.656C56.4946 13.656 56.4217 14.049 56.4217 18.2687C56.4217 20.5241 56.3647 22.5213 56.295 22.7069C56.1025 23.2194 55.4033 23.1215 55.2772 22.5644C55.2175 22.3002 55.1453 21.1824 55.1167 20.0799C55.0751 18.4802 54.9945 18.0302 54.7169 17.8518C54.4649 17.6898 54.2778 17.7054 54.0384 17.9085C53.7778 18.1296 53.7077 18.6325 53.7077 20.2794C53.7077 21.4288 53.6507 22.5213 53.581 22.7069C53.3682 23.2736 52.6874 23.1115 52.5346 22.4577C52.2045 21.0454 51.3336 20.9011 50.9908 22.2019C50.8655 22.6775 50.6135 23.1251 50.4306 23.1968C49.8369 23.4296 49.5323 22.6493 49.5323 20.896C49.5323 19.6985 49.4477 19.1843 49.2191 18.9904C48.601 18.4661 48.2797 19.1 48.2797 20.8442C48.2797 22.5053 48.0519 23.2579 47.549 23.2579C46.9711 23.2579 46.8183 22.4182 46.8183 19.2438C46.8183 16.6699 46.7579 16.0042 46.5051 15.7897C46.2552 15.5779 46.1287 15.5779 45.8788 15.7897C45.626 16.0042 45.5656 16.6699 45.5656 19.2438C45.5656 22.4182 45.4128 23.2579 44.8349 23.2579C44.2141 23.2579 44.1043 22.4144 44.1043 17.6435C44.1043 13.5346 44.0573 12.8149 43.7736 12.5742C43.5339 12.3708 43.3472 12.3555 43.0951 12.5176C42.7917 12.7129 42.7326 13.3944 42.6333 17.8396C42.5706 20.6436 42.5003 22.9619 42.4767 22.9911C42.4533 23.0204 42.2462 23.0445 42.0165 23.0445C41.7869 23.0445 41.579 23.0204 41.5543 22.9911C41.5297 22.9619 41.4591 19.9237 41.3978 16.2395C41.2986 10.2983 41.2466 9.51587 40.938 9.31722C40.6856 9.15463 40.4992 9.17021 40.2595 9.37356C39.9712 9.6183 39.9288 10.4786 39.9288 16.0951C39.9288 21.1783 39.8691 22.6197 39.646 22.9316C39.2585 23.4732 38.6984 23.2105 38.5424 22.4142C38.2825 21.0859 37.3998 21.0859 37.1399 22.4142C36.9839 23.2105 36.4238 23.4732 36.0363 22.9316C35.8422 22.6602 35.7534 21.8549 35.7534 20.3626C35.7534 18.691 35.6812 18.1277 35.4403 17.9235C35.1904 17.7116 35.0639 17.7116 34.814 17.9235C34.5741 18.127 34.5008 18.6852 34.5008 20.3107C34.5008 22.4692 34.3052 23.2579 33.7701 23.2579C33.178 23.2579 33.0394 22.4159 33.0394 18.8171C33.0394 15.8776 32.9814 15.1526 32.729 14.9386C32.5582 14.7937 32.2764 14.7308 32.1027 14.799C31.8377 14.903 31.7868 15.5113 31.7868 18.5709C31.7868 22.3527 31.6572 23.0445 30.9484 23.0445C30.4632 23.0445 30.3467 22.6241 30.274 20.6129C30.2344 19.5131 30.1331 19.0853 29.8732 18.9182C29.1937 18.4821 28.864 19.1009 28.864 20.8128C28.864 21.6689 28.807 22.5213 28.7373 22.7069C28.4987 23.3424 27.897 23.0797 27.5554 22.191C27.0993 21.0042 26.4613 21.0093 26.1471 22.2019C25.8517 23.3238 25.4448 23.4648 24.6761 22.7123L24.0623 22.1112L23.4485 22.7123C22.7176 23.4279 22.2276 23.3236 22.0495 22.4142C21.7896 21.0859 20.9069 21.0859 20.647 22.4142C20.5781 22.7665 20.3652 23.116 20.1742 23.1909C19.6061 23.4136 19.2606 22.667 19.2606 21.2161C19.2606 20.2721 19.1664 19.8163 18.9299 19.6155C18.3391 19.1145 17.9102 19.6371 17.8495 20.9327C17.7702 22.6182 17.6374 23.0445 17.1912 23.0445C16.6303 23.0445 16.5466 22.6529 16.5466 20.0257C16.5466 17.6593 16.3616 16.8566 15.8159 16.8566C15.2701 16.8566 15.0852 17.6593 15.0852 20.0257C15.0852 21.3149 15.0282 22.5213 14.9584 22.7069C14.7946 23.1435 14.1232 23.1435 13.9593 22.7069C13.8895 22.5213 13.8325 20.5232 13.8325 18.2668C13.8325 15.028 13.7693 14.0772 13.5317 13.7501C13.2908 13.4187 13.1553 13.3831 12.8532 13.5721C12.514 13.7842 12.4649 14.2626 12.3712 18.2664C12.3137 20.7183 12.1908 22.8445 12.0979 22.9911C11.8478 23.3863 11.3718 23.3148 11.1258 22.8452C10.9935 22.5923 10.9098 20.3709 10.9098 17.1101C10.9098 12.6395 10.8597 11.7454 10.5966 11.5222C10.3467 11.3104 10.2202 11.3104 9.97029 11.5222C9.70724 11.7454 9.65714 12.6395 9.65714 17.1101C9.65714 22.4152 9.55693 23.2579 8.92644 23.2579C8.37195 23.2579 8.19575 22.4421 8.19575 19.8754C8.19575 17.0348 8.11808 16.6432 7.5544 16.6432C6.91118 16.6432 6.73435 17.3499 6.73435 19.919C6.73435 22.6546 6.65398 23.0445 6.08967 23.0445C5.6523 23.0445 5.51472 22.6252 5.43184 21.0392C5.32536 18.9976 4.02034 19.1826 4.02034 21.2395C4.02034 22.6231 3.87629 23.0445 3.40342 23.0445C3.17315 23.0445 2.91949 22.7317 2.71177 22.191C2.23431 20.9487 1.31864 21.0639 1.30173 22.3685C1.29923 22.5642 1.11342 22.9645 0.888783 23.2579C0.370406 23.9351 0.370406 24.2332 0.888783 24.9066C1.11843 25.2051 1.30632 25.6645 1.30632 25.9276C1.30632 26.4948 1.80633 26.9804 2.2222 26.8174C2.38421 26.7538 2.62763 26.359 2.76291 25.94C2.93035 25.4215 3.13578 25.1782 3.40634 25.1782C3.85061 25.1782 3.98693 25.5905 4.07023 27.1835C4.17671 29.2251 5.48173 29.0401 5.48173 26.9832C5.48173 25.5932 5.62578 25.1782 6.10804 25.1782C6.6569 25.1782 6.73435 25.5843 6.73435 28.4604C6.73435 31.1322 6.8569 31.5795 7.58885 31.5795C8.11558 31.5795 8.19575 31.1521 8.19575 28.3473C8.19575 25.7806 8.37195 24.9649 8.92644 24.9649C9.55693 24.9649 9.65714 25.8075 9.65714 31.1126C9.65714 35.5832 9.70724 36.4773 9.97029 36.7005C10.2202 36.9124 10.3467 36.9124 10.5966 36.7005C10.8597 36.4773 10.9098 35.5832 10.9098 31.1126C10.9098 25.8075 11.01 24.9649 11.6405 24.9649C12.2476 24.9649 12.3712 25.8083 12.3712 29.9476C12.3712 32.2343 12.4281 34.2569 12.4979 34.4425C12.6739 34.9111 13.3557 34.8652 13.6165 34.3674C13.7436 34.1244 13.8325 32.2881 13.8325 29.9041C13.8325 27.676 13.8895 25.7014 13.9593 25.5158C14.1232 25.0792 14.7946 25.0792 14.9584 25.5158C15.0282 25.7014 15.0852 26.8938 15.0852 28.1655C15.0852 30.8316 15.1637 31.1527 15.8159 31.1527C16.4681 31.1527 16.5466 30.8316 16.5466 28.1655C16.5466 25.5877 16.6324 25.1782 17.1729 25.1782C17.6541 25.1782 17.7992 25.5932 17.7992 26.9687C17.7992 28.3185 18.2084 29.0322 18.7785 28.6769C19.0668 28.4975 19.1808 28.0827 19.2606 26.9266C19.318 26.0934 19.476 25.2984 19.6119 25.1599C19.9913 24.7732 20.5078 25.0969 20.647 25.8085C20.898 27.0907 21.866 27.1396 22.0145 25.8777C22.1157 25.0152 22.6892 24.7747 23.2836 25.3453C23.8986 25.9361 24.2218 25.9402 24.8212 25.3645C25.4494 24.7615 25.8702 24.9698 26.1471 26.0208C26.4613 27.2134 27.0993 27.2185 27.5554 26.0317C27.7717 25.4693 28.0137 25.1782 28.2655 25.1782C28.7233 25.1782 28.8438 25.6295 28.9154 27.6098C28.9738 29.2298 29.3473 29.7963 29.9947 29.2473C30.2471 29.0331 30.3254 28.5536 30.3254 27.2219C30.3254 25.1228 30.6864 24.5108 31.4588 25.3001C31.7317 25.5792 31.7868 26.2556 31.7868 29.3282C31.7868 32.4607 31.8377 33.0641 32.1225 33.3057C32.4079 33.5476 32.502 33.5293 32.7488 33.1843C32.9691 32.8764 33.0394 31.9324 33.0394 29.2842C33.0394 25.8062 33.1818 24.9649 33.7701 24.9649C34.3052 24.9649 34.5008 25.7535 34.5008 27.912C34.5008 29.5375 34.5741 30.0957 34.814 30.2992C35.0639 30.5111 35.1904 30.5111 35.4403 30.2992C35.6802 30.0957 35.7534 29.5375 35.7534 27.912C35.7534 26.745 35.8507 25.6046 35.9695 25.3775C36.324 24.7009 36.7866 24.9043 37.2148 25.925C37.7528 27.2076 38.2236 27.1479 38.5493 25.7558C38.7265 24.9977 39.271 24.7668 39.646 25.2911C39.8691 25.6031 39.9288 27.0444 39.9288 32.1276C39.9288 37.7441 39.9712 38.6044 40.2595 38.8492C40.4992 39.0525 40.6856 39.0681 40.938 38.9055C41.2466 38.7068 41.2986 37.9244 41.3978 31.9832C41.4591 28.299 41.5297 25.2608 41.5543 25.2316C41.7197 25.0342 42.4122 25.2388 42.5161 25.5158C42.5859 25.7014 42.6429 27.9941 42.6429 30.6105C42.6429 34.6909 42.6898 35.4078 42.9736 35.6485C43.2132 35.8519 43.3999 35.8675 43.6521 35.7049C43.9556 35.5094 44.013 34.8364 44.1043 30.4059C44.1955 25.9754 44.2529 25.3024 44.5564 25.107C44.8082 24.9448 44.9944 24.9593 45.2299 25.159C45.5001 25.3882 45.5542 26.0006 45.5471 28.7527C45.5404 31.4391 45.5988 32.1317 45.855 32.3933C46.1149 32.6589 46.2285 32.6677 46.4947 32.4419C46.7619 32.2151 46.8183 31.5818 46.8183 28.8056C46.8183 25.9987 46.8728 25.3976 47.149 25.1633C47.3884 24.9602 47.5755 24.9446 47.8275 25.1065C48.0991 25.2811 48.1884 25.7294 48.2354 27.1549C48.3003 29.1284 48.5987 29.7585 49.2191 29.2324C49.4513 29.0354 49.5323 28.5107 49.5323 27.2053C49.5323 25.8585 49.6102 25.3779 49.863 25.1633C50.3085 24.7854 50.8686 25.1522 50.9538 25.8777C51.0972 27.098 52.1068 27.1752 52.4075 25.9888C52.5975 25.2401 53.215 24.9273 53.5229 25.424C53.6211 25.5821 53.7027 26.6061 53.7046 27.6995C53.7077 29.7338 53.911 30.5126 54.4384 30.5126C54.9626 30.5126 55.1691 29.7374 55.1691 27.7703C55.1691 26.7158 55.2261 25.7014 55.2958 25.5158C55.4597 25.0792 56.1311 25.0792 56.295 25.5158C56.3647 25.7014 56.4217 27.6986 56.4217 29.954C56.4217 34.1737 56.4946 34.5667 57.2762 34.5667C57.4706 34.5667 57.6866 34.4148 57.7564 34.2292C57.8261 34.0435 57.8831 32.0455 57.8831 29.789C57.8831 25.4998 58.0286 24.7306 58.7837 25.0267C59.0787 25.1424 59.1255 25.9289 59.1791 31.6657C59.2432 38.505 59.3144 39.0139 60.1332 38.4862C60.4583 38.2767 60.498 37.6438 60.5481 31.8944C60.5852 27.6363 60.6798 25.44 60.8347 25.2495C61.1504 24.8607 61.7773 24.8908 61.9318 25.3024C62.0015 25.4881 62.0585 29.2729 62.0585 33.7132C62.0585 38.1536 62.1155 41.9384 62.1852 42.124C62.3351 42.5235 62.9157 42.567 63.2694 42.2055C63.4554 42.0154 63.5199 39.8766 63.5199 33.9014C63.5199 29.475 63.5769 25.7014 63.6466 25.5158C63.7164 25.3302 63.9412 25.1782 64.1462 25.1782C64.3512 25.1782 64.5761 25.3302 64.6458 25.5158C64.7155 25.7014 64.7725 30.6865 64.7725 36.5938C64.7725 42.5011 64.8295 47.4861 64.8992 47.6718C65.0636 48.1094 65.9429 48.1094 66.1072 47.6718C66.1769 47.4861 66.2339 42.5011 66.2339 36.5938C66.2339 30.6865 66.2909 25.7014 66.3606 25.5158C66.5308 25.0626 67.1982 25.0861 67.3748 25.5516C67.4527 25.7569 67.5064 29.8959 67.4943 34.7494C67.4782 41.1457 67.5387 43.6556 67.7137 43.8711C68.0383 44.271 68.6646 44.2482 68.8212 43.831C68.8909 43.6454 68.9494 39.4927 68.9511 34.6026C68.9529 29.7127 69.0346 25.5821 69.1327 25.424C69.2308 25.2657 69.4878 25.171 69.7037 25.2134C70.0757 25.2864 70.102 25.6583 70.2076 32.3291C70.269 36.2003 70.3396 39.3918 70.3642 39.421C70.5383 39.6271 71.4327 39.4101 71.5352 39.1368C71.605 38.9511 71.6619 35.8724 71.6619 32.2947C71.6619 25.8032 71.7455 24.9649 72.3926 24.9649C72.9995 24.9649 73.1233 25.8081 73.1233 29.9391C73.1233 33.3665 73.1778 34.134 73.4365 34.3533C74.1622 34.9689 74.3044 34.329 74.4405 29.8356C74.5432 26.4459 74.6369 25.4601 74.8806 25.2113C75.1348 24.9512 75.2478 24.9437 75.5138 25.1693C75.7695 25.3863 75.8373 25.927 75.8373 27.7475C75.8373 30.3306 75.9225 30.726 76.4787 30.726C77.1113 30.726 77.2987 30.028 77.2987 27.6721C77.2987 26.027 77.375 25.3792 77.5898 25.197C77.9447 24.8959 78.5514 25.4157 78.5514 26.0208C78.5514 26.2327 78.7002 26.5325 78.8821 26.6868C79.3363 27.0721 79.8441 26.7139 80.062 25.8542C80.1773 25.3995 80.361 25.1782 80.6228 25.1782C81.1641 25.1782 81.2654 25.5779 81.2654 27.7135C81.2654 29.6171 81.4343 30.0858 82.1199 30.0858C82.6278 30.0858 82.7268 29.6555 82.7268 27.4438C82.7268 26.1986 82.8186 25.3831 82.9773 25.2209C83.331 24.8594 83.9116 24.903 84.0614 25.3024C84.1312 25.4881 84.1882 27.8768 84.1882 30.6105C84.1882 34.7688 84.2393 35.6248 84.5013 35.847C84.7512 36.0588 84.8777 36.0588 85.1276 35.847C85.3898 35.6244 85.4408 34.7579 85.4408 30.5126C85.4408 26.1482 85.4867 25.4048 85.7715 25.1633C86.0112 24.9602 86.1978 24.9446 86.45 25.1068C86.7431 25.2954 86.8057 25.7972 86.8485 28.295C86.9091 31.8261 86.9782 32.2196 87.5377 32.2196C88.1673 32.2196 88.3011 31.5618 88.3408 28.276C88.3606 26.633 88.4703 25.1972 88.5847 25.0803C88.9043 24.7536 89.4955 25.2378 89.6162 25.925C89.7523 26.7002 90.2978 27.0677 90.7469 26.6868C90.9287 26.5325 91.0776 26.2338 91.0776 26.023C91.0776 25.0504 91.9091 24.5183 92.2035 25.3024C92.2732 25.4881 92.3302 27.6773 92.3302 30.1674C92.3302 33.4043 92.4016 34.7677 92.5807 34.9508C92.9344 35.3122 93.515 35.2687 93.6649 34.8693C93.7346 34.6837 93.7916 32.5311 93.7916 30.0858C93.7916 27.6406 93.8486 25.4881 93.9183 25.3024C93.9881 25.1168 94.2041 24.9649 94.3985 24.9649C95.1305 24.9649 95.253 25.4121 95.253 28.084C95.253 30.9601 95.3305 31.3661 95.8793 31.3661C96.4238 31.3661 96.5056 30.9581 96.5056 28.2406C96.5056 25.774 96.6862 24.9649 97.2363 24.9649C97.8735 24.9649 97.967 25.8062 97.967 31.5394C97.967 36.3892 98.0161 37.3299 98.2802 37.554C98.5301 37.7659 98.6566 37.7659 98.9065 37.554C99.1708 37.3297 99.2196 36.3834 99.2196 31.4875C99.2196 26.7696 99.2758 25.6092 99.5205 25.2723C99.7614 24.941 99.8969 24.9053 100.199 25.0944C100.534 25.3037 100.589 25.7622 100.681 29.1257C100.77 32.3604 100.837 32.9538 101.133 33.1446C101.385 33.3067 101.572 33.2912 101.812 33.088C102.089 32.8531 102.142 32.2426 102.142 29.3303C102.142 27.418 102.199 25.7014 102.269 25.5158C102.496 24.9113 103.16 25.1198 103.346 25.8542C103.684 27.1878 104.667 27.1596 104.931 25.8085C105.087 25.0122 105.647 24.7496 106.035 25.2911C106.245 25.5853 106.318 26.5709 106.318 29.1404C106.318 31.9501 106.376 32.6436 106.631 32.8597C106.881 33.0716 107.007 33.0716 107.257 32.8597C107.512 32.644 107.57 31.9559 107.57 29.1922C107.57 25.8058 107.716 24.9649 108.301 24.9649C108.812 24.9649 109.032 25.7255 109.032 27.4938C109.032 29.4581 109.141 29.8725 109.658 29.8725C110.178 29.8725 110.284 29.4583 110.284 27.4419C110.284 25.5723 110.576 24.788 111.183 25.0259C111.366 25.0976 111.618 25.5452 111.743 26.0208C112.086 27.3216 112.957 27.1773 113.287 25.765C113.376 25.3835 113.561 25.1782 113.815 25.1782C114.334 25.1782 114.46 25.5804 114.46 27.2369C114.46 28.7083 114.704 29.4457 115.191 29.4457C115.677 29.4457 115.921 28.7083 115.921 27.2369C115.921 26.4758 115.978 25.7014 116.048 25.5158C116.212 25.0792 116.883 25.0792 117.047 25.5158C117.117 25.7014 117.174 27.3739 117.174 29.2324C117.174 31.0908 117.231 32.7633 117.301 32.9489C117.37 33.1345 117.642 33.2865 117.905 33.2865C118.167 33.2865 118.439 33.1345 118.509 32.9489C118.578 32.7633 118.635 31.0768 118.635 29.2008C118.635 25.8058 118.78 24.9649 119.366 24.9649C120.021 24.9649 120.097 25.7994 120.097 33.0415C120.097 37.0299 120.154 40.4448 120.223 40.6304C120.387 41.067 121.059 41.067 121.223 40.6304C121.292 40.4448 121.349 37.0299 121.349 33.0415C121.349 25.7994 121.425 24.9649 122.08 24.9649C122.745 24.9649 122.811 25.7917 122.811 34.2174C122.811 41.5938 122.852 42.6863 123.139 42.9799C123.319 43.1642 123.5 43.3151 123.541 43.3151C123.582 43.3151 123.764 43.1642 123.944 42.9799C124.231 42.6863 124.272 41.5968 124.272 34.2488C124.272 29.6314 124.329 25.7014 124.399 25.5158C124.503 25.2388 125.195 25.0344 125.361 25.2316C125.385 25.2608 125.456 28.3471 125.517 32.0899C125.62 38.3543 125.659 38.9136 126.007 39.1312C126.309 39.3205 126.444 39.2851 126.685 38.9535C126.931 38.6147 126.986 37.386 126.986 32.1963C126.986 28.7077 127.043 25.7014 127.113 25.5158C127.183 25.3302 127.407 25.1782 127.612 25.1782C127.817 25.1782 128.042 25.3302 128.112 25.5158C128.182 25.7014 128.239 27.7061 128.239 29.9704C128.239 33.4668 128.289 34.1299 128.569 34.3683C128.809 34.5714 128.996 34.587 129.248 34.4248C129.548 34.2317 129.612 33.5897 129.711 29.743C129.774 27.2911 129.845 25.2608 129.867 25.2316C129.89 25.2023 130.087 25.1782 130.304 25.1782C130.86 25.1782 130.953 25.5702 130.953 27.9269C130.953 30.0494 131.106 30.5126 131.807 30.5126C132.317 30.5126 132.414 30.0824 132.414 27.8138C132.414 25.7471 132.615 24.9649 133.145 24.9649C133.743 24.9649 133.876 25.8075 133.876 29.619C133.876 32.7473 133.932 33.4958 134.186 33.7109C134.357 33.8558 134.639 33.9187 134.812 33.8504C135.079 33.7461 135.128 33.1038 135.128 29.7585C135.128 27.4313 135.217 25.6197 135.344 25.3775C135.59 24.9079 136.066 24.8364 136.316 25.2316C136.409 25.3784 136.532 28.5124 136.59 32.1966C136.686 38.3629 136.724 38.9136 137.072 39.1312C137.374 39.3205 137.509 39.2851 137.75 38.9535C137.996 38.6147 138.051 37.386 138.051 32.1963C138.051 28.7077 138.108 25.7014 138.178 25.5158C138.37 25.0035 139.069 25.1014 139.197 25.6583C139.257 25.9225 139.329 27.5685 139.357 29.3162C139.4 32.0133 139.461 32.5277 139.756 32.7178C140.008 32.88 140.195 32.8646 140.434 32.6613C140.71 32.4276 140.765 31.8345 140.765 29.1169C140.765 27.322 140.822 25.7014 140.892 25.5158C141.119 24.9113 141.782 25.1198 141.968 25.8542C142.186 26.7139 142.694 27.0721 143.148 26.6868C143.33 26.5325 143.479 26.1947 143.479 25.9361C143.479 25.6775 143.714 25.2405 144.001 24.9649C144.632 24.3591 144.663 23.8803 144.104 23.3637C143.874 23.151 143.589 22.6079 143.47 22.1571C143.139 20.8992 142.262 21.0714 141.938 22.4577C141.765 23.197 141.033 23.2702 140.872 22.5644C140.811 22.3002 140.739 20.6543 140.711 18.9065C140.668 16.2094 140.608 15.695 140.313 15.5049C140.061 15.3427 139.874 15.3581 139.634 15.5614C139.359 15.7951 139.304 16.3883 139.304 19.1058C139.304 20.9007 139.247 22.5213 139.177 22.7069C139.013 23.1435 138.342 23.1435 138.178 22.7069C138.108 22.5213 138.051 19.5151 138.051 16.0264C138.051 10.8367 137.996 9.60806 137.75 9.26922C137.509 8.93763 137.374 8.90221 137.072 9.09148C136.724 9.30912 136.686 9.85984 136.59 16.0262C136.532 19.7103 136.409 22.8445 136.316 22.9911C136.066 23.3863 135.59 23.3148 135.344 22.8452C135.218 22.6047 135.128 20.835 135.128 18.6037C135.128 15.4609 135.072 14.7276 134.815 14.5095C134.565 14.2976 134.439 14.2976 134.189 14.5095C133.932 14.7276 133.876 15.4609 133.876 18.6037C133.876 22.4152 133.743 23.2579 133.145 23.2579C132.615 23.2579 132.414 22.4756 132.414 20.4089C132.414 18.1403 132.317 17.7101 131.807 17.7101C131.106 17.7101 130.953 18.1734 130.953 20.2958C130.953 21.4363 130.896 22.5213 130.826 22.7069C130.662 23.1435 129.991 23.1435 129.827 22.7069C129.757 22.5213 129.7 20.5166 129.7 18.2523C129.7 14.7559 129.65 14.0928 129.369 13.8544C129.13 13.6513 128.943 13.6357 128.691 13.7979C128.391 13.991 128.327 14.633 128.228 18.4798C128.165 20.9316 128.094 22.9619 128.071 22.9911C127.916 23.1904 127.216 22.983 127.113 22.7069C127.043 22.5213 126.986 19.5151 126.986 16.0264C126.986 10.8367 126.931 9.60806 126.685 9.26922C126.444 8.93763 126.309 8.90221 126.007 9.09148C125.659 9.30912 125.62 9.86837 125.517 16.1328C125.456 19.8757 125.385 22.9619 125.361 22.9911C125.195 23.1883 124.503 22.9839 124.399 22.7069C124.329 22.5213 124.272 18.6263 124.272 14.0512C124.272 5.7353 124.206 4.90762 123.541 4.90762C122.877 4.90762 122.811 5.73509 122.811 14.0827C122.811 22.4304 122.745 23.2579 122.08 23.2579C121.425 23.2579 121.349 22.4234 121.349 15.1812C121.349 11.1928 121.292 7.77794 121.223 7.5923C121.153 7.40667 120.928 7.25474 120.723 7.25474C120.518 7.25474 120.293 7.40667 120.223 7.5923C120.154 7.77794 120.097 11.1928 120.097 15.1812C120.097 22.4234 120.021 23.2579 119.366 23.2579C118.777 23.2579 118.635 22.4163 118.635 18.9129C118.635 15.998 118.579 15.3359 118.307 15.0581C117.904 14.6463 117.905 14.6463 117.502 15.0581C117.23 15.3357 117.174 15.995 117.174 18.8815C117.174 20.7998 117.117 22.5213 117.047 22.7069C116.855 23.2197 116.155 23.1215 116.03 22.5644C115.971 22.3002 115.899 21.4222 115.87 20.6129C115.83 19.5131 115.729 19.0853 115.469 18.9182C114.79 18.4821 114.46 19.1009 114.46 20.8128C114.46 22.6435 114.344 23.0445 113.815 23.0445C113.561 23.0445 113.376 22.8392 113.287 22.4577C112.957 21.0454 112.086 20.9011 111.743 22.2019C111.618 22.6775 111.366 23.1251 111.183 23.1968C110.555 23.4428 110.284 22.6529 110.284 20.5759C110.284 19.0941 110.208 18.551 109.971 18.3502C109.721 18.1384 109.595 18.1384 109.345 18.3502C109.109 18.5502 109.032 19.0883 109.032 20.5241C109.032 22.4833 108.825 23.2579 108.301 23.2579C107.716 23.2579 107.57 22.4169 107.57 19.0305C107.57 16.2668 107.512 15.5787 107.257 15.363C107.007 15.1511 106.881 15.1511 106.631 15.363C106.376 15.5791 106.318 16.2726 106.318 19.0823C106.318 21.6518 106.245 22.6374 106.035 22.9316C105.621 23.5107 105.123 23.2017 104.859 22.2019C104.517 20.9011 103.646 21.0454 103.315 22.4577C103.223 22.8531 103.043 23.0445 102.765 23.0445C102.537 23.0445 102.333 23.0204 102.311 22.9911C102.289 22.9619 102.219 21.2197 102.155 19.1197C102.055 15.8723 101.986 15.2683 101.69 15.0779C101.438 14.916 101.251 14.9315 101.012 15.1347C100.734 15.3698 100.681 15.9828 100.681 18.9238C100.681 22.4165 100.539 23.2579 99.9503 23.2579C99.3132 23.2579 99.2196 22.4165 99.2196 16.6833C99.2196 11.8336 99.1706 10.8928 98.9065 10.6687C98.6566 10.4569 98.5301 10.4569 98.2802 10.6687C98.0161 10.8928 97.967 11.8336 97.967 16.6833C97.967 22.4165 97.8735 23.2579 97.2363 23.2579C96.6862 23.2579 96.5056 22.4487 96.5056 19.9821C96.5056 17.2646 96.4238 16.8566 95.8793 16.8566C95.3348 16.8566 95.253 17.2646 95.253 19.9821C95.253 22.4487 95.0724 23.2579 94.5223 23.2579C93.9102 23.2579 93.7916 22.4142 93.7916 18.0618C93.7916 15.6577 93.7346 13.5391 93.6649 13.3534C93.5952 13.1678 93.3233 13.0159 93.0609 13.0159C92.7985 13.0159 92.5267 13.1678 92.4569 13.3534C92.3872 13.5391 92.3302 15.6436 92.3302 18.0302C92.3302 20.4168 92.2732 22.5213 92.2035 22.7069C91.9908 23.2736 91.31 23.1115 91.1571 22.4577C90.8285 21.0518 89.9561 20.9007 89.6162 22.191C89.4496 22.8232 89.2838 23.0445 88.9767 23.0445C88.2882 23.0445 88.1099 22.1261 88.269 19.3973C88.4233 16.7536 88.2627 16.0031 87.5435 16.0031C86.9719 16.0031 86.9022 16.3893 86.9022 19.5554C86.9022 22.4233 86.7375 23.2579 86.1715 23.2579C85.5485 23.2579 85.4408 22.4144 85.4408 17.5368C85.4408 13.4456 85.3894 12.5976 85.1276 12.3757C84.8777 12.1639 84.7512 12.1639 84.5013 12.3757C84.2395 12.5976 84.1882 13.4456 84.1882 17.5368C84.1882 22.4144 84.0804 23.2579 83.4575 23.2579C82.9378 23.2579 82.7268 22.4878 82.7268 20.5907C82.7268 18.6936 82.5157 17.9235 81.9961 17.9235C81.4783 17.9235 81.2654 18.6914 81.2654 20.5591C81.2654 22.6442 81.1618 23.0445 80.6228 23.0445C80.361 23.0445 80.1773 22.8232 80.062 22.3685C79.7247 21.0375 78.7409 21.0627 78.4775 22.4091C78.3912 22.849 78.2299 23.0445 77.9526 23.0445C77.39 23.0445 77.2987 22.6574 77.2987 20.2706C77.2987 17.8249 77.2123 17.4967 76.5681 17.4967C75.9215 17.4967 75.8378 17.8213 75.8342 20.3414C75.8307 22.6651 75.6996 23.1305 75.0816 23.0099C74.7376 22.9429 74.673 22.6574 74.5582 20.6952C74.486 19.4641 74.4156 17.4846 74.4016 16.2959C74.3822 14.6595 74.3 14.0706 74.0628 13.8694C73.8129 13.6575 73.6864 13.6575 73.4365 13.8694C73.1778 14.0887 73.1233 14.8562 73.1233 18.2837C73.1233 22.4146 72.9995 23.2579 72.3926 23.2579C71.7452 23.2579 71.6619 22.4197 71.6619 15.8964C71.6619 9.37313 71.5786 8.53499 70.9312 8.53499C70.2841 8.53499 70.2006 9.37334 70.2006 15.8648C70.2006 19.4425 70.1436 22.5213 70.0738 22.7069C69.9099 23.1435 69.2385 23.1435 69.0746 22.7069C69.0049 22.5213 68.9479 18.4004 68.9479 13.5493C68.9479 8.69822 68.8909 4.57732 68.8212 4.39168C68.7515 4.20604 68.4797 4.05412 68.2172 4.05412C67.9548 4.05412 67.683 4.20604 67.6133 4.39168C67.5435 4.57732 67.4865 8.69822 67.4865 13.5493C67.4865 18.4004 67.4295 22.5213 67.3598 22.7069C67.2901 22.8926 67.0652 23.0445 66.8602 23.0445C66.6552 23.0445 66.4304 22.8926 66.3606 22.7069C66.2909 22.5213 66.2339 17.4871 66.2339 11.5201C66.2339 1.9415 66.1955 0.631379 65.9059 0.335215C65.7253 0.150859 65.5441 0 65.5032 0C65.4623 0 65.2811 0.150859 65.1005 0.335215Z" fill="#D0D5DD"/>
<path fill-rule="evenodd" clip-rule="evenodd" d="M209.101 0.335215C208.811 0.631379 208.773 1.9415 208.773 11.5201C208.773 17.4871 208.716 22.5213 208.646 22.7069C208.482 23.1435 207.811 23.1435 207.647 22.7069C207.577 22.5213 207.52 18.7478 207.52 14.3213C207.52 8.34616 207.455 6.20729 207.269 6.01717C206.916 5.65572 206.335 5.69924 206.185 6.09868C206.116 6.28432 206.059 10.0352 206.059 14.4344C206.059 22.428 205.99 23.2579 205.328 23.2579C204.686 23.2579 204.597 22.4176 204.597 16.3548C204.597 13.0118 204.54 10.1251 204.47 9.93943C204.319 9.537 203.647 9.49219 203.409 9.86858C203.316 10.0154 203.193 13.0146 203.136 16.5338C203.037 22.581 203.01 22.9365 202.639 23.0095C202.423 23.0517 202.166 22.957 202.068 22.7987C201.97 22.6406 201.888 20.6705 201.886 18.4211C201.885 16.1715 201.826 14.1792 201.756 13.9935C201.687 13.8079 201.471 13.656 201.276 13.656C200.495 13.656 200.422 14.049 200.422 18.2687C200.422 20.5241 200.365 22.5213 200.295 22.7069C200.103 23.2194 199.403 23.1215 199.277 22.5644C199.218 22.3002 199.145 21.1824 199.117 20.0799C199.075 18.4802 198.995 18.0302 198.717 17.8518C198.465 17.6898 198.278 17.7054 198.038 17.9085C197.778 18.1296 197.708 18.6325 197.708 20.2794C197.708 21.4288 197.651 22.5213 197.581 22.7069C197.368 23.2736 196.687 23.1115 196.535 22.4577C196.205 21.0454 195.334 20.9011 194.991 22.2019C194.865 22.6775 194.614 23.1251 194.431 23.1968C193.837 23.4296 193.532 22.6493 193.532 20.896C193.532 19.6985 193.448 19.1843 193.219 18.9904C192.601 18.4661 192.28 19.1 192.28 20.8442C192.28 22.5053 192.052 23.2579 191.549 23.2579C190.971 23.2579 190.818 22.4182 190.818 19.2438C190.818 16.6699 190.758 16.0042 190.505 15.7897C190.255 15.5779 190.129 15.5779 189.879 15.7897C189.626 16.0042 189.566 16.6699 189.566 19.2438C189.566 22.4182 189.413 23.2579 188.835 23.2579C188.214 23.2579 188.104 22.4144 188.104 17.6435C188.104 13.5346 188.057 12.8149 187.774 12.5742C187.534 12.3708 187.347 12.3555 187.095 12.5176C186.792 12.7129 186.733 13.3944 186.633 17.8396C186.571 20.6436 186.5 22.9619 186.477 22.9911C186.453 23.0204 186.246 23.0445 186.017 23.0445C185.787 23.0445 185.579 23.0204 185.554 22.9911C185.53 22.9619 185.459 19.9237 185.398 16.2395C185.299 10.2983 185.247 9.51587 184.938 9.31722C184.686 9.15463 184.499 9.17021 184.26 9.37356C183.971 9.6183 183.929 10.4786 183.929 16.0951C183.929 21.1783 183.869 22.6197 183.646 22.9316C183.258 23.4732 182.698 23.2105 182.542 22.4142C182.282 21.0859 181.4 21.0859 181.14 22.4142C180.984 23.2105 180.424 23.4732 180.036 22.9316C179.842 22.6602 179.753 21.8549 179.753 20.3626C179.753 18.691 179.681 18.1277 179.44 17.9235C179.19 17.7116 179.064 17.7116 178.814 17.9235C178.574 18.127 178.501 18.6852 178.501 20.3107C178.501 22.4692 178.305 23.2579 177.77 23.2579C177.178 23.2579 177.039 22.4159 177.039 18.8171C177.039 15.8776 176.981 15.1526 176.729 14.9386C176.558 14.7937 176.276 14.7308 176.103 14.799C175.838 14.903 175.787 15.5113 175.787 18.5709C175.787 22.3527 175.657 23.0445 174.948 23.0445C174.463 23.0445 174.347 22.6241 174.274 20.6129C174.234 19.5131 174.133 19.0853 173.873 18.9182C173.194 18.4821 172.864 19.1009 172.864 20.8128C172.864 21.6689 172.807 22.5213 172.737 22.7069C172.499 23.3424 171.897 23.0797 171.555 22.191C171.099 21.0042 170.461 21.0093 170.147 22.2019C169.852 23.3238 169.445 23.4648 168.676 22.7123L168.062 22.1112L167.449 22.7123C166.718 23.4279 166.228 23.3236 166.05 22.4142C165.79 21.0859 164.907 21.0859 164.647 22.4142C164.578 22.7665 164.365 23.116 164.174 23.1909C163.606 23.4136 163.261 22.667 163.261 21.2161C163.261 20.2721 163.166 19.8163 162.93 19.6155C162.339 19.1145 161.91 19.6371 161.85 20.9327C161.77 22.6182 161.637 23.0445 161.191 23.0445C160.63 23.0445 160.547 22.6529 160.547 20.0257C160.547 17.6593 160.362 16.8566 159.816 16.8566C159.27 16.8566 159.085 17.6593 159.085 20.0257C159.085 21.3149 159.028 22.5213 158.958 22.7069C158.795 23.1435 158.123 23.1435 157.959 22.7069C157.89 22.5213 157.833 20.5232 157.833 18.2668C157.833 15.028 157.769 14.0772 157.532 13.7501C157.291 13.4187 157.155 13.3831 156.853 13.5721C156.514 13.7842 156.465 14.2626 156.371 18.2664C156.314 20.7183 156.191 22.8445 156.098 22.9911C155.848 23.3863 155.372 23.3148 155.126 22.8452C154.993 22.5923 154.91 20.3709 154.91 17.1101C154.91 12.6395 154.86 11.7454 154.597 11.5222C154.347 11.3104 154.22 11.3104 153.97 11.5222C153.707 11.7454 153.657 12.6395 153.657 17.1101C153.657 22.4152 153.557 23.2579 152.926 23.2579C152.372 23.2579 152.196 22.4421 152.196 19.8754C152.196 17.0348 152.118 16.6432 151.554 16.6432C150.911 16.6432 150.734 17.3499 150.734 19.919C150.734 22.6546 150.654 23.0445 150.09 23.0445C149.652 23.0445 149.515 22.6252 149.432 21.0392C149.325 18.9976 148.02 19.1826 148.02 21.2395C148.02 22.6231 147.876 23.0445 147.403 23.0445C147.173 23.0445 146.919 22.7317 146.712 22.191C146.234 20.9487 145.319 21.0639 145.302 22.3685C145.299 22.5642 145.113 22.9645 144.889 23.2579C144.37 23.9351 144.37 24.2332 144.889 24.9066C145.118 25.2051 145.306 25.6645 145.306 25.9276C145.306 26.4948 145.806 26.9804 146.222 26.8174C146.384 26.7538 146.628 26.359 146.763 25.94C146.93 25.4215 147.136 25.1782 147.406 25.1782C147.851 25.1782 147.987 25.5905 148.07 27.1835C148.177 29.2251 149.482 29.0401 149.482 26.9832C149.482 25.5932 149.626 25.1782 150.108 25.1782C150.657 25.1782 150.734 25.5843 150.734 28.4604C150.734 31.1322 150.857 31.5795 151.589 31.5795C152.116 31.5795 152.196 31.1521 152.196 28.3473C152.196 25.7806 152.372 24.9649 152.926 24.9649C153.557 24.9649 153.657 25.8075 153.657 31.1126C153.657 35.5832 153.707 36.4773 153.97 36.7005C154.22 36.9124 154.347 36.9124 154.597 36.7005C154.86 36.4773 154.91 35.5832 154.91 31.1126C154.91 25.8075 155.01 24.9649 155.64 24.9649C156.248 24.9649 156.371 25.8083 156.371 29.9476C156.371 32.2343 156.428 34.2569 156.498 34.4425C156.674 34.9111 157.356 34.8652 157.616 34.3674C157.744 34.1244 157.833 32.2881 157.833 29.9041C157.833 27.676 157.89 25.7014 157.959 25.5158C158.123 25.0792 158.795 25.0792 158.958 25.5158C159.028 25.7014 159.085 26.8938 159.085 28.1655C159.085 30.8316 159.164 31.1527 159.816 31.1527C160.468 31.1527 160.547 30.8316 160.547 28.1655C160.547 25.5877 160.632 25.1782 161.173 25.1782C161.654 25.1782 161.799 25.5932 161.799 26.9687C161.799 28.3185 162.208 29.0322 162.779 28.6769C163.067 28.4975 163.181 28.0827 163.261 26.9266C163.318 26.0934 163.476 25.2984 163.612 25.1599C163.991 24.7732 164.508 25.0969 164.647 25.8085C164.898 27.0907 165.866 27.1396 166.014 25.8777C166.116 25.0152 166.689 24.7747 167.284 25.3453C167.899 25.9361 168.222 25.9402 168.821 25.3645C169.449 24.7615 169.87 24.9698 170.147 26.0208C170.461 27.2134 171.099 27.2185 171.555 26.0317C171.772 25.4693 172.014 25.1782 172.265 25.1782C172.723 25.1782 172.844 25.6295 172.915 27.6098C172.974 29.2298 173.347 29.7963 173.995 29.2473C174.247 29.0331 174.325 28.5536 174.325 27.2219C174.325 25.1228 174.686 24.5108 175.459 25.3001C175.732 25.5792 175.787 26.2556 175.787 29.3282C175.787 32.4607 175.838 33.0641 176.123 33.3057C176.408 33.5476 176.502 33.5293 176.749 33.1843C176.969 32.8764 177.039 31.9324 177.039 29.2842C177.039 25.8062 177.182 24.9649 177.77 24.9649C178.305 24.9649 178.501 25.7535 178.501 27.912C178.501 29.5375 178.574 30.0957 178.814 30.2992C179.064 30.5111 179.19 30.5111 179.44 30.2992C179.68 30.0957 179.753 29.5375 179.753 27.912C179.753 26.745 179.851 25.6046 179.97 25.3775C180.324 24.7009 180.787 24.9043 181.215 25.925C181.753 27.2076 182.224 27.1479 182.549 25.7558C182.727 24.9977 183.271 24.7668 183.646 25.2911C183.869 25.6031 183.929 27.0444 183.929 32.1276C183.929 37.7441 183.971 38.6044 184.26 38.8492C184.499 39.0525 184.686 39.0681 184.938 38.9055C185.247 38.7068 185.299 37.9244 185.398 31.9832C185.459 28.299 185.53 25.2608 185.554 25.2316C185.72 25.0342 186.412 25.2388 186.516 25.5158C186.586 25.7014 186.643 27.9941 186.643 30.6105C186.643 34.6909 186.69 35.4078 186.974 35.6485C187.213 35.8519 187.4 35.8675 187.652 35.7049C187.956 35.5094 188.013 34.8364 188.104 30.4059C188.195 25.9754 188.253 25.3024 188.556 25.107C188.808 24.9448 188.994 24.9593 189.23 25.159C189.5 25.3882 189.554 26.0006 189.547 28.7527C189.54 31.4391 189.599 32.1317 189.855 32.3933C190.115 32.6589 190.228 32.6677 190.495 32.4419C190.762 32.2151 190.818 31.5818 190.818 28.8056C190.818 25.9987 190.873 25.3976 191.149 25.1633C191.388 24.9602 191.576 24.9446 191.827 25.1065C192.099 25.2811 192.188 25.7294 192.235 27.1549C192.3 29.1284 192.599 29.7585 193.219 29.2324C193.451 29.0354 193.532 28.5107 193.532 27.2053C193.532 25.8585 193.61 25.3779 193.863 25.1633C194.309 24.7854 194.869 25.1522 194.954 25.8777C195.097 27.098 196.107 27.1752 196.408 25.9888C196.597 25.2401 197.215 24.9273 197.523 25.424C197.621 25.5821 197.703 26.6061 197.705 27.6995C197.708 29.7338 197.911 30.5126 198.438 30.5126C198.963 30.5126 199.169 29.7374 199.169 27.7703C199.169 26.7158 199.226 25.7014 199.296 25.5158C199.46 25.0792 200.131 25.0792 200.295 25.5158C200.365 25.7014 200.422 27.6986 200.422 29.954C200.422 34.1737 200.495 34.5667 201.276 34.5667C201.471 34.5667 201.687 34.4148 201.756 34.2292C201.826 34.0435 201.883 32.0455 201.883 29.789C201.883 25.4998 202.029 24.7306 202.784 25.0267C203.079 25.1424 203.126 25.9289 203.179 31.6657C203.243 38.505 203.314 39.0139 204.133 38.4862C204.458 38.2767 204.498 37.6438 204.548 31.8944C204.585 27.6363 204.68 25.44 204.835 25.2495C205.15 24.8607 205.777 24.8908 205.932 25.3024C206.002 25.4881 206.059 29.2729 206.059 33.7132C206.059 38.1536 206.116 41.9384 206.185 42.124C206.335 42.5235 206.916 42.567 207.269 42.2055C207.455 42.0154 207.52 39.8766 207.52 33.9014C207.52 29.475 207.577 25.7014 207.647 25.5158C207.716 25.3302 207.941 25.1782 208.146 25.1782C208.351 25.1782 208.576 25.3302 208.646 25.5158C208.716 25.7014 208.773 30.6865 208.773 36.5938C208.773 42.5011 208.83 47.4861 208.899 47.6718C209.064 48.1094 209.943 48.1094 210.107 47.6718C210.177 47.4861 210.234 42.5011 210.234 36.5938C210.234 30.6865 210.291 25.7014 210.361 25.5158C210.531 25.0626 211.198 25.0861 211.375 25.5516C211.453 25.7569 211.506 29.8959 211.494 34.7494C211.478 41.1457 211.539 43.6556 211.714 43.8711C212.038 44.271 212.665 44.2482 212.821 43.831C212.891 43.6454 212.949 39.4927 212.951 34.6026C212.953 29.7127 213.035 25.5821 213.133 25.424C213.231 25.2657 213.488 25.171 213.704 25.2134C214.076 25.2864 214.102 25.6583 214.208 32.3291C214.269 36.2003 214.34 39.3918 214.364 39.421C214.538 39.6271 215.433 39.4101 215.535 39.1368C215.605 38.9511 215.662 35.8724 215.662 32.2947C215.662 25.8032 215.745 24.9649 216.393 24.9649C217 24.9649 217.123 25.8081 217.123 29.9391C217.123 33.3665 217.178 34.134 217.437 34.3533C218.162 34.9689 218.304 34.329 218.44 29.8356C218.543 26.4459 218.637 25.4601 218.881 25.2113C219.135 24.9512 219.248 24.9437 219.514 25.1693C219.77 25.3863 219.837 25.927 219.837 27.7475C219.837 30.3306 219.923 30.726 220.479 30.726C221.111 30.726 221.299 30.028 221.299 27.6721C221.299 26.027 221.375 25.3792 221.59 25.197C221.945 24.8959 222.551 25.4157 222.551 26.0208C222.551 26.2327 222.7 26.5325 222.882 26.6868C223.336 27.0721 223.844 26.7139 224.062 25.8542C224.177 25.3995 224.361 25.1782 224.623 25.1782C225.164 25.1782 225.265 25.5779 225.265 27.7135C225.265 29.6171 225.434 30.0858 226.12 30.0858C226.628 30.0858 226.727 29.6555 226.727 27.4438C226.727 26.1986 226.819 25.3831 226.977 25.2209C227.331 24.8594 227.912 24.903 228.061 25.3024C228.131 25.4881 228.188 27.8768 228.188 30.6105C228.188 34.7688 228.239 35.6248 228.501 35.847C228.751 36.0588 228.878 36.0588 229.128 35.847C229.39 35.6244 229.441 34.7579 229.441 30.5126C229.441 26.1482 229.487 25.4048 229.771 25.1633C230.011 24.9602 230.198 24.9446 230.45 25.1068C230.743 25.2954 230.806 25.7972 230.849 28.295C230.909 31.8261 230.978 32.2196 231.538 32.2196C232.167 32.2196 232.301 31.5618 232.341 28.276C232.361 26.633 232.47 25.1972 232.585 25.0803C232.904 24.7536 233.496 25.2378 233.616 25.925C233.752 26.7002 234.298 27.0677 234.747 26.6868C234.929 26.5325 235.078 26.2338 235.078 26.023C235.078 25.0504 235.909 24.5183 236.203 25.3024C236.273 25.4881 236.33 27.6773 236.33 30.1674C236.33 33.4043 236.402 34.7677 236.581 34.9508C236.934 35.3122 237.515 35.2687 237.665 34.8693C237.735 34.6837 237.792 32.5311 237.792 30.0858C237.792 27.6406 237.849 25.4881 237.918 25.3024C237.988 25.1168 238.204 24.9649 238.399 24.9649C239.13 24.9649 239.253 25.4121 239.253 28.084C239.253 30.9601 239.33 31.3661 239.879 31.3661C240.424 31.3661 240.506 30.9581 240.506 28.2406C240.506 25.774 240.686 24.9649 241.236 24.9649C241.874 24.9649 241.967 25.8062 241.967 31.5394C241.967 36.3892 242.016 37.3299 242.28 37.554C242.53 37.7659 242.657 37.7659 242.906 37.554C243.171 37.3297 243.22 36.3834 243.22 31.4875C243.22 26.7696 243.276 25.6092 243.52 25.2723C243.761 24.941 243.897 24.9053 244.199 25.0944C244.534 25.3037 244.589 25.7622 244.681 29.1257C244.77 32.3604 244.837 32.9538 245.133 33.1446C245.385 33.3067 245.572 33.2912 245.812 33.088C246.089 32.8531 246.142 32.2426 246.142 29.3303C246.142 27.418 246.199 25.7014 246.269 25.5158C246.496 24.9113 247.16 25.1198 247.346 25.8542C247.684 27.1878 248.667 27.1596 248.931 25.8085C249.087 25.0122 249.647 24.7496 250.035 25.2911C250.245 25.5853 250.318 26.5709 250.318 29.1404C250.318 31.9501 250.376 32.6436 250.631 32.8597C250.881 33.0716 251.007 33.0716 251.257 32.8597C251.512 32.644 251.57 31.9559 251.57 29.1922C251.57 25.8058 251.716 24.9649 252.301 24.9649C252.812 24.9649 253.032 25.7255 253.032 27.4938C253.032 29.4581 253.141 29.8725 253.658 29.8725C254.178 29.8725 254.284 29.4583 254.284 27.4419C254.284 25.5723 254.576 24.788 255.183 25.0259C255.366 25.0976 255.618 25.5452 255.743 26.0208C256.086 27.3216 256.957 27.1773 257.287 25.765C257.376 25.3835 257.561 25.1782 257.815 25.1782C258.334 25.1782 258.46 25.5804 258.46 27.2369C258.46 28.7083 258.704 29.4457 259.191 29.4457C259.677 29.4457 259.921 28.7083 259.921 27.2369C259.921 26.4758 259.978 25.7014 260.048 25.5158C260.212 25.0792 260.883 25.0792 261.047 25.5158C261.117 25.7014 261.174 27.3739 261.174 29.2324C261.174 31.0908 261.231 32.7633 261.301 32.9489C261.37 33.1345 261.642 33.2865 261.905 33.2865C262.167 33.2865 262.439 33.1345 262.509 32.9489C262.578 32.7633 262.635 31.0768 262.635 29.2008C262.635 25.8058 262.78 24.9649 263.366 24.9649C264.021 24.9649 264.097 25.7994 264.097 33.0415C264.097 37.0299 264.154 40.4448 264.223 40.6304C264.387 41.067 265.059 41.067 265.223 40.6304C265.292 40.4448 265.349 37.0299 265.349 33.0415C265.349 25.7994 265.425 24.9649 266.08 24.9649C266.745 24.9649 266.811 25.7917 266.811 34.2174C266.811 41.5938 266.852 42.6863 267.139 42.9799C267.319 43.1642 267.5 43.3151 267.541 43.3151C267.582 43.3151 267.764 43.1642 267.944 42.9799C268.231 42.6863 268.272 41.5968 268.272 34.2488C268.272 29.6314 268.329 25.7014 268.399 25.5158C268.503 25.2388 269.195 25.0344 269.361 25.2316C269.385 25.2608 269.456 28.3471 269.517 32.0899C269.62 38.3543 269.659 38.9136 270.007 39.1312C270.309 39.3205 270.444 39.2851 270.685 38.9535C270.931 38.6147 270.986 37.386 270.986 32.1963C270.986 28.7077 271.043 25.7014 271.113 25.5158C271.183 25.3302 271.407 25.1782 271.612 25.1782C271.817 25.1782 272.042 25.3302 272.112 25.5158C272.182 25.7014 272.239 27.7061 272.239 29.9704C272.239 33.4668 272.289 34.1299 272.569 34.3683C272.809 34.5714 272.996 34.587 273.248 34.4248C273.548 34.2317 273.612 33.5897 273.711 29.743C273.774 27.2911 273.845 25.2608 273.867 25.2316C273.89 25.2023 274.087 25.1782 274.304 25.1782C274.86 25.1782 274.953 25.5702 274.953 27.9269C274.953 30.0494 275.106 30.5126 275.807 30.5126C276.317 30.5126 276.414 30.0824 276.414 27.8138C276.414 25.7471 276.615 24.9649 277.145 24.9649C277.743 24.9649 277.876 25.8075 277.876 29.619C277.876 32.7473 277.932 33.4958 278.186 33.7109C278.357 33.8558 278.639 33.9187 278.812 33.8504C279.079 33.7461 279.128 33.1038 279.128 29.7585C279.128 27.4313 279.218 25.6197 279.344 25.3775C279.59 24.9079 280.066 24.8364 280.316 25.2316C280.409 25.3784 280.532 28.5124 280.59 32.1966C280.686 38.3629 280.724 38.9136 281.072 39.1312C281.374 39.3205 281.509 39.2851 281.75 38.9535C281.996 38.6147 282.051 37.386 282.051 32.1963C282.051 28.7077 282.108 25.7014 282.178 25.5158C282.37 25.0035 283.069 25.1014 283.197 25.6583C283.257 25.9225 283.329 27.5685 283.357 29.3162C283.4 32.0133 283.461 32.5277 283.756 32.7178C284.008 32.88 284.195 32.8646 284.434 32.6613C284.71 32.4276 284.765 31.8345 284.765 29.1169C284.765 27.322 284.822 25.7014 284.892 25.5158C285.119 24.9113 285.782 25.1198 285.968 25.8542C286.186 26.7139 286.694 27.0721 287.148 26.6868C287.33 26.5325 287.479 26.1947 287.479 25.9361C287.479 25.6775 287.714 25.2405 288.001 24.9649C288.632 24.3591 288.663 23.8803 288.104 23.3637C287.874 23.151 287.589 22.6079 287.47 22.1571C287.139 20.8992 286.262 21.0714 285.938 22.4577C285.765 23.197 285.033 23.2702 284.872 22.5644C284.811 22.3002 284.739 20.6543 284.711 18.9065C284.668 16.2094 284.608 15.695 284.313 15.5049C284.061 15.3427 283.874 15.3581 283.634 15.5614C283.359 15.7951 283.304 16.3883 283.304 19.1058C283.304 20.9007 283.247 22.5213 283.177 22.7069C283.013 23.1435 282.342 23.1435 282.178 22.7069C282.108 22.5213 282.051 19.5151 282.051 16.0264C282.051 10.8367 281.996 9.60806 281.75 9.26922C281.509 8.93763 281.374 8.90221 281.072 9.09148C280.724 9.30912 280.686 9.85984 280.59 16.0262C280.532 19.7103 280.409 22.8445 280.316 22.9911C280.066 23.3863 279.59 23.3148 279.344 22.8452C279.218 22.6047 279.128 20.835 279.128 18.6037C279.128 15.4609 279.072 14.7276 278.815 14.5095C278.565 14.2976 278.439 14.2976 278.189 14.5095C277.932 14.7276 277.876 15.4609 277.876 18.6037C277.876 22.4152 277.743 23.2579 277.145 23.2579C276.615 23.2579 276.414 22.4756 276.414 20.4089C276.414 18.1403 276.317 17.7101 275.807 17.7101C275.106 17.7101 274.953 18.1734 274.953 20.2958C274.953 21.4363 274.896 22.5213 274.826 22.7069C274.662 23.1435 273.991 23.1435 273.827 22.7069C273.757 22.5213 273.7 20.5166 273.7 18.2523C273.7 14.7559 273.65 14.0928 273.369 13.8544C273.13 13.6513 272.943 13.6357 272.691 13.7979C272.391 13.991 272.327 14.633 272.228 18.4798C272.165 20.9316 272.094 22.9619 272.072 22.9911C271.916 23.1904 271.216 22.983 271.113 22.7069C271.043 22.5213 270.986 19.5151 270.986 16.0264C270.986 10.8367 270.931 9.60806 270.685 9.26922C270.444 8.93763 270.309 8.90221 270.007 9.09148C269.659 9.30912 269.62 9.86837 269.517 16.1328C269.456 19.8757 269.385 22.9619 269.361 22.9911C269.195 23.1883 268.503 22.9839 268.399 22.7069C268.329 22.5213 268.272 18.6263 268.272 14.0512C268.272 5.7353 268.206 4.90762 267.541 4.90762C266.877 4.90762 266.811 5.73509 266.811 14.0827C266.811 22.4304 266.745 23.2579 266.08 23.2579C265.425 23.2579 265.349 22.4234 265.349 15.1812C265.349 11.1928 265.292 7.77794 265.223 7.5923C265.153 7.40667 264.928 7.25474 264.723 7.25474C264.518 7.25474 264.293 7.40667 264.223 7.5923C264.154 7.77794 264.097 11.1928 264.097 15.1812C264.097 22.4234 264.021 23.2579 263.366 23.2579C262.777 23.2579 262.635 22.4163 262.635 18.9129C262.635 15.998 262.579 15.3359 262.307 15.0581C261.904 14.6463 261.905 14.6463 261.502 15.0581C261.23 15.3357 261.174 15.995 261.174 18.8815C261.174 20.7998 261.117 22.5213 261.047 22.7069C260.855 23.2197 260.155 23.1215 260.03 22.5644C259.971 22.3002 259.899 21.4222 259.87 20.6129C259.83 19.5131 259.729 19.0853 259.469 18.9182C258.79 18.4821 258.46 19.1009 258.46 20.8128C258.46 22.6435 258.344 23.0445 257.815 23.0445C257.561 23.0445 257.376 22.8392 257.287 22.4577C256.957 21.0454 256.086 20.9011 255.743 22.2019C255.618 22.6775 255.366 23.1251 255.183 23.1968C254.555 23.4428 254.284 22.6529 254.284 20.5759C254.284 19.0941 254.208 18.551 253.971 18.3502C253.721 18.1384 253.595 18.1384 253.345 18.3502C253.109 18.5502 253.032 19.0883 253.032 20.5241C253.032 22.4833 252.825 23.2579 252.301 23.2579C251.716 23.2579 251.57 22.4169 251.57 19.0305C251.57 16.2668 251.512 15.5787 251.257 15.363C251.007 15.1511 250.881 15.1511 250.631 15.363C250.376 15.5791 250.318 16.2726 250.318 19.0823C250.318 21.6518 250.245 22.6374 250.035 22.9316C249.621 23.5107 249.123 23.2017 248.859 22.2019C248.517 20.9011 247.646 21.0454 247.316 22.4577C247.223 22.8531 247.043 23.0445 246.765 23.0445C246.537 23.0445 246.333 23.0204 246.311 22.9911C246.289 22.9619 246.219 21.2197 246.155 19.1197C246.055 15.8723 245.986 15.2683 245.69 15.0779C245.438 14.916 245.251 14.9315 245.012 15.1347C244.734 15.3698 244.681 15.9828 244.681 18.9238C244.681 22.4165 244.539 23.2579 243.95 23.2579C243.313 23.2579 243.22 22.4165 243.22 16.6833C243.22 11.8336 243.171 10.8928 242.906 10.6687C242.657 10.4569 242.53 10.4569 242.28 10.6687C242.016 10.8928 241.967 11.8336 241.967 16.6833C241.967 22.4165 241.874 23.2579 241.236 23.2579C240.686 23.2579 240.506 22.4487 240.506 19.9821C240.506 17.2646 240.424 16.8566 239.879 16.8566C239.335 16.8566 239.253 17.2646 239.253 19.9821C239.253 22.4487 239.072 23.2579 238.522 23.2579C237.91 23.2579 237.792 22.4142 237.792 18.0618C237.792 15.6577 237.735 13.5391 237.665 13.3534C237.595 13.1678 237.323 13.0159 237.061 13.0159C236.798 13.0159 236.527 13.1678 236.457 13.3534C236.387 13.5391 236.33 15.6436 236.33 18.0302C236.33 20.4168 236.273 22.5213 236.203 22.7069C235.991 23.2736 235.31 23.1115 235.157 22.4577C234.829 21.0518 233.956 20.9007 233.616 22.191C233.45 22.8232 233.284 23.0445 232.977 23.0445C232.288 23.0445 232.11 22.1261 232.269 19.3973C232.423 16.7536 232.263 16.0031 231.544 16.0031C230.972 16.0031 230.902 16.3893 230.902 19.5554C230.902 22.4233 230.737 23.2579 230.171 23.2579C229.549 23.2579 229.441 22.4144 229.441 17.5368C229.441 13.4456 229.389 12.5976 229.128 12.3757C228.878 12.1639 228.751 12.1639 228.501 12.3757C228.24 12.5976 228.188 13.4456 228.188 17.5368C228.188 22.4144 228.08 23.2579 227.457 23.2579C226.938 23.2579 226.727 22.4878 226.727 20.5907C226.727 18.6936 226.516 17.9235 225.996 17.9235C225.478 17.9235 225.265 18.6914 225.265 20.5591C225.265 22.6442 225.162 23.0445 224.623 23.0445C224.361 23.0445 224.177 22.8232 224.062 22.3685C223.725 21.0375 222.741 21.0627 222.477 22.4091C222.391 22.849 222.23 23.0445 221.953 23.0445C221.39 23.0445 221.299 22.6574 221.299 20.2706C221.299 17.8249 221.212 17.4967 220.568 17.4967C219.921 17.4967 219.838 17.8213 219.834 20.3414C219.831 22.6651 219.7 23.1305 219.082 23.0099C218.738 22.9429 218.673 22.6574 218.558 20.6952C218.486 19.4641 218.416 17.4846 218.402 16.2959C218.382 14.6595 218.3 14.0706 218.063 13.8694C217.813 13.6575 217.686 13.6575 217.437 13.8694C217.178 14.0887 217.123 14.8562 217.123 18.2837C217.123 22.4146 217 23.2579 216.393 23.2579C215.745 23.2579 215.662 22.4197 215.662 15.8964C215.662 9.37313 215.579 8.53499 214.931 8.53499C214.284 8.53499 214.201 9.37334 214.201 15.8648C214.201 19.4425 214.144 22.5213 214.074 22.7069C213.91 23.1435 213.239 23.1435 213.075 22.7069C213.005 22.5213 212.948 18.4004 212.948 13.5493C212.948 8.69822 212.891 4.57732 212.821 4.39168C212.751 4.20604 212.48 4.05412 212.217 4.05412C211.955 4.05412 211.683 4.20604 211.613 4.39168C211.544 4.57732 211.487 8.69822 211.487 13.5493C211.487 18.4004 211.43 22.5213 211.36 22.7069C211.29 22.8926 211.065 23.0445 210.86 23.0445C210.655 23.0445 210.43 22.8926 210.361 22.7069C210.291 22.5213 210.234 17.4871 210.234 11.5201C210.234 1.9415 210.196 0.631379 209.906 0.335215C209.725 0.150859 209.544 0 209.503 0C209.462 0 209.281 0.150859 209.101 0.335215Z" fill="#D0D5DD"/>
<path fill-rule="evenodd" clip-rule="evenodd" d="M347.1 0.335215C346.811 0.631379 346.773 1.9415 346.773 11.5201C346.773 17.4871 346.716 22.5213 346.646 22.7069C346.482 23.1435 345.811 23.1435 345.647 22.7069C345.577 22.5213 345.52 18.7478 345.52 14.3213C345.52 8.34616 345.455 6.20729 345.269 6.01717C344.916 5.65572 344.335 5.69924 344.185 6.09868C344.116 6.28432 344.059 10.0352 344.059 14.4344C344.059 22.428 343.99 23.2579 343.328 23.2579C342.686 23.2579 342.597 22.4176 342.597 16.3548C342.597 13.0118 342.54 10.1251 342.47 9.93943C342.319 9.537 341.647 9.49219 341.409 9.86858C341.316 10.0154 341.193 13.0146 341.136 16.5338C341.037 22.581 341.01 22.9365 340.639 23.0095C340.423 23.0517 340.166 22.957 340.068 22.7987C339.97 22.6406 339.888 20.6705 339.886 18.4211C339.885 16.1715 339.826 14.1792 339.756 13.9935C339.687 13.8079 339.471 13.656 339.276 13.656C338.495 13.656 338.422 14.049 338.422 18.2687C338.422 20.5241 338.365 22.5213 338.295 22.7069C338.103 23.2194 337.403 23.1215 337.277 22.5644C337.218 22.3002 337.145 21.1824 337.117 20.0799C337.075 18.4802 336.995 18.0302 336.717 17.8518C336.465 17.6898 336.278 17.7054 336.038 17.9085C335.778 18.1296 335.708 18.6325 335.708 20.2794C335.708 21.4288 335.651 22.5213 335.581 22.7069C335.368 23.2736 334.687 23.1115 334.535 22.4577C334.205 21.0454 333.334 20.9011 332.991 22.2019C332.866 22.6775 332.614 23.1251 332.431 23.1968C331.837 23.4296 331.532 22.6493 331.532 20.896C331.532 19.6985 331.448 19.1843 331.219 18.9904C330.601 18.4661 330.28 19.1 330.28 20.8442C330.28 22.5053 330.052 23.2579 329.549 23.2579C328.971 23.2579 328.818 22.4182 328.818 19.2438C328.818 16.6699 328.758 16.0042 328.505 15.7897C328.255 15.5779 328.129 15.5779 327.879 15.7897C327.626 16.0042 327.566 16.6699 327.566 19.2438C327.566 22.4182 327.413 23.2579 326.835 23.2579C326.214 23.2579 326.104 22.4144 326.104 17.6435C326.104 13.5346 326.057 12.8149 325.774 12.5742C325.534 12.3708 325.347 12.3555 325.095 12.5176C324.792 12.7129 324.733 13.3944 324.633 17.8396C324.571 20.6436 324.5 22.9619 324.477 22.9911C324.453 23.0204 324.246 23.0445 324.017 23.0445C323.787 23.0445 323.579 23.0204 323.554 22.9911C323.53 22.9619 323.459 19.9237 323.398 16.2395C323.299 10.2983 323.247 9.51587 322.938 9.31722C322.686 9.15463 322.499 9.17021 322.26 9.37356C321.971 9.6183 321.929 10.4786 321.929 16.0951C321.929 21.1783 321.869 22.6197 321.646 22.9316C321.259 23.4732 320.698 23.2105 320.542 22.4142C320.283 21.0859 319.4 21.0859 319.14 22.4142C318.984 23.2105 318.424 23.4732 318.036 22.9316C317.842 22.6602 317.753 21.8549 317.753 20.3626C317.753 18.691 317.681 18.1277 317.44 17.9235C317.19 17.7116 317.064 17.7116 316.814 17.9235C316.574 18.127 316.501 18.6852 316.501 20.3107C316.501 22.4692 316.305 23.2579 315.77 23.2579C315.178 23.2579 315.039 22.4159 315.039 18.8171C315.039 15.8776 314.981 15.1526 314.729 14.9386C314.558 14.7937 314.276 14.7308 314.103 14.799C313.838 14.903 313.787 15.5113 313.787 18.5709C313.787 22.3527 313.657 23.0445 312.948 23.0445C312.463 23.0445 312.347 22.6241 312.274 20.6129C312.234 19.5131 312.133 19.0853 311.873 18.9182C311.194 18.4821 310.864 19.1009 310.864 20.8128C310.864 21.6689 310.807 22.5213 310.737 22.7069C310.499 23.3424 309.897 23.0797 309.555 22.191C309.099 21.0042 308.461 21.0093 308.147 22.2019C307.852 23.3238 307.445 23.4648 306.676 22.7123L306.062 22.1112L305.449 22.7123C304.718 23.4279 304.228 23.3236 304.05 22.4142C303.79 21.0859 302.907 21.0859 302.647 22.4142C302.578 22.7665 302.365 23.116 302.174 23.1909C301.606 23.4136 301.261 22.667 301.261 21.2161C301.261 20.2721 301.166 19.8163 300.93 19.6155C300.339 19.1145 299.91 19.6371 299.85 20.9327C299.77 22.6182 299.637 23.0445 299.191 23.0445C298.63 23.0445 298.547 22.6529 298.547 20.0257C298.547 17.6593 298.362 16.8566 297.816 16.8566C297.27 16.8566 297.085 17.6593 297.085 20.0257C297.085 21.3149 297.028 22.5213 296.958 22.7069C296.795 23.1435 296.123 23.1435 295.959 22.7069C295.89 22.5213 295.833 20.5232 295.833 18.2668C295.833 15.028 295.769 14.0772 295.532 13.7501C295.291 13.4187 295.155 13.3831 294.853 13.5721C294.514 13.7842 294.465 14.2626 294.371 18.2664C294.314 20.7183 294.191 22.8445 294.098 22.9911C293.848 23.3863 293.372 23.3148 293.126 22.8452C292.993 22.5923 292.91 20.3709 292.91 17.1101C292.91 12.6395 292.86 11.7454 292.597 11.5222C292.347 11.3104 292.22 11.3104 291.97 11.5222C291.707 11.7454 291.657 12.6395 291.657 17.1101C291.657 22.4152 291.557 23.2579 290.926 23.2579C290.372 23.2579 290.196 22.4421 290.196 19.8754C290.196 17.0348 290.118 16.6432 289.554 16.6432C288.911 16.6432 288.734 17.3499 288.734 19.919C288.734 22.6546 288.654 23.0445 288.09 23.0445C287.652 23.0445 287.515 22.6252 287.432 21.0392C287.325 18.9976 286.02 19.1826 286.02 21.2395C286.02 22.6231 285.876 23.0445 285.403 23.0445C285.173 23.0445 284.919 22.7317 284.712 22.191C284.234 20.9487 283.319 21.0639 283.302 22.3685C283.299 22.5642 283.113 22.9645 282.889 23.2579C282.37 23.9351 282.37 24.2332 282.889 24.9066C283.118 25.2051 283.306 25.6645 283.306 25.9276C283.306 26.4948 283.806 26.9804 284.222 26.8174C284.384 26.7538 284.628 26.359 284.763 25.94C284.93 25.4215 285.136 25.1782 285.406 25.1782C285.851 25.1782 285.987 25.5905 286.07 27.1835C286.177 29.2251 287.482 29.0401 287.482 26.9832C287.482 25.5932 287.626 25.1782 288.108 25.1782C288.657 25.1782 288.734 25.5843 288.734 28.4604C288.734 31.1322 288.857 31.5795 289.589 31.5795C290.116 31.5795 290.196 31.1521 290.196 28.3473C290.196 25.7806 290.372 24.9649 290.926 24.9649C291.557 24.9649 291.657 25.8075 291.657 31.1126C291.657 35.5832 291.707 36.4773 291.97 36.7005C292.22 36.9124 292.347 36.9124 292.597 36.7005C292.86 36.4773 292.91 35.5832 292.91 31.1126C292.91 25.8075 293.01 24.9649 293.64 24.9649C294.248 24.9649 294.371 25.8083 294.371 29.9476C294.371 32.2343 294.428 34.2569 294.498 34.4425C294.674 34.9111 295.356 34.8652 295.616 34.3674C295.744 34.1244 295.833 32.2881 295.833 29.9041C295.833 27.676 295.89 25.7014 295.959 25.5158C296.123 25.0792 296.795 25.0792 296.958 25.5158C297.028 25.7014 297.085 26.8938 297.085 28.1655C297.085 30.8316 297.164 31.1527 297.816 31.1527C298.468 31.1527 298.547 30.8316 298.547 28.1655C298.547 25.5877 298.632 25.1782 299.173 25.1782C299.654 25.1782 299.799 25.5932 299.799 26.9687C299.799 28.3185 300.208 29.0322 300.779 28.6769C301.067 28.4975 301.181 28.0827 301.261 26.9266C301.318 26.0934 301.476 25.2984 301.612 25.1599C301.991 24.7732 302.508 25.0969 302.647 25.8085C302.898 27.0907 303.866 27.1396 304.014 25.8777C304.116 25.0152 304.689 24.7747 305.284 25.3453C305.899 25.9361 306.222 25.9402 306.821 25.3645C307.449 24.7615 307.87 24.9698 308.147 26.0208C308.461 27.2134 309.099 27.2185 309.555 26.0317C309.772 25.4693 310.014 25.1782 310.265 25.1782C310.723 25.1782 310.844 25.6295 310.915 27.6098C310.974 29.2298 311.347 29.7963 311.995 29.2473C312.247 29.0331 312.325 28.5536 312.325 27.2219C312.325 25.1228 312.686 24.5108 313.459 25.3001C313.732 25.5792 313.787 26.2556 313.787 29.3282C313.787 32.4607 313.838 33.0641 314.122 33.3057C314.408 33.5476 314.502 33.5293 314.749 33.1843C314.969 32.8764 315.039 31.9324 315.039 29.2842C315.039 25.8062 315.182 24.9649 315.77 24.9649C316.305 24.9649 316.501 25.7535 316.501 27.912C316.501 29.5375 316.574 30.0957 316.814 30.2992C317.064 30.5111 317.19 30.5111 317.44 30.2992C317.68 30.0957 317.753 29.5375 317.753 27.912C317.753 26.745 317.851 25.6046 317.97 25.3775C318.324 24.7009 318.787 24.9043 319.215 25.925C319.753 27.2076 320.224 27.1479 320.549 25.7558C320.727 24.9977 321.271 24.7668 321.646 25.2911C321.869 25.6031 321.929 27.0444 321.929 32.1276C321.929 37.7441 321.971 38.6044 322.26 38.8492C322.499 39.0525 322.686 39.0681 322.938 38.9055C323.247 38.7068 323.299 37.9244 323.398 31.9832C323.459 28.299 323.53 25.2608 323.554 25.2316C323.72 25.0342 324.412 25.2388 324.516 25.5158C324.586 25.7014 324.643 27.9941 324.643 30.6105C324.643 34.6909 324.69 35.4078 324.974 35.6485C325.213 35.8519 325.4 35.8675 325.652 35.7049C325.956 35.5094 326.013 34.8364 326.104 30.4059C326.195 25.9754 326.253 25.3024 326.556 25.107C326.808 24.9448 326.994 24.9593 327.23 25.159C327.5 25.3882 327.554 26.0006 327.547 28.7527C327.54 31.4391 327.599 32.1317 327.855 32.3933C328.115 32.6589 328.228 32.6677 328.495 32.4419C328.762 32.2151 328.818 31.5818 328.818 28.8056C328.818 25.9987 328.873 25.3976 329.149 25.1633C329.388 24.9602 329.575 24.9446 329.827 25.1065C330.099 25.2811 330.188 25.7294 330.235 27.1549C330.3 29.1284 330.599 29.7585 331.219 29.2324C331.451 29.0354 331.532 28.5107 331.532 27.2053C331.532 25.8585 331.61 25.3779 331.863 25.1633C332.309 24.7854 332.869 25.1522 332.954 25.8777C333.097 27.098 334.107 27.1752 334.407 25.9888C334.597 25.2401 335.215 24.9273 335.523 25.424C335.621 25.5821 335.703 26.6061 335.705 27.6995C335.708 29.7338 335.911 30.5126 336.438 30.5126C336.963 30.5126 337.169 29.7374 337.169 27.7703C337.169 26.7158 337.226 25.7014 337.296 25.5158C337.46 25.0792 338.131 25.0792 338.295 25.5158C338.365 25.7014 338.422 27.6986 338.422 29.954C338.422 34.1737 338.495 34.5667 339.276 34.5667C339.471 34.5667 339.687 34.4148 339.756 34.2292C339.826 34.0435 339.883 32.0455 339.883 29.789C339.883 25.4998 340.029 24.7306 340.784 25.0267C341.079 25.1424 341.126 25.9289 341.179 31.6657C341.243 38.505 341.314 39.0139 342.133 38.4862C342.458 38.2767 342.498 37.6438 342.548 31.8944C342.585 27.6363 342.68 25.44 342.835 25.2495C343.15 24.8607 343.777 24.8908 343.932 25.3024C344.002 25.4881 344.059 29.2729 344.059 33.7132C344.059 38.1536 344.116 41.9384 344.185 42.124C344.335 42.5235 344.916 42.567 345.269 42.2055C345.455 42.0154 345.52 39.8766 345.52 33.9014C345.52 29.475 345.577 25.7014 345.647 25.5158C345.716 25.3302 345.941 25.1782 346.146 25.1782C346.351 25.1782 346.576 25.3302 346.646 25.5158C346.716 25.7014 346.773 30.6865 346.773 36.5938C346.773 42.5011 346.83 47.4861 346.899 47.6718C347.064 48.1094 347.943 48.1094 348.107 47.6718C348.177 47.4861 348.234 42.5011 348.234 36.5938C348.234 30.6865 348.291 25.7014 348.361 25.5158C348.531 25.0626 349.198 25.0861 349.375 25.5516C349.453 25.7569 349.506 29.8959 349.494 34.7494C349.478 41.1457 349.539 43.6556 349.714 43.8711C350.038 44.271 350.665 44.2482 350.821 43.831C350.891 43.6454 350.949 39.4927 350.951 34.6026C350.953 29.7127 351.035 25.5821 351.133 25.424C351.231 25.2657 351.488 25.171 351.704 25.2134C352.076 25.2864 352.102 25.6583 352.208 32.3291C352.269 36.2003 352.34 39.3918 352.364 39.421C352.538 39.6271 353.433 39.4101 353.535 39.1368C353.605 38.9511 353.662 35.8724 353.662 32.2947C353.662 25.8032 353.745 24.9649 354.393 24.9649C355 24.9649 355.123 25.8081 355.123 29.9391C355.123 33.3665 355.178 34.134 355.436 34.3533C356.162 34.9689 356.304 34.329 356.44 29.8356C356.543 26.4459 356.637 25.4601 356.881 25.2113C357.135 24.9512 357.248 24.9437 357.514 25.1693C357.77 25.3863 357.837 25.927 357.837 27.7475C357.837 30.3306 357.923 30.726 358.479 30.726C359.111 30.726 359.299 30.028 359.299 27.6721C359.299 26.027 359.375 25.3792 359.59 25.197C359.945 24.8959 360.551 25.4157 360.551 26.0208C360.551 26.2327 360.7 26.5325 360.882 26.6868C361.336 27.0721 361.844 26.7139 362.062 25.8542C362.177 25.3995 362.361 25.1782 362.623 25.1782C363.164 25.1782 363.265 25.5779 363.265 27.7135C363.265 29.6171 363.434 30.0858 364.12 30.0858C364.628 30.0858 364.727 29.6555 364.727 27.4438C364.727 26.1986 364.819 25.3831 364.977 25.2209C365.331 24.8594 365.912 24.903 366.061 25.3024C366.131 25.4881 366.188 27.8768 366.188 30.6105C366.188 34.7688 366.239 35.6248 366.501 35.847C366.751 36.0588 366.878 36.0588 367.128 35.847C367.39 35.6244 367.441 34.7579 367.441 30.5126C367.441 26.1482 367.487 25.4048 367.771 25.1633C368.011 24.9602 368.198 24.9446 368.45 25.1068C368.743 25.2954 368.806 25.7972 368.849 28.295C368.909 31.8261 368.978 32.2196 369.538 32.2196C370.167 32.2196 370.301 31.5618 370.341 28.276C370.361 26.633 370.47 25.1972 370.585 25.0803C370.904 24.7536 371.496 25.2378 371.616 25.925C371.752 26.7002 372.298 27.0677 372.747 26.6868C372.929 26.5325 373.078 26.2338 373.078 26.023C373.078 25.0504 373.909 24.5183 374.204 25.3024C374.273 25.4881 374.33 27.6773 374.33 30.1674C374.33 33.4043 374.402 34.7677 374.581 34.9508C374.934 35.3122 375.515 35.2687 375.665 34.8693C375.735 34.6837 375.792 32.5311 375.792 30.0858C375.792 27.6406 375.849 25.4881 375.918 25.3024C375.988 25.1168 376.204 24.9649 376.398 24.9649C377.13 24.9649 377.253 25.4121 377.253 28.084C377.253 30.9601 377.33 31.3661 377.879 31.3661C378.424 31.3661 378.506 30.9581 378.506 28.2406C378.506 25.774 378.686 24.9649 379.236 24.9649C379.873 24.9649 379.967 25.8062 379.967 31.5394C379.967 36.3892 380.016 37.3299 380.28 37.554C380.53 37.7659 380.657 37.7659 380.906 37.554C381.171 37.3297 381.22 36.3834 381.22 31.4875C381.22 26.7696 381.276 25.6092 381.52 25.2723C381.761 24.941 381.897 24.9053 382.199 25.0944C382.534 25.3037 382.589 25.7622 382.681 29.1257C382.77 32.3604 382.837 32.9538 383.133 33.1446C383.385 33.3067 383.572 33.2912 383.812 33.088C384.089 32.8531 384.142 32.2426 384.142 29.3303C384.142 27.418 384.199 25.7014 384.269 25.5158C384.496 24.9113 385.16 25.1198 385.346 25.8542C385.684 27.1878 386.667 27.1596 386.931 25.8085C387.087 25.0122 387.647 24.7496 388.035 25.2911C388.245 25.5853 388.318 26.5709 388.318 29.1404C388.318 31.9501 388.376 32.6436 388.631 32.8597C388.881 33.0716 389.007 33.0716 389.257 32.8597C389.512 32.644 389.57 31.9559 389.57 29.1922C389.57 25.8058 389.716 24.9649 390.301 24.9649C390.812 24.9649 391.032 25.7255 391.032 27.4938C391.032 29.4581 391.141 29.8725 391.658 29.8725C392.178 29.8725 392.284 29.4583 392.284 27.4419C392.284 25.5723 392.576 24.788 393.183 25.0259C393.366 25.0976 393.618 25.5452 393.743 26.0208C394.086 27.3216 394.957 27.1773 395.287 25.765C395.376 25.3835 395.561 25.1782 395.815 25.1782C396.334 25.1782 396.46 25.5804 396.46 27.2369C396.46 28.7083 396.704 29.4457 397.191 29.4457C397.677 29.4457 397.921 28.7083 397.921 27.2369C397.921 26.4758 397.978 25.7014 398.048 25.5158C398.212 25.0792 398.883 25.0792 399.047 25.5158C399.117 25.7014 399.174 27.3739 399.174 29.2324C399.174 31.0908 399.231 32.7633 399.301 32.9489C399.37 33.1345 399.642 33.2865 399.905 33.2865C400.167 33.2865 400.439 33.1345 400.509 32.9489C400.578 32.7633 400.635 31.0768 400.635 29.2008C400.635 25.8058 400.78 24.9649 401.366 24.9649C402.021 24.9649 402.097 25.7994 402.097 33.0415C402.097 37.0299 402.154 40.4448 402.223 40.6304C402.387 41.067 403.059 41.067 403.223 40.6304C403.292 40.4448 403.349 37.0299 403.349 33.0415C403.349 25.7994 403.425 24.9649 404.08 24.9649C404.745 24.9649 404.811 25.7917 404.811 34.2174C404.811 41.5938 404.852 42.6863 405.139 42.9799C405.319 43.1642 405.5 43.3151 405.541 43.3151C405.582 43.3151 405.764 43.1642 405.944 42.9799C406.231 42.6863 406.272 41.5968 406.272 34.2488C406.272 29.6314 406.329 25.7014 406.399 25.5158C406.503 25.2388 407.195 25.0344 407.361 25.2316C407.385 25.2608 407.456 28.3471 407.517 32.0899C407.62 38.3543 407.659 38.9136 408.007 39.1312C408.309 39.3205 408.444 39.2851 408.685 38.9535C408.931 38.6147 408.986 37.386 408.986 32.1963C408.986 28.7077 409.043 25.7014 409.113 25.5158C409.183 25.3302 409.407 25.1782 409.612 25.1782C409.817 25.1782 410.042 25.3302 410.112 25.5158C410.182 25.7014 410.239 27.7061 410.239 29.9704C410.239 33.4668 410.289 34.1299 410.569 34.3683C410.809 34.5714 410.996 34.587 411.248 34.4248C411.548 34.2317 411.612 33.5897 411.711 29.743C411.774 27.2911 411.845 25.2608 411.867 25.2316C411.89 25.2023 412.087 25.1782 412.304 25.1782C412.86 25.1782 412.953 25.5702 412.953 27.9269C412.953 30.0494 413.106 30.5126 413.807 30.5126C414.318 30.5126 414.414 30.0824 414.414 27.8138C414.414 25.7471 414.615 24.9649 415.145 24.9649C415.743 24.9649 415.876 25.8075 415.876 29.619C415.876 32.7473 415.932 33.4958 416.186 33.7109C416.357 33.8558 416.639 33.9187 416.812 33.8504C417.079 33.7461 417.128 33.1038 417.128 29.7585C417.128 27.4313 417.217 25.6197 417.344 25.3775C417.59 24.9079 418.066 24.8364 418.316 25.2316C418.409 25.3784 418.532 28.5124 418.59 32.1966C418.686 38.3629 418.724 38.9136 419.072 39.1312C419.374 39.3205 419.509 39.2851 419.75 38.9535C419.996 38.6147 420.051 37.386 420.051 32.1963C420.051 28.7077 420.108 25.7014 420.178 25.5158C420.37 25.0035 421.069 25.1014 421.197 25.6583C421.257 25.9225 421.329 27.5685 421.357 29.3162C421.4 32.0133 421.461 32.5277 421.756 32.7178C422.008 32.88 422.195 32.8646 422.434 32.6613C422.71 32.4276 422.765 31.8345 422.765 29.1169C422.765 27.322 422.822 25.7014 422.892 25.5158C423.119 24.9113 423.782 25.1198 423.968 25.8542C424.186 26.7139 424.694 27.0721 425.148 26.6868C425.33 26.5325 425.479 26.1947 425.479 25.9361C425.479 25.6775 425.714 25.2405 426.001 24.9649C426.632 24.3591 426.663 23.8803 426.104 23.3637C425.874 23.151 425.589 22.6079 425.47 22.1571C425.139 20.8992 424.262 21.0714 423.938 22.4577C423.765 23.197 423.033 23.2702 422.872 22.5644C422.811 22.3002 422.739 20.6543 422.711 18.9065C422.668 16.2094 422.608 15.695 422.313 15.5049C422.061 15.3427 421.874 15.3581 421.634 15.5614C421.359 15.7951 421.304 16.3883 421.304 19.1058C421.304 20.9007 421.247 22.5213 421.177 22.7069C421.013 23.1435 420.342 23.1435 420.178 22.7069C420.108 22.5213 420.051 19.5151 420.051 16.0264C420.051 10.8367 419.996 9.60806 419.75 9.26922C419.509 8.93763 419.374 8.90221 419.072 9.09148C418.724 9.30912 418.686 9.85984 418.59 16.0262C418.532 19.7103 418.409 22.8445 418.316 22.9911C418.066 23.3863 417.59 23.3148 417.344 22.8452C417.218 22.6047 417.128 20.835 417.128 18.6037C417.128 15.4609 417.072 14.7276 416.815 14.5095C416.565 14.2976 416.439 14.2976 416.189 14.5095C415.932 14.7276 415.876 15.4609 415.876 18.6037C415.876 22.4152 415.743 23.2579 415.145 23.2579C414.615 23.2579 414.414 22.4756 414.414 20.4089C414.414 18.1403 414.318 17.7101 413.807 17.7101C413.106 17.7101 412.953 18.1734 412.953 20.2958C412.953 21.4363 412.896 22.5213 412.826 22.7069C412.662 23.1435 411.991 23.1435 411.827 22.7069C411.757 22.5213 411.7 20.5166 411.7 18.2523C411.7 14.7559 411.65 14.0928 411.369 13.8544C411.13 13.6513 410.943 13.6357 410.691 13.7979C410.391 13.991 410.327 14.633 410.228 18.4798C410.165 20.9316 410.094 22.9619 410.072 22.9911C409.916 23.1904 409.216 22.983 409.113 22.7069C409.043 22.5213 408.986 19.5151 408.986 16.0264C408.986 10.8367 408.931 9.60806 408.685 9.26922C408.444 8.93763 408.309 8.90221 408.007 9.09148C407.659 9.30912 407.62 9.86837 407.517 16.1328C407.456 19.8757 407.385 22.9619 407.361 22.9911C407.195 23.1883 406.503 22.9839 406.399 22.7069C406.329 22.5213 406.272 18.6263 406.272 14.0512C406.272 5.7353 406.206 4.90762 405.541 4.90762C404.877 4.90762 404.811 5.73509 404.811 14.0827C404.811 22.4304 404.745 23.2579 404.08 23.2579C403.425 23.2579 403.349 22.4234 403.349 15.1812C403.349 11.1928 403.292 7.77794 403.223 7.5923C403.153 7.40667 402.928 7.25474 402.723 7.25474C402.518 7.25474 402.293 7.40667 402.223 7.5923C402.154 7.77794 402.097 11.1928 402.097 15.1812C402.097 22.4234 402.021 23.2579 401.366 23.2579C400.777 23.2579 400.635 22.4163 400.635 18.9129C400.635 15.998 400.579 15.3359 400.307 15.0581C399.904 14.6463 399.905 14.6463 399.502 15.0581C399.23 15.3357 399.174 15.995 399.174 18.8815C399.174 20.7998 399.117 22.5213 399.047 22.7069C398.855 23.2197 398.155 23.1215 398.03 22.5644C397.971 22.3002 397.899 21.4222 397.87 20.6129C397.83 19.5131 397.729 19.0853 397.469 18.9182C396.79 18.4821 396.46 19.1009 396.46 20.8128C396.46 22.6435 396.344 23.0445 395.815 23.0445C395.561 23.0445 395.376 22.8392 395.287 22.4577C394.957 21.0454 394.086 20.9011 393.743 22.2019C393.618 22.6775 393.366 23.1251 393.183 23.1968C392.555 23.4428 392.284 22.6529 392.284 20.5759C392.284 19.0941 392.208 18.551 391.971 18.3502C391.721 18.1384 391.595 18.1384 391.345 18.3502C391.109 18.5502 391.032 19.0883 391.032 20.5241C391.032 22.4833 390.825 23.2579 390.301 23.2579C389.716 23.2579 389.57 22.4169 389.57 19.0305C389.57 16.2668 389.512 15.5787 389.257 15.363C389.007 15.1511 388.881 15.1511 388.631 15.363C388.376 15.5791 388.318 16.2726 388.318 19.0823C388.318 21.6518 388.245 22.6374 388.035 22.9316C387.621 23.5107 387.123 23.2017 386.859 22.2019C386.517 20.9011 385.646 21.0454 385.316 22.4577C385.223 22.8531 385.043 23.0445 384.765 23.0445C384.537 23.0445 384.333 23.0204 384.311 22.9911C384.289 22.9619 384.219 21.2197 384.155 19.1197C384.055 15.8723 383.986 15.2683 383.69 15.0779C383.438 14.916 383.251 14.9315 383.012 15.1347C382.734 15.3698 382.681 15.9828 382.681 18.9238C382.681 22.4165 382.539 23.2579 381.95 23.2579C381.313 23.2579 381.22 22.4165 381.22 16.6833C381.22 11.8336 381.171 10.8928 380.906 10.6687C380.657 10.4569 380.53 10.4569 380.28 10.6687C380.016 10.8928 379.967 11.8336 379.967 16.6833C379.967 22.4165 379.873 23.2579 379.236 23.2579C378.686 23.2579 378.506 22.4487 378.506 19.9821C378.506 17.2646 378.424 16.8566 377.879 16.8566C377.335 16.8566 377.253 17.2646 377.253 19.9821C377.253 22.4487 377.072 23.2579 376.522 23.2579C375.91 23.2579 375.792 22.4142 375.792 18.0618C375.792 15.6577 375.735 13.5391 375.665 13.3534C375.595 13.1678 375.323 13.0159 375.061 13.0159C374.798 13.0159 374.527 13.1678 374.457 13.3534C374.387 13.5391 374.33 15.6436 374.33 18.0302C374.33 20.4168 374.273 22.5213 374.204 22.7069C373.991 23.2736 373.31 23.1115 373.157 22.4577C372.829 21.0518 371.956 20.9007 371.616 22.191C371.45 22.8232 371.284 23.0445 370.977 23.0445C370.288 23.0445 370.11 22.1261 370.269 19.3973C370.423 16.7536 370.263 16.0031 369.544 16.0031C368.972 16.0031 368.902 16.3893 368.902 19.5554C368.902 22.4233 368.737 23.2579 368.172 23.2579C367.549 23.2579 367.441 22.4144 367.441 17.5368C367.441 13.4456 367.389 12.5976 367.128 12.3757C366.878 12.1639 366.751 12.1639 366.501 12.3757C366.24 12.5976 366.188 13.4456 366.188 17.5368C366.188 22.4144 366.08 23.2579 365.457 23.2579C364.938 23.2579 364.727 22.4878 364.727 20.5907C364.727 18.6936 364.516 17.9235 363.996 17.9235C363.478 17.9235 363.265 18.6914 363.265 20.5591C363.265 22.6442 363.162 23.0445 362.623 23.0445C362.361 23.0445 362.177 22.8232 362.062 22.3685C361.725 21.0375 360.741 21.0627 360.477 22.4091C360.391 22.849 360.23 23.0445 359.953 23.0445C359.39 23.0445 359.299 22.6574 359.299 20.2706C359.299 17.8249 359.212 17.4967 358.568 17.4967C357.922 17.4967 357.838 17.8213 357.834 20.3414C357.831 22.6651 357.7 23.1305 357.082 23.0099C356.738 22.9429 356.673 22.6574 356.558 20.6952C356.486 19.4641 356.416 17.4846 356.402 16.2959C356.382 14.6595 356.3 14.0706 356.063 13.8694C355.813 13.6575 355.686 13.6575 355.436 13.8694C355.178 14.0887 355.123 14.8562 355.123 18.2837C355.123 22.4146 355 23.2579 354.393 23.2579C353.745 23.2579 353.662 22.4197 353.662 15.8964C353.662 9.37313 353.579 8.53499 352.931 8.53499C352.284 8.53499 352.201 9.37334 352.201 15.8648C352.201 19.4425 352.144 22.5213 352.074 22.7069C351.91 23.1435 351.239 23.1435 351.075 22.7069C351.005 22.5213 350.948 18.4004 350.948 13.5493C350.948 8.69822 350.891 4.57732 350.821 4.39168C350.751 4.20604 350.48 4.05412 350.217 4.05412C349.955 4.05412 349.683 4.20604 349.613 4.39168C349.544 4.57732 349.487 8.69822 349.487 13.5493C349.487 18.4004 349.43 22.5213 349.36 22.7069C349.29 22.8926 349.065 23.0445 348.86 23.0445C348.655 23.0445 348.43 22.8926 348.361 22.7069C348.291 22.5213 348.234 17.4871 348.234 11.5201C348.234 1.9415 348.196 0.631379 347.906 0.335215C347.725 0.150859 347.544 0 347.503 0C347.462 0 347.281 0.150859 347.1 0.335215Z" fill="#D0D5DD"/>
<path fill-rule="evenodd" clip-rule="evenodd" d="M491.101 0.335215C490.811 0.631379 490.773 1.9415 490.773 11.5201C490.773 17.4871 490.716 22.5213 490.646 22.7069C490.482 23.1435 489.811 23.1435 489.647 22.7069C489.577 22.5213 489.52 18.7478 489.52 14.3213C489.52 8.34616 489.455 6.20729 489.269 6.01717C488.916 5.65572 488.335 5.69924 488.185 6.09868C488.116 6.28432 488.059 10.0352 488.059 14.4344C488.059 22.428 487.99 23.2579 487.328 23.2579C486.686 23.2579 486.597 22.4176 486.597 16.3548C486.597 13.0118 486.54 10.1251 486.47 9.93943C486.319 9.537 485.647 9.49219 485.409 9.86858C485.316 10.0154 485.193 13.0146 485.136 16.5338C485.037 22.581 485.01 22.9365 484.639 23.0095C484.423 23.0517 484.166 22.957 484.068 22.7987C483.97 22.6406 483.888 20.6705 483.886 18.4211C483.885 16.1715 483.826 14.1792 483.756 13.9935C483.687 13.8079 483.471 13.656 483.276 13.656C482.495 13.656 482.422 14.049 482.422 18.2687C482.422 20.5241 482.365 22.5213 482.295 22.7069C482.103 23.2194 481.403 23.1215 481.277 22.5644C481.218 22.3002 481.145 21.1824 481.117 20.0799C481.075 18.4802 480.995 18.0302 480.717 17.8518C480.465 17.6898 480.278 17.7054 480.038 17.9085C479.778 18.1296 479.708 18.6325 479.708 20.2794C479.708 21.4288 479.651 22.5213 479.581 22.7069C479.368 23.2736 478.687 23.1115 478.535 22.4577C478.205 21.0454 477.334 20.9011 476.991 22.2019C476.866 22.6775 476.614 23.1251 476.431 23.1968C475.837 23.4296 475.532 22.6493 475.532 20.896C475.532 19.6985 475.448 19.1843 475.219 18.9904C474.601 18.4661 474.28 19.1 474.28 20.8442C474.28 22.5053 474.052 23.2579 473.549 23.2579C472.971 23.2579 472.818 22.4182 472.818 19.2438C472.818 16.6699 472.758 16.0042 472.505 15.7897C472.255 15.5779 472.129 15.5779 471.879 15.7897C471.626 16.0042 471.566 16.6699 471.566 19.2438C471.566 22.4182 471.413 23.2579 470.835 23.2579C470.214 23.2579 470.104 22.4144 470.104 17.6435C470.104 13.5346 470.057 12.8149 469.774 12.5742C469.534 12.3708 469.347 12.3555 469.095 12.5176C468.792 12.7129 468.733 13.3944 468.633 17.8396C468.571 20.6436 468.5 22.9619 468.477 22.9911C468.453 23.0204 468.246 23.0445 468.017 23.0445C467.787 23.0445 467.579 23.0204 467.554 22.9911C467.53 22.9619 467.459 19.9237 467.398 16.2395C467.299 10.2983 467.247 9.51587 466.938 9.31722C466.686 9.15463 466.499 9.17021 466.26 9.37356C465.971 9.6183 465.929 10.4786 465.929 16.0951C465.929 21.1783 465.869 22.6197 465.646 22.9316C465.259 23.4732 464.698 23.2105 464.542 22.4142C464.283 21.0859 463.4 21.0859 463.14 22.4142C462.984 23.2105 462.424 23.4732 462.036 22.9316C461.842 22.6602 461.753 21.8549 461.753 20.3626C461.753 18.691 461.681 18.1277 461.44 17.9235C461.19 17.7116 461.064 17.7116 460.814 17.9235C460.574 18.127 460.501 18.6852 460.501 20.3107C460.501 22.4692 460.305 23.2579 459.77 23.2579C459.178 23.2579 459.039 22.4159 459.039 18.8171C459.039 15.8776 458.981 15.1526 458.729 14.9386C458.558 14.7937 458.276 14.7308 458.103 14.799C457.838 14.903 457.787 15.5113 457.787 18.5709C457.787 22.3527 457.657 23.0445 456.948 23.0445C456.463 23.0445 456.347 22.6241 456.274 20.6129C456.234 19.5131 456.133 19.0853 455.873 18.9182C455.194 18.4821 454.864 19.1009 454.864 20.8128C454.864 21.6689 454.807 22.5213 454.737 22.7069C454.499 23.3424 453.897 23.0797 453.555 22.191C453.099 21.0042 452.461 21.0093 452.147 22.2019C451.852 23.3238 451.445 23.4648 450.676 22.7123L450.062 22.1112L449.449 22.7123C448.718 23.4279 448.228 23.3236 448.05 22.4142C447.79 21.0859 446.907 21.0859 446.647 22.4142C446.578 22.7665 446.365 23.116 446.174 23.1909C445.606 23.4136 445.261 22.667 445.261 21.2161C445.261 20.2721 445.166 19.8163 444.93 19.6155C444.339 19.1145 443.91 19.6371 443.85 20.9327C443.77 22.6182 443.637 23.0445 443.191 23.0445C442.63 23.0445 442.547 22.6529 442.547 20.0257C442.547 17.6593 442.362 16.8566 441.816 16.8566C441.27 16.8566 441.085 17.6593 441.085 20.0257C441.085 21.3149 441.028 22.5213 440.958 22.7069C440.795 23.1435 440.123 23.1435 439.959 22.7069C439.89 22.5213 439.833 20.5232 439.833 18.2668C439.833 15.028 439.769 14.0772 439.532 13.7501C439.291 13.4187 439.155 13.3831 438.853 13.5721C438.514 13.7842 438.465 14.2626 438.371 18.2664C438.314 20.7183 438.191 22.8445 438.098 22.9911C437.848 23.3863 437.372 23.3148 437.126 22.8452C436.993 22.5923 436.91 20.3709 436.91 17.1101C436.91 12.6395 436.86 11.7454 436.597 11.5222C436.347 11.3104 436.22 11.3104 435.97 11.5222C435.707 11.7454 435.657 12.6395 435.657 17.1101C435.657 22.4152 435.557 23.2579 434.926 23.2579C434.372 23.2579 434.196 22.4421 434.196 19.8754C434.196 17.0348 434.118 16.6432 433.554 16.6432C432.911 16.6432 432.734 17.3499 432.734 19.919C432.734 22.6546 432.654 23.0445 432.09 23.0445C431.652 23.0445 431.515 22.6252 431.432 21.0392C431.325 18.9976 430.02 19.1826 430.02 21.2395C430.02 22.6231 429.876 23.0445 429.403 23.0445C429.173 23.0445 428.92 22.7317 428.712 22.191C428.234 20.9487 427.319 21.0639 427.302 22.3685C427.299 22.5642 427.113 22.9645 426.889 23.2579C426.37 23.9351 426.37 24.2332 426.889 24.9066C427.118 25.2051 427.306 25.6645 427.306 25.9276C427.306 26.4948 427.806 26.9804 428.222 26.8174C428.384 26.7538 428.628 26.359 428.763 25.94C428.93 25.4215 429.136 25.1782 429.406 25.1782C429.851 25.1782 429.987 25.5905 430.07 27.1835C430.177 29.2251 431.482 29.0401 431.482 26.9832C431.482 25.5932 431.626 25.1782 432.108 25.1782C432.657 25.1782 432.734 25.5843 432.734 28.4604C432.734 31.1322 432.857 31.5795 433.589 31.5795C434.116 31.5795 434.196 31.1521 434.196 28.3473C434.196 25.7806 434.372 24.9649 434.926 24.9649C435.557 24.9649 435.657 25.8075 435.657 31.1126C435.657 35.5832 435.707 36.4773 435.97 36.7005C436.22 36.9124 436.347 36.9124 436.597 36.7005C436.86 36.4773 436.91 35.5832 436.91 31.1126C436.91 25.8075 437.01 24.9649 437.64 24.9649C438.248 24.9649 438.371 25.8083 438.371 29.9476C438.371 32.2343 438.428 34.2569 438.498 34.4425C438.674 34.9111 439.356 34.8652 439.616 34.3674C439.744 34.1244 439.833 32.2881 439.833 29.9041C439.833 27.676 439.89 25.7014 439.959 25.5158C440.123 25.0792 440.795 25.0792 440.958 25.5158C441.028 25.7014 441.085 26.8938 441.085 28.1655C441.085 30.8316 441.164 31.1527 441.816 31.1527C442.468 31.1527 442.547 30.8316 442.547 28.1655C442.547 25.5877 442.632 25.1782 443.173 25.1782C443.654 25.1782 443.799 25.5932 443.799 26.9687C443.799 28.3185 444.208 29.0322 444.779 28.6769C445.067 28.4975 445.181 28.0827 445.261 26.9266C445.318 26.0934 445.476 25.2984 445.612 25.1599C445.991 24.7732 446.508 25.0969 446.647 25.8085C446.898 27.0907 447.866 27.1396 448.014 25.8777C448.116 25.0152 448.689 24.7747 449.284 25.3453C449.899 25.9361 450.222 25.9402 450.821 25.3645C451.449 24.7615 451.87 24.9698 452.147 26.0208C452.461 27.2134 453.099 27.2185 453.555 26.0317C453.772 25.4693 454.014 25.1782 454.266 25.1782C454.723 25.1782 454.844 25.6295 454.915 27.6098C454.974 29.2298 455.347 29.7963 455.995 29.2473C456.247 29.0331 456.325 28.5536 456.325 27.2219C456.325 25.1228 456.686 24.5108 457.459 25.3001C457.732 25.5792 457.787 26.2556 457.787 29.3282C457.787 32.4607 457.838 33.0641 458.123 33.3057C458.408 33.5476 458.502 33.5293 458.749 33.1843C458.969 32.8764 459.039 31.9324 459.039 29.2842C459.039 25.8062 459.182 24.9649 459.77 24.9649C460.305 24.9649 460.501 25.7535 460.501 27.912C460.501 29.5375 460.574 30.0957 460.814 30.2992C461.064 30.5111 461.19 30.5111 461.44 30.2992C461.68 30.0957 461.753 29.5375 461.753 27.912C461.753 26.745 461.851 25.6046 461.97 25.3775C462.324 24.7009 462.787 24.9043 463.215 25.925C463.753 27.2076 464.224 27.1479 464.549 25.7558C464.727 24.9977 465.271 24.7668 465.646 25.2911C465.869 25.6031 465.929 27.0444 465.929 32.1276C465.929 37.7441 465.971 38.6044 466.26 38.8492C466.499 39.0525 466.686 39.0681 466.938 38.9055C467.247 38.7068 467.299 37.9244 467.398 31.9832C467.459 28.299 467.53 25.2608 467.554 25.2316C467.72 25.0342 468.412 25.2388 468.516 25.5158C468.586 25.7014 468.643 27.9941 468.643 30.6105C468.643 34.6909 468.69 35.4078 468.974 35.6485C469.213 35.8519 469.4 35.8675 469.652 35.7049C469.956 35.5094 470.013 34.8364 470.104 30.4059C470.196 25.9754 470.253 25.3024 470.556 25.107C470.808 24.9448 470.994 24.9593 471.23 25.159C471.5 25.3882 471.554 26.0006 471.547 28.7527C471.54 31.4391 471.599 32.1317 471.855 32.3933C472.115 32.6589 472.229 32.6677 472.495 32.4419C472.762 32.2151 472.818 31.5818 472.818 28.8056C472.818 25.9987 472.873 25.3976 473.149 25.1633C473.388 24.9602 473.576 24.9446 473.827 25.1065C474.099 25.2811 474.188 25.7294 474.235 27.1549C474.3 29.1284 474.599 29.7585 475.219 29.2324C475.451 29.0354 475.532 28.5107 475.532 27.2053C475.532 25.8585 475.61 25.3779 475.863 25.1633C476.309 24.7854 476.869 25.1522 476.954 25.8777C477.097 27.098 478.107 27.1752 478.408 25.9888C478.597 25.2401 479.215 24.9273 479.523 25.424C479.621 25.5821 479.703 26.6061 479.705 27.6995C479.708 29.7338 479.911 30.5126 480.438 30.5126C480.963 30.5126 481.169 29.7374 481.169 27.7703C481.169 26.7158 481.226 25.7014 481.296 25.5158C481.46 25.0792 482.131 25.0792 482.295 25.5158C482.365 25.7014 482.422 27.6986 482.422 29.954C482.422 34.1737 482.495 34.5667 483.276 34.5667C483.471 34.5667 483.687 34.4148 483.756 34.2292C483.826 34.0435 483.883 32.0455 483.883 29.789C483.883 25.4998 484.029 24.7306 484.784 25.0267C485.079 25.1424 485.126 25.9289 485.179 31.6657C485.243 38.505 485.314 39.0139 486.133 38.4862C486.458 38.2767 486.498 37.6438 486.548 31.8944C486.585 27.6363 486.68 25.44 486.835 25.2495C487.15 24.8607 487.777 24.8908 487.932 25.3024C488.002 25.4881 488.059 29.2729 488.059 33.7132C488.059 38.1536 488.116 41.9384 488.185 42.124C488.335 42.5235 488.916 42.567 489.269 42.2055C489.455 42.0154 489.52 39.8766 489.52 33.9014C489.52 29.475 489.577 25.7014 489.647 25.5158C489.716 25.3302 489.941 25.1782 490.146 25.1782C490.351 25.1782 490.576 25.3302 490.646 25.5158C490.716 25.7014 490.773 30.6865 490.773 36.5938C490.773 42.5011 490.83 47.4861 490.899 47.6718C491.064 48.1094 491.943 48.1094 492.107 47.6718C492.177 47.4861 492.234 42.5011 492.234 36.5938C492.234 30.6865 492.291 25.7014 492.361 25.5158C492.531 25.0626 493.198 25.0861 493.375 25.5516C493.453 25.7569 493.506 29.8959 493.494 34.7494C493.478 41.1457 493.539 43.6556 493.714 43.8711C494.038 44.271 494.665 44.2482 494.821 43.831C494.891 43.6454 494.949 39.4927 494.951 34.6026C494.953 29.7127 495.035 25.5821 495.133 25.424C495.231 25.2657 495.488 25.171 495.704 25.2134C496.076 25.2864 496.102 25.6583 496.208 32.3291C496.269 36.2003 496.34 39.3918 496.364 39.421C496.538 39.6271 497.433 39.4101 497.535 39.1368C497.605 38.9511 497.662 35.8724 497.662 32.2947C497.662 25.8032 497.745 24.9649 498.393 24.9649C499 24.9649 499.123 25.8081 499.123 29.9391C499.123 33.3665 499.178 34.134 499.437 34.3533C500.162 34.9689 500.304 34.329 500.44 29.8356C500.543 26.4459 500.637 25.4601 500.881 25.2113C501.135 24.9512 501.248 24.9437 501.514 25.1693C501.77 25.3863 501.837 25.927 501.837 27.7475C501.837 30.3306 501.923 30.726 502.479 30.726C503.111 30.726 503.299 30.028 503.299 27.6721C503.299 26.027 503.375 25.3792 503.59 25.197C503.945 24.8959 504.551 25.4157 504.551 26.0208C504.551 26.2327 504.7 26.5325 504.882 26.6868C505.336 27.0721 505.844 26.7139 506.062 25.8542C506.177 25.3995 506.361 25.1782 506.623 25.1782C507.164 25.1782 507.265 25.5779 507.265 27.7135C507.265 29.6171 507.434 30.0858 508.12 30.0858C508.628 30.0858 508.727 29.6555 508.727 27.4438C508.727 26.1986 508.819 25.3831 508.977 25.2209C509.331 24.8594 509.912 24.903 510.061 25.3024C510.131 25.4881 510.188 27.8768 510.188 30.6105C510.188 34.7688 510.239 35.6248 510.501 35.847C510.751 36.0588 510.878 36.0588 511.128 35.847C511.39 35.6244 511.441 34.7579 511.441 30.5126C511.441 26.1482 511.487 25.4048 511.772 25.1633C512.011 24.9602 512.198 24.9446 512.45 25.1068C512.743 25.2954 512.806 25.7972 512.849 28.295C512.909 31.8261 512.978 32.2196 513.538 32.2196C514.167 32.2196 514.301 31.5618 514.341 28.276C514.361 26.633 514.47 25.1972 514.585 25.0803C514.904 24.7536 515.496 25.2378 515.616 25.925C515.752 26.7002 516.298 27.0677 516.747 26.6868C516.929 26.5325 517.078 26.2338 517.078 26.023C517.078 25.0504 517.909 24.5183 518.203 25.3024C518.273 25.4881 518.33 27.6773 518.33 30.1674C518.33 33.4043 518.402 34.7677 518.581 34.9508C518.934 35.3122 519.515 35.2687 519.665 34.8693C519.735 34.6837 519.792 32.5311 519.792 30.0858C519.792 27.6406 519.849 25.4881 519.918 25.3024C519.988 25.1168 520.204 24.9649 520.398 24.9649C521.13 24.9649 521.253 25.4121 521.253 28.084C521.253 30.9601 521.33 31.3661 521.879 31.3661C522.424 31.3661 522.506 30.9581 522.506 28.2406C522.506 25.774 522.686 24.9649 523.236 24.9649C523.874 24.9649 523.967 25.8062 523.967 31.5394C523.967 36.3892 524.016 37.3299 524.28 37.554C524.53 37.7659 524.657 37.7659 524.906 37.554C525.171 37.3297 525.22 36.3834 525.22 31.4875C525.22 26.7696 525.276 25.6092 525.521 25.2723C525.761 24.941 525.897 24.9053 526.199 25.0944C526.534 25.3037 526.589 25.7622 526.681 29.1257C526.77 32.3604 526.837 32.9538 527.133 33.1446C527.385 33.3067 527.572 33.2912 527.812 33.088C528.089 32.8531 528.142 32.2426 528.142 29.3303C528.142 27.418 528.199 25.7014 528.269 25.5158C528.496 24.9113 529.16 25.1198 529.346 25.8542C529.684 27.1878 530.667 27.1596 530.931 25.8085C531.087 25.0122 531.648 24.7496 532.035 25.2911C532.245 25.5853 532.318 26.5709 532.318 29.1404C532.318 31.9501 532.376 32.6436 532.631 32.8597C532.881 33.0716 533.007 33.0716 533.257 32.8597C533.512 32.644 533.57 31.9559 533.57 29.1922C533.57 25.8058 533.716 24.9649 534.301 24.9649C534.812 24.9649 535.032 25.7255 535.032 27.4938C535.032 29.4581 535.141 29.8725 535.658 29.8725C536.178 29.8725 536.284 29.4583 536.284 27.4419C536.284 25.5723 536.576 24.788 537.183 25.0259C537.366 25.0976 537.618 25.5452 537.743 26.0208C538.086 27.3216 538.957 27.1773 539.287 25.765C539.376 25.3835 539.561 25.1782 539.815 25.1782C540.334 25.1782 540.46 25.5804 540.46 27.2369C540.46 28.7083 540.704 29.4457 541.191 29.4457C541.677 29.4457 541.921 28.7083 541.921 27.2369C541.921 26.4758 541.978 25.7014 542.048 25.5158C542.212 25.0792 542.883 25.0792 543.047 25.5158C543.117 25.7014 543.174 27.3739 543.174 29.2324C543.174 31.0908 543.231 32.7633 543.301 32.9489C543.37 33.1345 543.642 33.2865 543.905 33.2865C544.167 33.2865 544.439 33.1345 544.509 32.9489C544.578 32.7633 544.635 31.0768 544.635 29.2008C544.635 25.8058 544.78 24.9649 545.366 24.9649C546.021 24.9649 546.097 25.7994 546.097 33.0415C546.097 37.0299 546.154 40.4448 546.223 40.6304C546.387 41.067 547.059 41.067 547.223 40.6304C547.292 40.4448 547.349 37.0299 547.349 33.0415C547.349 25.7994 547.425 24.9649 548.08 24.9649C548.745 24.9649 548.811 25.7917 548.811 34.2174C548.811 41.5938 548.852 42.6863 549.139 42.9799C549.319 43.1642 549.5 43.3151 549.541 43.3151C549.582 43.3151 549.764 43.1642 549.944 42.9799C550.231 42.6863 550.272 41.5968 550.272 34.2488C550.272 29.6314 550.329 25.7014 550.399 25.5158C550.503 25.2388 551.195 25.0344 551.361 25.2316C551.385 25.2608 551.456 28.3471 551.517 32.0899C551.62 38.3543 551.659 38.9136 552.007 39.1312C552.309 39.3205 552.444 39.2851 552.685 38.9535C552.931 38.6147 552.986 37.386 552.986 32.1963C552.986 28.7077 553.043 25.7014 553.113 25.5158C553.183 25.3302 553.407 25.1782 553.612 25.1782C553.817 25.1782 554.042 25.3302 554.112 25.5158C554.182 25.7014 554.239 27.7061 554.239 29.9704C554.239 33.4668 554.289 34.1299 554.569 34.3683C554.809 34.5714 554.996 34.587 555.248 34.4248C555.548 34.2317 555.612 33.5897 555.711 29.743C555.774 27.2911 555.845 25.2608 555.867 25.2316C555.89 25.2023 556.087 25.1782 556.304 25.1782C556.86 25.1782 556.953 25.5702 556.953 27.9269C556.953 30.0494 557.106 30.5126 557.807 30.5126C558.318 30.5126 558.414 30.0824 558.414 27.8138C558.414 25.7471 558.615 24.9649 559.145 24.9649C559.743 24.9649 559.876 25.8075 559.876 29.619C559.876 32.7473 559.932 33.4958 560.186 33.7109C560.357 33.8558 560.639 33.9187 560.812 33.8504C561.079 33.7461 561.128 33.1038 561.128 29.7585C561.128 27.4313 561.218 25.6197 561.344 25.3775C561.59 24.9079 562.066 24.8364 562.316 25.2316C562.409 25.3784 562.532 28.5124 562.59 32.1966C562.686 38.3629 562.724 38.9136 563.072 39.1312C563.374 39.3205 563.509 39.2851 563.75 38.9535C563.996 38.6147 564.051 37.386 564.051 32.1963C564.051 28.7077 564.108 25.7014 564.178 25.5158C564.37 25.0035 565.069 25.1014 565.197 25.6583C565.257 25.9225 565.329 27.5685 565.357 29.3162C565.4 32.0133 565.461 32.5277 565.756 32.7178C566.008 32.88 566.195 32.8646 566.434 32.6613C566.71 32.4276 566.765 31.8345 566.765 29.1169C566.765 27.322 566.822 25.7014 566.892 25.5158C567.119 24.9113 567.782 25.1198 567.968 25.8542C568.186 26.7139 568.694 27.0721 569.148 26.6868C569.33 26.5325 569.479 26.1947 569.479 25.9361C569.479 25.6775 569.714 25.2405 570.001 24.9649C570.632 24.3591 570.663 23.8803 570.104 23.3637C569.874 23.151 569.589 22.6079 569.47 22.1571C569.139 20.8992 568.262 21.0714 567.938 22.4577C567.765 23.197 567.033 23.2702 566.872 22.5644C566.811 22.3002 566.739 20.6543 566.711 18.9065C566.668 16.2094 566.608 15.695 566.313 15.5049C566.061 15.3427 565.874 15.3581 565.634 15.5614C565.359 15.7951 565.304 16.3883 565.304 19.1058C565.304 20.9007 565.247 22.5213 565.177 22.7069C565.013 23.1435 564.342 23.1435 564.178 22.7069C564.108 22.5213 564.051 19.5151 564.051 16.0264C564.051 10.8367 563.996 9.60806 563.75 9.26922C563.509 8.93763 563.374 8.90221 563.072 9.09148C562.724 9.30912 562.686 9.85984 562.59 16.0262C562.532 19.7103 562.409 22.8445 562.316 22.9911C562.066 23.3863 561.59 23.3148 561.344 22.8452C561.218 22.6047 561.128 20.835 561.128 18.6037C561.128 15.4609 561.072 14.7276 560.815 14.5095C560.565 14.2976 560.439 14.2976 560.189 14.5095C559.932 14.7276 559.876 15.4609 559.876 18.6037C559.876 22.4152 559.743 23.2579 559.145 23.2579C558.615 23.2579 558.414 22.4756 558.414 20.4089C558.414 18.1403 558.318 17.7101 557.807 17.7101C557.106 17.7101 556.953 18.1734 556.953 20.2958C556.953 21.4363 556.896 22.5213 556.826 22.7069C556.662 23.1435 555.991 23.1435 555.827 22.7069C555.757 22.5213 555.7 20.5166 555.7 18.2523C555.7 14.7559 555.65 14.0928 555.369 13.8544C555.13 13.6513 554.943 13.6357 554.691 13.7979C554.391 13.991 554.327 14.633 554.228 18.4798C554.165 20.9316 554.094 22.9619 554.072 22.9911C553.916 23.1904 553.216 22.983 553.113 22.7069C553.043 22.5213 552.986 19.5151 552.986 16.0264C552.986 10.8367 552.931 9.60806 552.685 9.26922C552.444 8.93763 552.309 8.90221 552.007 9.09148C551.659 9.30912 551.62 9.86837 551.517 16.1328C551.456 19.8757 551.385 22.9619 551.361 22.9911C551.195 23.1883 550.503 22.9839 550.399 22.7069C550.329 22.5213 550.272 18.6263 550.272 14.0512C550.272 5.7353 550.206 4.90762 549.541 4.90762C548.877 4.90762 548.811 5.73509 548.811 14.0827C548.811 22.4304 548.745 23.2579 548.08 23.2579C547.425 23.2579 547.349 22.4234 547.349 15.1812C547.349 11.1928 547.292 7.77794 547.223 7.5923C547.153 7.40667 546.928 7.25474 546.723 7.25474C546.518 7.25474 546.293 7.40667 546.223 7.5923C546.154 7.77794 546.097 11.1928 546.097 15.1812C546.097 22.4234 546.021 23.2579 545.366 23.2579C544.777 23.2579 544.635 22.4163 544.635 18.9129C544.635 15.998 544.579 15.3359 544.307 15.0581C543.904 14.6463 543.905 14.6463 543.502 15.0581C543.23 15.3357 543.174 15.995 543.174 18.8815C543.174 20.7998 543.117 22.5213 543.047 22.7069C542.855 23.2197 542.155 23.1215 542.031 22.5644C541.971 22.3002 541.899 21.4222 541.87 20.6129C541.83 19.5131 541.729 19.0853 541.469 18.9182C540.79 18.4821 540.46 19.1009 540.46 20.8128C540.46 22.6435 540.344 23.0445 539.815 23.0445C539.561 23.0445 539.376 22.8392 539.287 22.4577C538.957 21.0454 538.086 20.9011 537.743 22.2019C537.618 22.6775 537.366 23.1251 537.183 23.1968C536.555 23.4428 536.284 22.6529 536.284 20.5759C536.284 19.0941 536.208 18.551 535.971 18.3502C535.721 18.1384 535.595 18.1384 535.345 18.3502C535.109 18.5502 535.032 19.0883 535.032 20.5241C535.032 22.4833 534.825 23.2579 534.301 23.2579C533.716 23.2579 533.57 22.4169 533.57 19.0305C533.57 16.2668 533.512 15.5787 533.257 15.363C533.007 15.1511 532.881 15.1511 532.631 15.363C532.376 15.5791 532.318 16.2726 532.318 19.0823C532.318 21.6518 532.245 22.6374 532.035 22.9316C531.621 23.5107 531.123 23.2017 530.859 22.2019C530.517 20.9011 529.646 21.0454 529.316 22.4577C529.223 22.8531 529.044 23.0445 528.765 23.0445C528.537 23.0445 528.333 23.0204 528.311 22.9911C528.289 22.9619 528.219 21.2197 528.155 19.1197C528.055 15.8723 527.986 15.2683 527.69 15.0779C527.438 14.916 527.251 14.9315 527.012 15.1347C526.734 15.3698 526.681 15.9828 526.681 18.9238C526.681 22.4165 526.539 23.2579 525.95 23.2579C525.313 23.2579 525.22 22.4165 525.22 16.6833C525.22 11.8336 525.171 10.8928 524.906 10.6687C524.657 10.4569 524.53 10.4569 524.28 10.6687C524.016 10.8928 523.967 11.8336 523.967 16.6833C523.967 22.4165 523.874 23.2579 523.236 23.2579C522.686 23.2579 522.506 22.4487 522.506 19.9821C522.506 17.2646 522.424 16.8566 521.879 16.8566C521.335 16.8566 521.253 17.2646 521.253 19.9821C521.253 22.4487 521.072 23.2579 520.522 23.2579C519.91 23.2579 519.792 22.4142 519.792 18.0618C519.792 15.6577 519.735 13.5391 519.665 13.3534C519.595 13.1678 519.323 13.0159 519.061 13.0159C518.799 13.0159 518.527 13.1678 518.457 13.3534C518.387 13.5391 518.33 15.6436 518.33 18.0302C518.33 20.4168 518.273 22.5213 518.203 22.7069C517.991 23.2736 517.31 23.1115 517.157 22.4577C516.829 21.0518 515.956 20.9007 515.616 22.191C515.45 22.8232 515.284 23.0445 514.977 23.0445C514.288 23.0445 514.11 22.1261 514.269 19.3973C514.423 16.7536 514.263 16.0031 513.544 16.0031C512.972 16.0031 512.902 16.3893 512.902 19.5554C512.902 22.4233 512.737 23.2579 512.172 23.2579C511.549 23.2579 511.441 22.4144 511.441 17.5368C511.441 13.4456 511.389 12.5976 511.128 12.3757C510.878 12.1639 510.751 12.1639 510.501 12.3757C510.24 12.5976 510.188 13.4456 510.188 17.5368C510.188 22.4144 510.08 23.2579 509.457 23.2579C508.938 23.2579 508.727 22.4878 508.727 20.5907C508.727 18.6936 508.516 17.9235 507.996 17.9235C507.478 17.9235 507.265 18.6914 507.265 20.5591C507.265 22.6442 507.162 23.0445 506.623 23.0445C506.361 23.0445 506.177 22.8232 506.062 22.3685C505.725 21.0375 504.741 21.0627 504.478 22.4091C504.391 22.849 504.23 23.0445 503.953 23.0445C503.39 23.0445 503.299 22.6574 503.299 20.2706C503.299 17.8249 503.212 17.4967 502.568 17.4967C501.922 17.4967 501.838 17.8213 501.834 20.3414C501.831 22.6651 501.7 23.1305 501.082 23.0099C500.738 22.9429 500.673 22.6574 500.558 20.6952C500.486 19.4641 500.416 17.4846 500.402 16.2959C500.382 14.6595 500.3 14.0706 500.063 13.8694C499.813 13.6575 499.686 13.6575 499.437 13.8694C499.178 14.0887 499.123 14.8562 499.123 18.2837C499.123 22.4146 499 23.2579 498.393 23.2579C497.745 23.2579 497.662 22.4197 497.662 15.8964C497.662 9.37313 497.579 8.53499 496.931 8.53499C496.284 8.53499 496.201 9.37334 496.201 15.8648C496.201 19.4425 496.144 22.5213 496.074 22.7069C495.91 23.1435 495.239 23.1435 495.075 22.7069C495.005 22.5213 494.948 18.4004 494.948 13.5493C494.948 8.69822 494.891 4.57732 494.821 4.39168C494.751 4.20604 494.48 4.05412 494.217 4.05412C493.955 4.05412 493.683 4.20604 493.613 4.39168C493.544 4.57732 493.487 8.69822 493.487 13.5493C493.487 18.4004 493.43 22.5213 493.36 22.7069C493.29 22.8926 493.065 23.0445 492.86 23.0445C492.655 23.0445 492.43 22.8926 492.361 22.7069C492.291 22.5213 492.234 17.4871 492.234 11.5201C492.234 1.9415 492.196 0.631379 491.906 0.335215C491.725 0.150859 491.544 0 491.503 0C491.462 0 491.281 0.150859 491.101 0.335215Z" fill="#D0D5DD"/>
</svg>
