<svg width="65" height="64" viewBox="0 0 65 64" fill="none" xmlns="http://www.w3.org/2000/svg">
<path d="M54.8996 39.5245V60.1643C54.8996 61.576 53.7535 62.7205 52.3396 62.7205H12.6596C11.2458 62.7205 10.0996 61.576 10.0996 60.1643V7.0366C10.0996 5.62488 11.2458 4.48047 12.6596 4.48047H21.4256" stroke="#FCFAFF" stroke-width="2.56" stroke-linecap="round" stroke-linejoin="round"/>
<path d="M43.8262 4.48047H52.3402C53.754 4.48047 54.9002 5.62488 54.9002 7.0366V33.1245" stroke="#FCFAFF" stroke-width="2.56" stroke-linecap="round" stroke-linejoin="round"/>
<path d="M42.679 1.2793H22.5726C21.9392 1.2793 21.4258 1.79275 21.4258 2.42612V7.78643C21.4258 8.4198 21.9392 8.93325 22.5726 8.93325H42.679C43.3123 8.93325 43.8258 8.4198 43.8258 7.78643V2.42612C43.8258 1.79275 43.3123 1.2793 42.679 1.2793Z" stroke="#FCFAFF" stroke-width="2.56" stroke-linecap="round" stroke-linejoin="round"/>
<path d="M28.7162 19.7715H18.3164V30.1713H28.7162V19.7715Z" stroke="#FCFAFF" stroke-width="2.56" stroke-linecap="round" stroke-linejoin="round"/>
<path d="M35.1445 21.8164H49.3285" stroke="#FCFAFF" stroke-width="2.56" stroke-linecap="round" stroke-linejoin="round"/>
<path d="M35.1445 28.127H42.9353" stroke="#FCFAFF" stroke-width="2.56" stroke-linecap="round" stroke-linejoin="round"/>
<path d="M28.7162 40.6055H18.3164V51.0053H28.7162V40.6055Z" stroke="#FCFAFF" stroke-width="2.56" stroke-linecap="round" stroke-linejoin="round"/>
<path d="M35.1445 45.8066H46.655" stroke="#FCFAFF" stroke-width="2.56" stroke-linecap="round" stroke-linejoin="round"/>
</svg>
