<svg width="21" height="20" viewBox="0 0 21 20" fill="none" xmlns="http://www.w3.org/2000/svg">
<g clip-path="url(#clip0_6488_5316)">
<path d="M15.9442 3.54258C16.1342 4.00197 16.4988 4.36713 16.9579 4.55777L18.5678 5.22459C19.0272 5.41489 19.3922 5.77991 19.5825 6.23934C19.7728 6.69876 19.7728 7.21497 19.5825 7.6744L18.9162 9.2831C18.7258 9.74273 18.7255 10.2595 18.9168 10.7189L19.582 12.3271C19.6763 12.5547 19.7249 12.7986 19.7249 13.0449C19.725 13.2912 19.6765 13.5351 19.5822 13.7627C19.4879 13.9903 19.3497 14.1971 19.1755 14.3712C19.0013 14.5454 18.7945 14.6835 18.5669 14.7777L16.9582 15.444C16.4988 15.634 16.1336 15.9986 15.943 16.4577L15.2762 18.0676C15.0859 18.527 14.7209 18.892 14.2614 19.0823C13.802 19.2726 13.2858 19.2726 12.8264 19.0823L11.2177 18.416C10.7582 18.2261 10.2422 18.2265 9.78304 18.417L8.17318 19.0829C7.71401 19.2728 7.19825 19.2726 6.7392 19.0825C6.28014 18.8923 5.91533 18.5277 5.7249 18.0688L5.05788 16.4585C4.86793 15.9991 4.50332 15.6339 4.04421 15.4433L2.43435 14.7764C1.97513 14.5862 1.61022 14.2214 1.41985 13.7623C1.22948 13.3031 1.22922 12.7871 1.41913 12.3278L2.08548 10.7191C2.27531 10.2596 2.27492 9.74362 2.0844 9.28447L1.41901 7.67346C1.32467 7.44591 1.27609 7.202 1.27605 6.95567C1.27601 6.70934 1.32451 6.46542 1.41878 6.23784C1.51305 6.01026 1.65123 5.80348 1.82544 5.62933C1.99965 5.45518 2.20647 5.31706 2.43408 5.22286L4.04278 4.55652C4.50178 4.36673 4.86671 4.00259 5.05749 3.54401L5.72432 1.93415C5.91462 1.47472 6.27964 1.10971 6.73906 0.919404C7.19849 0.729103 7.7147 0.729103 8.17413 0.919404L9.78283 1.58575C10.2423 1.77558 10.7583 1.7752 11.2174 1.58467L12.828 0.920438C13.2874 0.730243 13.8034 0.730282 14.2628 0.920546C14.7221 1.11081 15.0871 1.47572 15.2774 1.93503L15.9444 3.54537L15.9442 3.54258Z" fill="#0788F5"/>
<path fill-rule="evenodd" clip-rule="evenodd" d="M14.4166 7.37925C14.5502 7.1694 14.5949 6.91507 14.541 6.67221C14.4871 6.42935 14.3389 6.21785 14.1291 6.08425C13.9192 5.95065 13.6649 5.90588 13.422 5.9598C13.1792 6.01372 12.9677 6.1619 12.8341 6.37175L9.16283 12.1405L7.48283 10.0405C7.32751 9.84623 7.10138 9.72162 6.85418 9.69407C6.60699 9.66653 6.35897 9.73831 6.1647 9.89363C5.97043 10.0489 5.84582 10.2751 5.81827 10.5223C5.79073 10.7695 5.86251 11.0175 6.01783 11.2118L8.51783 14.3368C8.611 14.4534 8.73066 14.546 8.86687 14.6071C9.00308 14.6681 9.15189 14.6957 9.30094 14.6877C9.44998 14.6796 9.59494 14.6361 9.72376 14.5607C9.85258 14.4853 9.96154 14.3802 10.0416 14.2543L14.4166 7.37925Z" fill="white"/>
</g>
<defs>
<clipPath id="clip0_6488_5316">
<rect width="20" height="20" fill="white" transform="translate(0.5)"/>
</clipPath>
</defs>
</svg>
