<svg width="120" height="24" viewBox="0 0 120 24" fill="none" xmlns="http://www.w3.org/2000/svg">
<path d="M21.463 17.1408C21.0879 17.006 20.7982 16.824 20.6028 16.5993C20.4063 16.3747 20.2895 16.1129 20.2446 15.7995C20.1974 15.4703 20.203 15.1164 20.2614 14.7457L22.0133 3.68457H18.696L16.9508 14.7041C16.8161 15.5568 16.8048 16.3499 16.9183 17.0633C17.0339 17.7924 17.3124 18.4328 17.7437 18.9653C18.1749 19.4989 18.7813 19.9213 19.5427 20.2179C20.294 20.5122 21.2418 20.6616 22.3591 20.6616H29.1341L29.6585 17.3475H22.988C22.3603 17.3475 21.8471 17.2779 21.463 17.1386V17.1408Z" fill="#5511B7"/>
<path d="M55.4817 16.1758C54.9303 15.3838 54.7978 14.0526 55.0886 12.2191C55.3828 10.3599 55.9499 9.00843 56.7742 8.20182C57.5906 7.40307 58.7855 6.99752 60.3228 6.99752H66.9013L67.4257 3.68457H60.781C58.3194 3.68457 56.2936 4.39232 54.7607 5.7876C53.2323 7.17951 52.2295 9.32074 51.7814 12.1529C51.3334 14.9805 51.6646 17.1273 52.764 18.5339C53.8679 19.946 55.6827 20.6627 58.1589 20.6627H64.7373L65.2617 17.3487H58.617C57.0785 17.3487 56.0229 16.9532 55.4817 16.1747V16.1758Z" fill="#5511B7"/>
<path d="M102.361 5.24612C101.978 4.77091 101.451 4.38783 100.795 4.10585C100.145 3.82612 99.3299 3.68457 98.3742 3.68457H89.2197L88.6952 6.99752H98.0138C98.7381 6.99752 99.2356 7.18625 99.4927 7.5581C99.7623 7.94905 99.8521 8.40066 99.7667 8.9399C99.7241 9.21289 99.6387 9.48251 99.5141 9.7409C99.3905 9.99704 99.2288 10.2251 99.0346 10.4194C98.8403 10.6127 98.5966 10.7711 98.308 10.8901C98.0216 11.0092 97.6825 11.0699 97.3029 11.0699H90.8536C89.8912 11.0699 89.1433 11.2935 88.6335 11.7338C88.1236 12.1742 87.7867 12.8932 87.6318 13.8706L86.5571 20.6627H89.8744L90.8502 14.4997C90.8772 14.3244 90.9524 14.2593 91.1265 14.2593H95.3051L98.0677 20.6627H101.734L98.9009 13.9649C99.4939 13.7829 100.024 13.5313 100.479 13.2167C100.99 12.8617 101.432 12.4472 101.791 11.9832C102.151 11.5215 102.444 11.0171 102.663 10.4868C102.881 9.95772 103.034 9.41735 103.119 8.88261C103.226 8.20968 103.222 7.55024 103.11 6.9245C102.995 6.28752 102.744 5.72357 102.362 5.24724L102.361 5.24612Z" fill="#45B8F3"/>
<path d="M14.2281 13.6703L14.7099 10.627H3.18242L2.6344 13.6703H14.2281Z" fill="#5511B7"/>
<path d="M15.4076 6.99752L15.9321 3.68457H4.43495L3.83752 6.99752H15.4076Z" fill="#5511B7"/>
<path d="M119.476 6.99752L120 3.68457H109.241H105.923L104.178 14.7041C104.043 15.5568 104.032 16.3499 104.146 17.0633C104.261 17.7924 104.54 18.4328 104.971 18.9653C105.402 19.4989 106.009 19.9213 106.77 20.2179C107.521 20.5122 108.469 20.6616 109.586 20.6616H117.198L117.723 17.3475H110.215C109.588 17.3475 109.074 17.2779 108.69 17.1386C108.315 17.0038 108.026 16.8218 107.83 16.5971C107.634 16.3724 107.517 16.1107 107.472 15.7972C107.425 15.4681 107.43 15.1142 107.489 14.7435L107.658 13.6695H118.295L118.777 10.6261H108.14L108.715 6.9964H119.474L119.476 6.99752Z" fill="#45B8F3"/>
<path d="M67.8663 20.6626H69.8146L70.7737 18.9258C69.8034 19.5234 68.8309 20.1031 67.8663 20.6626Z" fill="#45B8F3"/>
<path d="M81.7655 5.6883C81.5836 4.85023 81.2074 4.24808 80.6459 3.8987C80.1013 3.56055 79.368 3.38867 78.4651 3.38867C77.5622 3.38867 76.7638 3.55718 76.1225 3.89084C75.4723 4.22786 74.9142 4.81428 74.4616 5.63101L66.2897 20.6612H69.8136L77.2264 7.23749C77.4106 6.92743 77.6532 6.77577 77.9698 6.77577C78.2663 6.77577 78.4202 6.89597 78.4853 7.1757L78.8053 8.63502L81.4399 20.6612H85.0806L81.7633 5.68718L81.7655 5.6883Z" fill="#45B8F3"/>
<path d="M4.62223 17.1408C4.24715 17.006 3.95742 16.824 3.76202 16.5993C3.5655 16.3747 3.44871 16.1129 3.40379 15.7995C3.35663 15.4703 3.36224 15.1164 3.42064 14.7457L5.17249 3.68457H1.85519L0.110075 14.7041C-0.0246831 15.5568 -0.0359129 16.3499 0.0775086 17.0633C0.193176 17.7924 0.471676 18.4328 0.902903 18.9653C1.33413 19.4989 1.94054 19.9213 2.70193 20.2179C3.4532 20.5122 4.401 20.6616 5.51837 20.6616H13.13L13.6544 17.3475H6.14724C5.5195 17.3475 5.00629 17.2779 4.62223 17.1386V17.1408Z" fill="#5511B7"/>
<path d="M44.9948 0.765625C43.6989 1.64076 41.2968 2.18 39.8919 2.18C34.4825 2.18 30.0815 6.58266 30.0815 11.9942C30.0815 15.5329 31.9637 18.6391 34.779 20.3658L35.309 19.3503L36.8891 16.3249L37.2518 15.6306L41.454 7.5825L42.0604 6.42089L43.3137 4.02128L44.9937 0.765625L44.9948 0.765625Z" fill="#5511B7"/>
<path d="M44.6127 3.39453L44.0871 4.40223C46.7564 5.88402 48.5689 8.73075 48.5689 11.9954C48.5689 16.7811 44.6767 20.6749 39.8928 20.6749C38.5171 20.6749 37.2189 20.3446 36.0623 19.7717L34.3003 23.2352C36.0623 21.7758 38.3273 21.8095 39.8928 21.8095C45.3022 21.8095 49.7032 17.4069 49.7032 11.9954C49.7032 8.29486 47.6447 5.0673 44.6138 3.39453H44.6127Z" fill="#5511B7"/>
</svg>
