<svg width="48" height="48" viewBox="0 0 48 48" fill="none" xmlns="http://www.w3.org/2000/svg">
<rect width="48" height="48" rx="10" fill="#F4EBFF"/>
<g clip-path="url(#clip0_6535_33868)">
<path d="M22.0864 20.8543C21.8439 19.6486 21.2826 18.4768 20.0061 18.4766C17.0196 18.4761 10.9661 29.7014 13.9311 34.8041C15.1052 36.8249 19.4085 34.145 21.3485 31.9315C22.3729 30.7627 22.3758 28.0358 22.3729 26.6942C22.3676 24.215 22.2437 21.6367 22.0864 20.8543Z" stroke="#7F56D9" stroke-width="1.1" stroke-linecap="round" stroke-linejoin="round"/>
<path d="M22.1704 22.3672C22.1704 22.3672 19.0017 24.3864 18.2593 28.1088C17.7321 30.7525 14.9961 31.909 14.9961 31.909" stroke="#7F56D9" stroke-width="1.1" stroke-linecap="round" stroke-linejoin="round"/>
<path d="M19.5472 25.0498C17.8094 24.604 15.9873 26.3941 15.9873 26.3941" stroke="#7F56D9" stroke-width="1.1" stroke-linecap="round" stroke-linejoin="round"/>
<path d="M17.1084 23.502C17.1084 23.502 18.6806 23.9462 19.359 24.9788" stroke="#7F56D9" stroke-width="1.1" stroke-linecap="round" stroke-linejoin="round"/>
<path d="M18.5176 27.1367C18.5176 27.1367 18.7451 28.7787 19.8294 30.1108" stroke="#7F56D9" stroke-width="1.1" stroke-linecap="round" stroke-linejoin="round"/>
<path d="M14.7793 29.2756C14.7793 29.2756 16.6794 27.8092 18.1943 28.3866" stroke="#7F56D9" stroke-width="1.1" stroke-linecap="round" stroke-linejoin="round"/>
<path d="M27.1828 32.4917C26.9914 32.3037 26.8133 32.116 26.6517 31.9315C25.6272 30.7627 25.6244 28.0358 25.6272 26.6942C25.6325 24.215 25.7564 21.6367 25.9137 20.8543C26.1562 19.6486 26.7175 18.4768 27.994 18.4766C30.9805 18.4761 37.034 29.7014 34.0691 34.8041C33.2678 36.183 31.0096 35.3732 29.0395 34.0163" stroke="#7F56D9" stroke-width="1.1" stroke-linecap="round" stroke-linejoin="round"/>
<path d="M25.8301 22.3672C25.8301 22.3672 28.9988 24.3864 29.7411 28.1088C30.2683 30.7525 33.0043 31.909 33.0043 31.909" stroke="#7F56D9" stroke-width="1.1" stroke-linecap="round" stroke-linejoin="round"/>
<path d="M28.4531 25.0498C30.1909 24.604 32.013 26.3941 32.013 26.3941" stroke="#7F56D9" stroke-width="1.1" stroke-linecap="round" stroke-linejoin="round"/>
<path d="M30.8922 23.502C30.8922 23.502 29.32 23.9462 28.6416 24.9788" stroke="#7F56D9" stroke-width="1.1" stroke-linecap="round" stroke-linejoin="round"/>
<path d="M29.4827 27.1367C29.4827 27.1367 29.2552 28.7787 28.1709 30.1108" stroke="#7F56D9" stroke-width="1.1" stroke-linecap="round" stroke-linejoin="round"/>
<path d="M33.2207 29.2756C33.2207 29.2756 31.3206 27.8092 29.8057 28.3866" stroke="#7F56D9" stroke-width="1.1" stroke-linecap="round" stroke-linejoin="round"/>
<path d="M25.8299 20.7755L24.8281 19.6632C24.6209 19.4332 24.3186 19.3008 24.0004 19.3008C23.6822 19.3008 23.3798 19.4332 23.1727 19.6632L22.1709 20.7755" stroke="#7F56D9" stroke-width="1.1" stroke-linecap="round" stroke-linejoin="round"/>
<path d="M21.458 18.8518L22.5834 17.412C22.8934 16.9364 23.0585 16.381 23.0585 15.8133V12.4805" stroke="#7F56D9" stroke-width="1.1" stroke-linecap="round" stroke-linejoin="round"/>
<path d="M24.9424 12.4805V15.8133C24.9424 16.381 25.1075 16.9364 25.4175 17.412L26.5429 18.8518" stroke="#7F56D9" stroke-width="1.1" stroke-linecap="round" stroke-linejoin="round"/>
</g>
<defs>
<clipPath id="clip0_6535_33868">
<rect width="24" height="24" fill="white" transform="translate(12 12)"/>
</clipPath>
</defs>
</svg>
