<svg width="48" height="48" viewBox="0 0 48 48" fill="none" xmlns="http://www.w3.org/2000/svg">
<rect width="48" height="48" rx="10" fill="#F4EBFF"/>
<g clip-path="url(#clip0_6535_9472)">
<path d="M28.3131 12.7148C28.3384 12.7928 28.3637 12.8739 28.3887 12.9577C28.823 14.4147 29.173 16.7207 27.9512 18.6587" stroke="#7F56D9" stroke-width="1.1" stroke-linecap="round" stroke-linejoin="round"/>
<path d="M18.5608 18.5631C18.5608 18.5631 17.4211 17.565 17.4199 15.909C17.4195 15.2594 17.5272 14.5132 17.828 13.6946C17.9501 13.3624 18.1093 13.0205 18.2885 12.7148" stroke="#7F56D9" stroke-width="1.1" stroke-linecap="round" stroke-linejoin="round"/>
<path d="M18.5586 26.5415C21.3165 26.0122 21.1646 24.1731 21.1646 24.1731C19.6315 23.1467 18.5767 21.0241 18.5612 18.5629C18.5586 18.5474 18.5586 18.5293 18.5586 18.5086C18.5586 17.9036 18.7154 16.7147 18.8343 16.1615C22.4067 15.8206 25.3642 14.2402 25.3642 14.2402C26.2537 15.4484 26.7656 15.7359 27.6568 16.1579C27.8378 16.8301 27.9511 17.7537 27.9511 18.5086C27.9511 18.6017 27.9485 18.6922 27.9433 18.7827C27.8709 21.1663 26.8161 23.2061 25.3089 24.1963C25.3089 24.1963 24.8195 25.9502 27.3696 26.5733" stroke="#7F56D9" stroke-width="1.1" stroke-linecap="round" stroke-linejoin="round"/>
<path d="M30.0114 27.2642C29.7467 27.1516 29.471 27.0613 29.1877 26.995L27.3842 26.5728C26.4719 29.5768 20.9952 31.2301 18.5731 26.541L16.7696 26.9632C15.4334 27.276 14.2671 28.1222 13.6161 29.3302C12.835 30.7795 12.5929 32.7375 12.4805 35.2497" stroke="#7F56D9" stroke-width="1.1" stroke-linecap="round" stroke-linejoin="round"/>
<path d="M33.4774 35.2824C33.4009 33.5741 33.2645 32.1221 32.9395 30.9121" stroke="#7F56D9" stroke-width="1.1" stroke-linecap="round" stroke-linejoin="round"/>
<path d="M32.7683 17.2246L30.7941 24.1587L32.5305 25.0119L29.9258 32.5466L35.5194 23.6621L33.239 22.7958L35.2882 18.2145L32.7683 17.2246Z" stroke="#7F56D9" stroke-width="1.1" stroke-linecap="round" stroke-linejoin="round"/>
</g>
<defs>
<clipPath id="clip0_6535_9472">
<rect width="24" height="24" fill="white" transform="translate(12 12)"/>
</clipPath>
</defs>
</svg>
