<svg width="115" height="132" viewBox="0 0 115 132" fill="none" xmlns="http://www.w3.org/2000/svg">
<path d="M86.3468 8.63672H62.7031V42.7613H86.3468V8.63672Z" stroke="black" stroke-width="2.56" stroke-linecap="round" stroke-linejoin="round"/>
<path d="M82.4113 13.6602H66.6387V31.923H82.4113V13.6602Z" stroke="black" stroke-width="2.56" stroke-linecap="round" stroke-linejoin="round"/>
<path d="M71.9482 37.8574H77.1024" stroke="black" stroke-width="2.56" stroke-linecap="round" stroke-linejoin="round"/>
<path d="M74.524 42.7598V47.5033C74.524 53.158 69.94 57.742 64.2853 57.742H62.7021" stroke="black" stroke-width="2.56" stroke-linecap="round" stroke-linejoin="round"/>
<path d="M47.8574 11.625V8.63512C47.8574 4.57261 51.1507 1.2793 55.2132 1.2793H67.1684C71.2309 1.2793 74.5242 4.57261 74.5242 8.63512" stroke="black" stroke-width="2.56" stroke-linecap="round" stroke-linejoin="round"/>
<path d="M28.6543 46.0312V14.7852" stroke="black" stroke-width="2.56" stroke-linecap="round" stroke-linejoin="round"/>
<path d="M54.498 14.7852V46.0312" stroke="black" stroke-width="2.56" stroke-linecap="round" stroke-linejoin="round"/>
<path d="M36.1758 32.0977V48.5537" stroke="black" stroke-width="2.56" stroke-linecap="round" stroke-linejoin="round"/>
<path d="M36.1758 18.1289V25.6975" stroke="black" stroke-width="2.56" stroke-linecap="round" stroke-linejoin="round"/>
<path d="M41.5762 17.9467C48.7128 17.9467 54.4982 16.5316 54.4982 14.7859C54.4982 13.0402 48.7128 11.625 41.5762 11.625C34.4396 11.625 28.6543 13.0402 28.6543 14.7859C28.6543 16.5316 34.4396 17.9467 41.5762 17.9467Z" stroke="black" stroke-width="2.56" stroke-linecap="round" stroke-linejoin="round"/>
<path d="M54.4982 46.0312C54.4982 47.7769 48.7128 49.1921 41.5762 49.1921C34.4396 49.1921 28.6543 47.7769 28.6543 46.0312" stroke="black" stroke-width="2.56" stroke-linecap="round" stroke-linejoin="round"/>
<path d="M54.7664 52.7656C57.5153 52.7656 62.7032 54.994 62.7032 57.7429C62.7032 60.4918 57.5153 62.7203 54.7664 62.7203C52.0175 62.7203 49.7891 60.4918 49.7891 57.7429C49.7891 54.994 52.0175 52.7656 54.7664 52.7656Z" stroke="black" stroke-width="2.56" stroke-linecap="round" stroke-linejoin="round"/>
<path d="M38.3984 90.6621H34.7656L34.7461 88.7676H37.8613C38.3952 88.7676 38.8411 88.6927 39.1992 88.543C39.5573 88.3932 39.8275 88.1751 40.0098 87.8887C40.1986 87.6022 40.293 87.2539 40.293 86.8438C40.293 86.388 40.2051 86.0169 40.0293 85.7305C39.86 85.444 39.5931 85.2357 39.2285 85.1055C38.8639 84.9688 38.4017 84.9004 37.8418 84.9004H35.6348V97H32.9492V82.7812H37.8418C38.6491 82.7812 39.3685 82.8594 40 83.0156C40.638 83.1654 41.1784 83.3997 41.6211 83.7188C42.0638 84.0378 42.3991 84.4382 42.627 84.9199C42.8613 85.4017 42.9785 85.9746 42.9785 86.6387C42.9785 87.2246 42.8418 87.765 42.5684 88.2598C42.3014 88.748 41.888 89.1452 41.3281 89.4512C40.7747 89.7572 40.0716 89.9329 39.2188 89.9785L38.3984 90.6621ZM38.2812 97H33.9746L35.0977 94.8906H38.2812C38.8151 94.8906 39.2546 94.8027 39.5996 94.627C39.9512 94.4512 40.2116 94.2103 40.3809 93.9043C40.5566 93.5918 40.6445 93.2337 40.6445 92.8301C40.6445 92.3874 40.5664 92.0033 40.4102 91.6777C40.2604 91.3522 40.0195 91.1016 39.6875 90.9258C39.362 90.75 38.9323 90.6621 38.3984 90.6621H35.6055L35.625 88.7676H39.1797L39.7949 89.5C40.6152 89.5065 41.2826 89.6693 41.7969 89.9883C42.3177 90.3073 42.7018 90.7174 42.9492 91.2188C43.1966 91.7201 43.3203 92.2604 43.3203 92.8398C43.3203 93.7513 43.1217 94.5163 42.7246 95.1348C42.334 95.7533 41.7611 96.2188 41.0059 96.5312C40.2572 96.8438 39.349 97 38.2812 97ZM48.1836 82V97H45.5957V82H48.1836ZM50.1855 91.8242V91.6191C50.1855 90.8444 50.2962 90.1315 50.5176 89.4805C50.7389 88.8229 51.0612 88.2533 51.4844 87.7715C51.9076 87.2897 52.4251 86.9154 53.0371 86.6484C53.6491 86.375 54.3457 86.2383 55.127 86.2383C55.9212 86.2383 56.6243 86.375 57.2363 86.6484C57.8548 86.9154 58.3757 87.2897 58.7988 87.7715C59.222 88.2533 59.5443 88.8229 59.7656 89.4805C59.987 90.1315 60.0977 90.8444 60.0977 91.6191V91.8242C60.0977 92.5924 59.987 93.3053 59.7656 93.9629C59.5443 94.6139 59.222 95.1836 58.7988 95.6719C58.3757 96.1536 57.8581 96.528 57.2461 96.7949C56.6341 97.0618 55.9342 97.1953 55.1465 97.1953C54.3652 97.1953 53.6654 97.0618 53.0469 96.7949C52.4284 96.528 51.9076 96.1536 51.4844 95.6719C51.0612 95.1836 50.7389 94.6139 50.5176 93.9629C50.2962 93.3053 50.1855 92.5924 50.1855 91.8242ZM52.7637 91.6191V91.8242C52.7637 92.2865 52.8092 92.7194 52.9004 93.123C52.9915 93.5267 53.1315 93.8815 53.3203 94.1875C53.5091 94.4935 53.7533 94.7344 54.0527 94.9102C54.3587 95.0794 54.7233 95.1641 55.1465 95.1641C55.5632 95.1641 55.9212 95.0794 56.2207 94.9102C56.5202 94.7344 56.7643 94.4935 56.9531 94.1875C57.1484 93.8815 57.2917 93.5267 57.3828 93.123C57.474 92.7194 57.5195 92.2865 57.5195 91.8242V91.6191C57.5195 91.1634 57.474 90.737 57.3828 90.3398C57.2917 89.9362 57.1484 89.5814 56.9531 89.2754C56.7643 88.9629 56.5169 88.7188 56.2109 88.543C55.9115 88.3607 55.5501 88.2695 55.127 88.2695C54.7103 88.2695 54.3522 88.3607 54.0527 88.543C53.7533 88.7188 53.5091 88.9629 53.3203 89.2754C53.1315 89.5814 52.9915 89.9362 52.9004 90.3398C52.8092 90.737 52.7637 91.1634 52.7637 91.6191ZM61.5137 91.8242V91.6191C61.5137 90.8444 61.6243 90.1315 61.8457 89.4805C62.0671 88.8229 62.3893 88.2533 62.8125 87.7715C63.2357 87.2897 63.7533 86.9154 64.3652 86.6484C64.9772 86.375 65.6738 86.2383 66.4551 86.2383C67.2493 86.2383 67.9525 86.375 68.5645 86.6484C69.1829 86.9154 69.7038 87.2897 70.127 87.7715C70.5501 88.2533 70.8724 88.8229 71.0938 89.4805C71.3151 90.1315 71.4258 90.8444 71.4258 91.6191V91.8242C71.4258 92.5924 71.3151 93.3053 71.0938 93.9629C70.8724 94.6139 70.5501 95.1836 70.127 95.6719C69.7038 96.1536 69.1862 96.528 68.5742 96.7949C67.9622 97.0618 67.2624 97.1953 66.4746 97.1953C65.6934 97.1953 64.9935 97.0618 64.375 96.7949C63.7565 96.528 63.2357 96.1536 62.8125 95.6719C62.3893 95.1836 62.0671 94.6139 61.8457 93.9629C61.6243 93.3053 61.5137 92.5924 61.5137 91.8242ZM64.0918 91.6191V91.8242C64.0918 92.2865 64.1374 92.7194 64.2285 93.123C64.3197 93.5267 64.4596 93.8815 64.6484 94.1875C64.8372 94.4935 65.0814 94.7344 65.3809 94.9102C65.6868 95.0794 66.0514 95.1641 66.4746 95.1641C66.8913 95.1641 67.2493 95.0794 67.5488 94.9102C67.8483 94.7344 68.0924 94.4935 68.2812 94.1875C68.4766 93.8815 68.6198 93.5267 68.7109 93.123C68.8021 92.7194 68.8477 92.2865 68.8477 91.8242V91.6191C68.8477 91.1634 68.8021 90.737 68.7109 90.3398C68.6198 89.9362 68.4766 89.5814 68.2812 89.2754C68.0924 88.9629 67.8451 88.7188 67.5391 88.543C67.2396 88.3607 66.8783 88.2695 66.4551 88.2695C66.0384 88.2695 65.6803 88.3607 65.3809 88.543C65.0814 88.7188 64.8372 88.9629 64.6484 89.2754C64.4596 89.5814 64.3197 89.9362 64.2285 90.3398C64.1374 90.737 64.0918 91.1634 64.0918 91.6191ZM79.6387 94.7539V82H82.2363V97H79.8926L79.6387 94.7539ZM72.8516 91.8438V91.6387C72.8516 90.8314 72.9427 90.099 73.125 89.4414C73.3138 88.7773 73.5872 88.2077 73.9453 87.7324C74.3034 87.2572 74.7363 86.8893 75.2441 86.6289C75.7585 86.3685 76.3411 86.2383 76.9922 86.2383C77.6237 86.2383 78.1738 86.3652 78.6426 86.6191C79.1178 86.873 79.5215 87.2344 79.8535 87.7031C80.1921 88.1719 80.4622 88.7285 80.6641 89.373C80.8659 90.0111 81.0124 90.7142 81.1035 91.4824V92.0391C81.0124 92.7878 80.8659 93.4746 80.6641 94.0996C80.4622 94.7246 80.1921 95.2715 79.8535 95.7402C79.5215 96.2025 79.1178 96.5605 78.6426 96.8145C78.1673 97.0684 77.6107 97.1953 76.9727 97.1953C76.3281 97.1953 75.7487 97.0618 75.2344 96.7949C74.7266 96.528 74.2936 96.1536 73.9355 95.6719C73.584 95.1901 73.3138 94.6237 73.125 93.9727C72.9427 93.3216 72.8516 92.612 72.8516 91.8438ZM75.4395 91.6387V91.8438C75.4395 92.2995 75.4785 92.7259 75.5566 93.123C75.6348 93.5202 75.7617 93.8717 75.9375 94.1777C76.1133 94.4772 76.3379 94.7116 76.6113 94.8809C76.8913 95.0501 77.2298 95.1348 77.627 95.1348C78.1348 95.1348 78.5514 95.0241 78.877 94.8027C79.209 94.5749 79.4661 94.2656 79.6484 93.875C79.8307 93.4779 79.9479 93.0319 80 92.5371V91.0039C79.974 90.6133 79.9056 90.252 79.7949 89.9199C79.6908 89.5879 79.541 89.3014 79.3457 89.0605C79.1569 88.8197 78.9225 88.6309 78.6426 88.4941C78.3626 88.3574 78.0306 88.2891 77.6465 88.2891C77.2493 88.2891 76.9108 88.377 76.6309 88.5527C76.3509 88.722 76.123 88.9596 75.9473 89.2656C75.7715 89.5716 75.6413 89.9264 75.5566 90.3301C75.4785 90.7337 75.4395 91.1699 75.4395 91.6387ZM24.2578 119.814H20.5957V117.705H24.2578C24.8568 117.705 25.3418 117.607 25.7129 117.412C26.0905 117.21 26.3672 116.937 26.543 116.592C26.7188 116.24 26.8066 115.84 26.8066 115.391C26.8066 114.954 26.7188 114.548 26.543 114.17C26.3672 113.792 26.0905 113.486 25.7129 113.252C25.3418 113.018 24.8568 112.9 24.2578 112.9H21.4746V125H18.7891V110.781H24.2578C25.3646 110.781 26.3086 110.98 27.0898 111.377C27.8776 111.768 28.4766 112.311 28.8867 113.008C29.3034 113.698 29.5117 114.486 29.5117 115.371C29.5117 116.289 29.3034 117.08 28.8867 117.744C28.4766 118.408 27.8776 118.919 27.0898 119.277C26.3086 119.635 25.3646 119.814 24.2578 119.814ZM34.0039 116.592V125H31.4258V114.434H33.8672L34.0039 116.592ZM37.2168 114.365L37.1777 116.768C37.0345 116.742 36.8717 116.722 36.6895 116.709C36.5137 116.696 36.3477 116.689 36.1914 116.689C35.7943 116.689 35.446 116.745 35.1465 116.855C34.847 116.96 34.5964 117.113 34.3945 117.314C34.1992 117.516 34.0495 117.764 33.9453 118.057C33.8411 118.343 33.7826 118.669 33.7695 119.033L33.2129 118.965C33.2129 118.294 33.2812 117.673 33.418 117.1C33.5547 116.527 33.7533 116.025 34.0137 115.596C34.2741 115.166 34.5996 114.834 34.9902 114.6C35.3874 114.359 35.8431 114.238 36.3574 114.238C36.5007 114.238 36.6536 114.251 36.8164 114.277C36.9857 114.297 37.1191 114.326 37.2168 114.365ZM43.1836 125.195C42.3828 125.195 41.6634 125.065 41.0254 124.805C40.3874 124.544 39.8438 124.183 39.3945 123.721C38.9518 123.252 38.61 122.708 38.3691 122.09C38.1348 121.465 38.0176 120.794 38.0176 120.078V119.688C38.0176 118.874 38.1348 118.135 38.3691 117.471C38.6035 116.8 38.9355 116.224 39.3652 115.742C39.7949 115.26 40.3092 114.889 40.9082 114.629C41.5072 114.368 42.168 114.238 42.8906 114.238C43.6393 114.238 44.3001 114.365 44.873 114.619C45.446 114.867 45.9245 115.218 46.3086 115.674C46.6927 116.13 46.9824 116.676 47.1777 117.314C47.373 117.946 47.4707 118.646 47.4707 119.414V120.498H39.1895V118.721H44.9316V118.525C44.9186 118.115 44.8405 117.741 44.6973 117.402C44.554 117.057 44.3327 116.784 44.0332 116.582C43.7337 116.374 43.3464 116.27 42.8711 116.27C42.487 116.27 42.1517 116.354 41.8652 116.523C41.5853 116.686 41.3509 116.921 41.1621 117.227C40.9798 117.526 40.8431 117.884 40.752 118.301C40.6608 118.717 40.6152 119.18 40.6152 119.688V120.078C40.6152 120.521 40.6738 120.931 40.791 121.309C40.9147 121.686 41.0938 122.015 41.3281 122.295C41.569 122.568 41.8555 122.783 42.1875 122.939C42.526 123.089 42.9102 123.164 43.3398 123.164C43.8802 123.164 44.3685 123.06 44.8047 122.852C45.2474 122.637 45.6315 122.321 45.957 121.904L47.2559 123.252C47.0345 123.577 46.735 123.89 46.3574 124.189C45.9863 124.489 45.5371 124.733 45.0098 124.922C44.4824 125.104 43.8737 125.195 43.1836 125.195ZM55.0098 122.109C55.0098 121.888 54.9512 121.689 54.834 121.514C54.7168 121.338 54.4954 121.178 54.1699 121.035C53.8509 120.885 53.3822 120.745 52.7637 120.615C52.2168 120.498 51.7122 120.352 51.25 120.176C50.7878 120 50.3906 119.788 50.0586 119.541C49.7266 119.287 49.4661 118.991 49.2773 118.652C49.0951 118.307 49.0039 117.91 49.0039 117.461C49.0039 117.025 49.0983 116.615 49.2871 116.23C49.4759 115.84 49.7493 115.498 50.1074 115.205C50.4655 114.906 50.9017 114.671 51.416 114.502C51.9303 114.326 52.5098 114.238 53.1543 114.238C54.0527 114.238 54.8242 114.385 55.4688 114.678C56.1198 114.971 56.6178 115.374 56.9629 115.889C57.3079 116.396 57.4805 116.969 57.4805 117.607H54.9023C54.9023 117.327 54.8372 117.074 54.707 116.846C54.5833 116.618 54.3913 116.436 54.1309 116.299C53.8704 116.156 53.5417 116.084 53.1445 116.084C52.7865 116.084 52.4837 116.143 52.2363 116.26C51.9954 116.377 51.8132 116.53 51.6895 116.719C51.5658 116.908 51.5039 117.116 51.5039 117.344C51.5039 117.513 51.5365 117.666 51.6016 117.803C51.6732 117.933 51.7871 118.053 51.9434 118.164C52.0996 118.275 52.3112 118.376 52.5781 118.467C52.8516 118.558 53.1868 118.646 53.584 118.73C54.3717 118.887 55.0586 119.095 55.6445 119.355C56.237 119.609 56.6992 119.948 57.0312 120.371C57.3633 120.794 57.5293 121.335 57.5293 121.992C57.5293 122.461 57.4284 122.891 57.2266 123.281C57.0247 123.665 56.7318 124.001 56.3477 124.287C55.9635 124.574 55.5046 124.798 54.9707 124.961C54.4368 125.117 53.8346 125.195 53.1641 125.195C52.194 125.195 51.3737 125.023 50.7031 124.678C50.0326 124.326 49.5247 123.883 49.1797 123.35C48.8346 122.809 48.6621 122.249 48.6621 121.67H51.1328C51.1523 122.08 51.263 122.409 51.4648 122.656C51.6667 122.904 51.9206 123.083 52.2266 123.193C52.5391 123.298 52.8678 123.35 53.2129 123.35C53.6035 123.35 53.9323 123.298 54.1992 123.193C54.4661 123.083 54.668 122.936 54.8047 122.754C54.9414 122.565 55.0098 122.35 55.0098 122.109ZM65.3027 122.109C65.3027 121.888 65.2441 121.689 65.127 121.514C65.0098 121.338 64.7884 121.178 64.4629 121.035C64.1439 120.885 63.6751 120.745 63.0566 120.615C62.5098 120.498 62.0052 120.352 61.543 120.176C61.0807 120 60.6836 119.788 60.3516 119.541C60.0195 119.287 59.7591 118.991 59.5703 118.652C59.388 118.307 59.2969 117.91 59.2969 117.461C59.2969 117.025 59.3913 116.615 59.5801 116.23C59.7689 115.84 60.0423 115.498 60.4004 115.205C60.7585 114.906 61.1947 114.671 61.709 114.502C62.2233 114.326 62.8027 114.238 63.4473 114.238C64.3457 114.238 65.1172 114.385 65.7617 114.678C66.4128 114.971 66.9108 115.374 67.2559 115.889C67.6009 116.396 67.7734 116.969 67.7734 117.607H65.1953C65.1953 117.327 65.1302 117.074 65 116.846C64.8763 116.618 64.6842 116.436 64.4238 116.299C64.1634 116.156 63.8346 116.084 63.4375 116.084C63.0794 116.084 62.7767 116.143 62.5293 116.26C62.2884 116.377 62.1061 116.53 61.9824 116.719C61.8587 116.908 61.7969 117.116 61.7969 117.344C61.7969 117.513 61.8294 117.666 61.8945 117.803C61.9661 117.933 62.0801 118.053 62.2363 118.164C62.3926 118.275 62.6042 118.376 62.8711 118.467C63.1445 118.558 63.4798 118.646 63.877 118.73C64.6647 118.887 65.3516 119.095 65.9375 119.355C66.5299 119.609 66.9922 119.948 67.3242 120.371C67.6562 120.794 67.8223 121.335 67.8223 121.992C67.8223 122.461 67.7214 122.891 67.5195 123.281C67.3177 123.665 67.0247 124.001 66.6406 124.287C66.2565 124.574 65.7975 124.798 65.2637 124.961C64.7298 125.117 64.1276 125.195 63.457 125.195C62.487 125.195 61.6667 125.023 60.9961 124.678C60.3255 124.326 59.8177 123.883 59.4727 123.35C59.1276 122.809 58.9551 122.249 58.9551 121.67H61.4258C61.4453 122.08 61.556 122.409 61.7578 122.656C61.9596 122.904 62.2135 123.083 62.5195 123.193C62.832 123.298 63.1608 123.35 63.5059 123.35C63.8965 123.35 64.2253 123.298 64.4922 123.193C64.7591 123.083 64.9609 122.936 65.0977 122.754C65.2344 122.565 65.3027 122.35 65.3027 122.109ZM76.0742 122.49V114.434H78.6719V125H76.2305L76.0742 122.49ZM76.4062 120.303L77.207 120.283C77.207 120.993 77.1289 121.647 76.9727 122.246C76.8164 122.845 76.5723 123.366 76.2402 123.809C75.9147 124.245 75.5013 124.587 75 124.834C74.4987 125.075 73.9062 125.195 73.2227 125.195C72.7018 125.195 72.2266 125.124 71.7969 124.98C71.3672 124.831 70.9961 124.6 70.6836 124.287C70.3776 123.968 70.14 123.561 69.9707 123.066C69.8014 122.565 69.7168 121.963 69.7168 121.26V114.434H72.2949V121.279C72.2949 121.631 72.334 121.924 72.4121 122.158C72.4967 122.393 72.6107 122.585 72.7539 122.734C72.9036 122.878 73.0762 122.982 73.2715 123.047C73.4733 123.105 73.6882 123.135 73.916 123.135C74.541 123.135 75.0326 123.011 75.3906 122.764C75.7552 122.51 76.0156 122.171 76.1719 121.748C76.3281 121.318 76.4062 120.837 76.4062 120.303ZM83.5352 116.592V125H80.957V114.434H83.3984L83.5352 116.592ZM86.748 114.365L86.709 116.768C86.5658 116.742 86.403 116.722 86.2207 116.709C86.0449 116.696 85.8789 116.689 85.7227 116.689C85.3255 116.689 84.9772 116.745 84.6777 116.855C84.3783 116.96 84.1276 117.113 83.9258 117.314C83.7305 117.516 83.5807 117.764 83.4766 118.057C83.3724 118.343 83.3138 118.669 83.3008 119.033L82.7441 118.965C82.7441 118.294 82.8125 117.673 82.9492 117.1C83.0859 116.527 83.2845 116.025 83.5449 115.596C83.8053 115.166 84.1309 114.834 84.5215 114.6C84.9186 114.359 85.3743 114.238 85.8887 114.238C86.0319 114.238 86.1849 114.251 86.3477 114.277C86.5169 114.297 86.6504 114.326 86.748 114.365ZM92.7148 125.195C91.9141 125.195 91.1947 125.065 90.5566 124.805C89.9186 124.544 89.375 124.183 88.9258 123.721C88.4831 123.252 88.1413 122.708 87.9004 122.09C87.666 121.465 87.5488 120.794 87.5488 120.078V119.688C87.5488 118.874 87.666 118.135 87.9004 117.471C88.1348 116.8 88.4668 116.224 88.8965 115.742C89.3262 115.26 89.8405 114.889 90.4395 114.629C91.0384 114.368 91.6992 114.238 92.4219 114.238C93.1706 114.238 93.8314 114.365 94.4043 114.619C94.9772 114.867 95.4557 115.218 95.8398 115.674C96.224 116.13 96.5137 116.676 96.709 117.314C96.9043 117.946 97.002 118.646 97.002 119.414V120.498H88.7207V118.721H94.4629V118.525C94.4499 118.115 94.3717 117.741 94.2285 117.402C94.0853 117.057 93.8639 116.784 93.5645 116.582C93.265 116.374 92.8776 116.27 92.4023 116.27C92.0182 116.27 91.6829 116.354 91.3965 116.523C91.1165 116.686 90.8822 116.921 90.6934 117.227C90.5111 117.526 90.3743 117.884 90.2832 118.301C90.1921 118.717 90.1465 119.18 90.1465 119.688V120.078C90.1465 120.521 90.2051 120.931 90.3223 121.309C90.446 121.686 90.625 122.015 90.8594 122.295C91.1003 122.568 91.3867 122.783 91.7188 122.939C92.0573 123.089 92.4414 123.164 92.8711 123.164C93.4115 123.164 93.8997 123.06 94.3359 122.852C94.7786 122.637 95.1628 122.321 95.4883 121.904L96.7871 123.252C96.5658 123.577 96.2663 123.89 95.8887 124.189C95.5176 124.489 95.0684 124.733 94.541 124.922C94.0137 125.104 93.4049 125.195 92.7148 125.195Z" fill="black"/>
</svg>
