<svg width="115" height="104" viewBox="0 0 115 104" fill="none" xmlns="http://www.w3.org/2000/svg">
<g clip-path="url(#clip0_6535_50853)">
<path d="M37.2551 33.6166C43.5033 42.1853 60.2864 57.9061 60.2864 57.9061C60.2864 57.9061 79.1534 39.8576 85.2093 31.058C86.8427 28.6845 88.2202 24.889 88.2202 21.7579C88.2202 13.1069 81.4459 6.09375 73.0894 6.09375C67.6965 6.09375 62.9659 9.01692 60.2864 13.4138C57.6069 9.01692 52.8762 6.09375 47.4834 6.09375C39.1268 6.09375 32.3525 13.1069 32.3525 21.7579C32.3525 22.8783 32.4832 23.9212 32.7195 24.9153" stroke="black" stroke-width="2.56" stroke-linecap="round" stroke-linejoin="round"/>
<path d="M26.7803 29.2725H41.5231L45.5369 17.0684L52.1786 40.0535L57.1629 21.11L60.2864 29.2725H68.4173" stroke="black" stroke-width="2.56" stroke-linecap="round" stroke-linejoin="round"/>
<path d="M71.9714 32.8275C73.9344 32.8275 75.5258 31.2362 75.5258 29.2731C75.5258 27.3101 73.9344 25.7188 71.9714 25.7188C70.0083 25.7188 68.417 27.3101 68.417 29.2731C68.417 31.2362 70.0083 32.8275 71.9714 32.8275Z" stroke="black" stroke-width="2.56" stroke-linecap="round" stroke-linejoin="round"/>
</g>
<path d="M20.293 88.6504V90.7598H12.8125V88.6504H20.293ZM13.5449 82.7812V97H10.8594V82.7812H13.5449ZM22.2852 82.7812V97H19.5996V82.7812H22.2852ZM29.5703 97.1953C28.7695 97.1953 28.0501 97.0651 27.4121 96.8047C26.7741 96.5443 26.2305 96.1829 25.7812 95.7207C25.3385 95.252 24.9967 94.7083 24.7559 94.0898C24.5215 93.4648 24.4043 92.7943 24.4043 92.0781V91.6875C24.4043 90.8737 24.5215 90.1348 24.7559 89.4707C24.9902 88.8001 25.3223 88.224 25.752 87.7422C26.1816 87.2604 26.696 86.8893 27.2949 86.6289C27.8939 86.3685 28.5547 86.2383 29.2773 86.2383C30.026 86.2383 30.6868 86.3652 31.2598 86.6191C31.8327 86.8665 32.3112 87.2181 32.6953 87.6738C33.0794 88.1296 33.3691 88.6764 33.5645 89.3145C33.7598 89.946 33.8574 90.6458 33.8574 91.4141V92.498H25.5762V90.7207H31.3184V90.5254C31.3053 90.1152 31.2272 89.7409 31.084 89.4023C30.9408 89.0573 30.7194 88.7839 30.4199 88.582C30.1204 88.3737 29.7331 88.2695 29.2578 88.2695C28.8737 88.2695 28.5384 88.3542 28.252 88.5234C27.972 88.6862 27.7376 88.9206 27.5488 89.2266C27.3665 89.526 27.2298 89.8841 27.1387 90.3008C27.0475 90.7174 27.002 91.1797 27.002 91.6875V92.0781C27.002 92.5208 27.0605 92.931 27.1777 93.3086C27.3014 93.6862 27.4805 94.015 27.7148 94.2949C27.9557 94.5684 28.2422 94.7832 28.5742 94.9395C28.9128 95.0892 29.2969 95.1641 29.7266 95.1641C30.2669 95.1641 30.7552 95.0599 31.1914 94.8516C31.6341 94.6367 32.0182 94.321 32.3438 93.9043L33.6426 95.252C33.4212 95.5775 33.1217 95.89 32.7441 96.1895C32.373 96.4889 31.9238 96.7331 31.3965 96.9219C30.8691 97.1042 30.2604 97.1953 29.5703 97.1953ZM41.4062 94.7539V89.8809C41.4062 89.5228 41.3444 89.2135 41.2207 88.9531C41.097 88.6927 40.9082 88.4909 40.6543 88.3477C40.4004 88.2044 40.0781 88.1328 39.6875 88.1328C39.3424 88.1328 39.0397 88.1914 38.7793 88.3086C38.5254 88.4258 38.3301 88.5918 38.1934 88.8066C38.0566 89.015 37.9883 89.2559 37.9883 89.5293H35.4004C35.4004 89.0931 35.5046 88.6797 35.7129 88.2891C35.9212 87.8919 36.2174 87.5404 36.6016 87.2344C36.9922 86.9219 37.4577 86.6777 37.998 86.502C38.5449 86.3262 39.1569 86.2383 39.834 86.2383C40.6348 86.2383 41.3477 86.375 41.9727 86.6484C42.6042 86.9154 43.099 87.319 43.457 87.8594C43.8216 88.3997 44.0039 89.0801 44.0039 89.9004V94.5098C44.0039 95.0371 44.0365 95.4896 44.1016 95.8672C44.1732 96.2383 44.2773 96.5605 44.4141 96.834V97H41.7871C41.6634 96.7331 41.569 96.3945 41.5039 95.9844C41.4388 95.5677 41.4062 95.1576 41.4062 94.7539ZM41.7676 90.5645L41.7871 92.0977H40.1562C39.7526 92.0977 39.3978 92.14 39.0918 92.2246C38.7858 92.3027 38.5352 92.4199 38.3398 92.5762C38.1445 92.7259 37.998 92.9082 37.9004 93.123C37.8027 93.3314 37.7539 93.569 37.7539 93.8359C37.7539 94.0964 37.8125 94.3307 37.9297 94.5391C38.0534 94.7474 38.2292 94.9134 38.457 95.0371C38.6914 95.1543 38.9648 95.2129 39.2773 95.2129C39.7331 95.2129 40.1302 95.1217 40.4688 94.9395C40.8073 94.7507 41.071 94.5228 41.2598 94.2559C41.4486 93.9889 41.5495 93.735 41.5625 93.4941L42.3047 94.6074C42.2135 94.8743 42.0768 95.1576 41.8945 95.457C41.7122 95.7565 41.4779 96.0365 41.1914 96.2969C40.9049 96.5573 40.5599 96.7721 40.1562 96.9414C39.7526 97.1107 39.2839 97.1953 38.75 97.1953C38.0664 97.1953 37.4544 97.0586 36.9141 96.7852C36.3737 96.5117 35.9473 96.1374 35.6348 95.6621C35.3223 95.1868 35.166 94.6465 35.166 94.041C35.166 93.4811 35.2702 92.9863 35.4785 92.5566C35.6868 92.127 35.9961 91.7656 36.4062 91.4727C36.8164 91.1732 37.3242 90.9486 37.9297 90.7988C38.5417 90.6426 39.2415 90.5645 40.0293 90.5645H41.7676ZM48.9062 88.5918V97H46.3281V86.4336H48.7695L48.9062 88.5918ZM52.1191 86.3652L52.0801 88.7676C51.9368 88.7415 51.7741 88.722 51.5918 88.709C51.416 88.696 51.25 88.6895 51.0938 88.6895C50.6966 88.6895 50.3483 88.7448 50.0488 88.8555C49.7493 88.9596 49.4987 89.1126 49.2969 89.3145C49.1016 89.5163 48.9518 89.7637 48.8477 90.0566C48.7435 90.3431 48.6849 90.6686 48.6719 91.0332L48.1152 90.9648C48.1152 90.2943 48.1836 89.6725 48.3203 89.0996C48.457 88.5267 48.6556 88.0254 48.916 87.5957C49.1764 87.166 49.502 86.834 49.8926 86.5996C50.2897 86.3587 50.7454 86.2383 51.2598 86.2383C51.403 86.2383 51.556 86.2513 51.7188 86.2773C51.888 86.2969 52.0215 86.3262 52.1191 86.3652ZM59.0234 86.4336V88.2891H52.9688V86.4336H59.0234ZM54.5898 83.8359H57.1777V93.9531C57.1777 94.2656 57.2201 94.5065 57.3047 94.6758C57.3893 94.8451 57.5163 94.959 57.6855 95.0176C57.8548 95.0762 58.0566 95.1055 58.291 95.1055C58.4603 95.1055 58.6165 95.0957 58.7598 95.0762C58.903 95.0566 59.0234 95.0371 59.1211 95.0176L59.1309 96.9512C58.916 97.0228 58.6719 97.0814 58.3984 97.127C58.1315 97.1725 57.8288 97.1953 57.4902 97.1953C56.9108 97.1953 56.403 97.0977 55.9668 96.9023C55.5306 96.7005 55.1921 96.3783 54.9512 95.9355C54.7103 95.4863 54.5898 94.8939 54.5898 94.1582V83.8359ZM65.918 82.7812H71.084C72.1647 82.7812 73.0924 82.944 73.8672 83.2695C74.6419 83.5951 75.2376 84.0768 75.6543 84.7148C76.071 85.3529 76.2793 86.1374 76.2793 87.0684C76.2793 87.804 76.1491 88.4421 75.8887 88.9824C75.6283 89.5228 75.2604 89.9753 74.7852 90.3398C74.3164 90.7044 73.763 90.9909 73.125 91.1992L72.2852 91.6289H67.7246L67.7051 89.5098H71.1133C71.6667 89.5098 72.1257 89.4121 72.4902 89.2168C72.8548 89.0215 73.1283 88.7513 73.3105 88.4062C73.4993 88.0612 73.5938 87.6673 73.5938 87.2246C73.5938 86.7493 73.5026 86.3392 73.3203 85.9941C73.138 85.6426 72.8613 85.3724 72.4902 85.1836C72.1191 84.9948 71.6504 84.9004 71.084 84.9004H68.6035V97H65.918V82.7812ZM73.9453 97L70.6543 90.6328L73.4961 90.623L76.8262 96.8633V97H73.9453ZM84.2578 94.7539V89.8809C84.2578 89.5228 84.196 89.2135 84.0723 88.9531C83.9486 88.6927 83.7598 88.4909 83.5059 88.3477C83.252 88.2044 82.9297 88.1328 82.5391 88.1328C82.194 88.1328 81.8913 88.1914 81.6309 88.3086C81.377 88.4258 81.1816 88.5918 81.0449 88.8066C80.9082 89.015 80.8398 89.2559 80.8398 89.5293H78.252C78.252 89.0931 78.3561 88.6797 78.5645 88.2891C78.7728 87.8919 79.069 87.5404 79.4531 87.2344C79.8438 86.9219 80.3092 86.6777 80.8496 86.502C81.3965 86.3262 82.0085 86.2383 82.6855 86.2383C83.4863 86.2383 84.1992 86.375 84.8242 86.6484C85.4557 86.9154 85.9505 87.319 86.3086 87.8594C86.6732 88.3997 86.8555 89.0801 86.8555 89.9004V94.5098C86.8555 95.0371 86.888 95.4896 86.9531 95.8672C87.0247 96.2383 87.1289 96.5605 87.2656 96.834V97H84.6387C84.515 96.7331 84.4206 96.3945 84.3555 95.9844C84.2904 95.5677 84.2578 95.1576 84.2578 94.7539ZM84.6191 90.5645L84.6387 92.0977H83.0078C82.6042 92.0977 82.2493 92.14 81.9434 92.2246C81.6374 92.3027 81.3867 92.4199 81.1914 92.5762C80.9961 92.7259 80.8496 92.9082 80.752 93.123C80.6543 93.3314 80.6055 93.569 80.6055 93.8359C80.6055 94.0964 80.6641 94.3307 80.7812 94.5391C80.9049 94.7474 81.0807 94.9134 81.3086 95.0371C81.543 95.1543 81.8164 95.2129 82.1289 95.2129C82.5846 95.2129 82.9818 95.1217 83.3203 94.9395C83.6589 94.7507 83.9225 94.5228 84.1113 94.2559C84.3001 93.9889 84.401 93.735 84.4141 93.4941L85.1562 94.6074C85.0651 94.8743 84.9284 95.1576 84.7461 95.457C84.5638 95.7565 84.3294 96.0365 84.043 96.2969C83.7565 96.5573 83.4115 96.7721 83.0078 96.9414C82.6042 97.1107 82.1354 97.1953 81.6016 97.1953C80.918 97.1953 80.306 97.0586 79.7656 96.7852C79.2253 96.5117 78.7988 96.1374 78.4863 95.6621C78.1738 95.1868 78.0176 94.6465 78.0176 94.041C78.0176 93.4811 78.1217 92.9863 78.3301 92.5566C78.5384 92.127 78.8477 91.7656 79.2578 91.4727C79.668 91.1732 80.1758 90.9486 80.7812 90.7988C81.3932 90.6426 82.0931 90.5645 82.8809 90.5645H84.6191ZM94.1797 86.4336V88.2891H88.125V86.4336H94.1797ZM89.7461 83.8359H92.334V93.9531C92.334 94.2656 92.3763 94.5065 92.4609 94.6758C92.5456 94.8451 92.6725 94.959 92.8418 95.0176C93.0111 95.0762 93.2129 95.1055 93.4473 95.1055C93.6165 95.1055 93.7728 95.0957 93.916 95.0762C94.0592 95.0566 94.1797 95.0371 94.2773 95.0176L94.2871 96.9512C94.0723 97.0228 93.8281 97.0814 93.5547 97.127C93.2878 97.1725 92.985 97.1953 92.6465 97.1953C92.0671 97.1953 91.5592 97.0977 91.123 96.9023C90.6868 96.7005 90.3483 96.3783 90.1074 95.9355C89.8665 95.4863 89.7461 94.8939 89.7461 94.1582V83.8359ZM100.645 97.1953C99.8438 97.1953 99.1243 97.0651 98.4863 96.8047C97.8483 96.5443 97.3047 96.1829 96.8555 95.7207C96.4128 95.252 96.071 94.7083 95.8301 94.0898C95.5957 93.4648 95.4785 92.7943 95.4785 92.0781V91.6875C95.4785 90.8737 95.5957 90.1348 95.8301 89.4707C96.0645 88.8001 96.3965 88.224 96.8262 87.7422C97.2559 87.2604 97.7702 86.8893 98.3691 86.6289C98.9681 86.3685 99.6289 86.2383 100.352 86.2383C101.1 86.2383 101.761 86.3652 102.334 86.6191C102.907 86.8665 103.385 87.2181 103.77 87.6738C104.154 88.1296 104.443 88.6764 104.639 89.3145C104.834 89.946 104.932 90.6458 104.932 91.4141V92.498H96.6504V90.7207H102.393V90.5254C102.38 90.1152 102.301 89.7409 102.158 89.4023C102.015 89.0573 101.794 88.7839 101.494 88.582C101.195 88.3737 100.807 88.2695 100.332 88.2695C99.9479 88.2695 99.6126 88.3542 99.3262 88.5234C99.0462 88.6862 98.8118 88.9206 98.623 89.2266C98.4408 89.526 98.304 89.8841 98.2129 90.3008C98.1217 90.7174 98.0762 91.1797 98.0762 91.6875V92.0781C98.0762 92.5208 98.1348 92.931 98.252 93.3086C98.3757 93.6862 98.5547 94.015 98.7891 94.2949C99.0299 94.5684 99.3164 94.7832 99.6484 94.9395C99.987 95.0892 100.371 95.1641 100.801 95.1641C101.341 95.1641 101.829 95.0599 102.266 94.8516C102.708 94.6367 103.092 94.321 103.418 93.9043L104.717 95.252C104.495 95.5775 104.196 95.89 103.818 96.1895C103.447 96.4889 102.998 96.7331 102.471 96.9219C101.943 97.1042 101.335 97.1953 100.645 97.1953Z" fill="black"/>
<defs>
<clipPath id="clip0_6535_50853">
<rect width="64" height="64" fill="white" transform="translate(25.5)"/>
</clipPath>
</defs>
</svg>
