<svg width="78" height="45" viewBox="0 0 78 45" fill="none" xmlns="http://www.w3.org/2000/svg">
<rect width="78" height="45" rx="6" fill="#F9F5FF"/>
<path d="M38.0318 15.0185V16.5H33.448V15.0185H38.0318ZM44.5533 15.0185V16.5H39.9695V15.0185H44.5533ZM21.4173 24.8182V35H19.7767L14.9791 28.0646H14.8946V35H13.0502V24.8182H14.7007L19.4933 31.7585H19.5828V24.8182H21.4173ZM26.6785 35.1491C25.9328 35.1491 25.2865 34.9851 24.7396 34.657C24.1927 34.3288 23.7685 33.8698 23.4669 33.2798C23.1686 32.6899 23.0194 32.0005 23.0194 31.2116C23.0194 30.4228 23.1686 29.7318 23.4669 29.1385C23.7685 28.5452 24.1927 28.0845 24.7396 27.7564C25.2865 27.4283 25.9328 27.2642 26.6785 27.2642C27.4243 27.2642 28.0706 27.4283 28.6175 27.7564C29.1643 28.0845 29.5869 28.5452 29.8852 29.1385C30.1868 29.7318 30.3376 30.4228 30.3376 31.2116C30.3376 32.0005 30.1868 32.6899 29.8852 33.2798C29.5869 33.8698 29.1643 34.3288 28.6175 34.657C28.0706 34.9851 27.4243 35.1491 26.6785 35.1491ZM26.6885 33.7074C27.0928 33.7074 27.4309 33.5964 27.7027 33.3743C27.9745 33.1489 28.1766 32.8473 28.3092 32.4695C28.4451 32.0916 28.5131 31.6707 28.5131 31.2067C28.5131 30.7393 28.4451 30.3168 28.3092 29.9389C28.1766 29.5578 27.9745 29.2545 27.7027 29.0291C27.4309 28.8037 27.0928 28.6911 26.6885 28.6911C26.2742 28.6911 25.9295 28.8037 25.6544 29.0291C25.3826 29.2545 25.1788 29.5578 25.0429 29.9389C24.9103 30.3168 24.844 30.7393 24.844 31.2067C24.844 31.6707 24.9103 32.0916 25.0429 32.4695C25.1788 32.8473 25.3826 33.1489 25.6544 33.3743C25.9295 33.5964 26.2742 33.7074 26.6885 33.7074ZM38.8676 35H35.4173V24.8182H38.9372C39.9481 24.8182 40.8165 25.022 41.5423 25.4297C42.2715 25.834 42.8316 26.4157 43.2227 27.1747C43.6138 27.9337 43.8094 28.8419 43.8094 29.8991C43.8094 30.9598 43.6122 31.8712 43.2178 32.6335C42.8267 33.3958 42.2616 33.9808 41.5225 34.3885C40.7867 34.7962 39.9017 35 38.8676 35ZM37.2618 33.4041H38.7781C39.4874 33.4041 40.079 33.2749 40.553 33.0163C41.027 32.7545 41.3833 32.3651 41.6219 31.848C41.8605 31.3277 41.9798 30.678 41.9798 29.8991C41.9798 29.1203 41.8605 28.474 41.6219 27.9602C41.3833 27.4432 41.0303 27.0571 40.5629 26.8018C40.0989 26.5433 39.5222 26.4141 38.8328 26.4141H37.2618V33.4041ZM47.6798 35.1541C47.1959 35.1541 46.76 35.0679 46.3722 34.8956C45.9878 34.7199 45.6829 34.4614 45.4575 34.12C45.2354 33.7786 45.1244 33.3577 45.1244 32.8572C45.1244 32.4264 45.2039 32.0701 45.363 31.7884C45.5221 31.5066 45.7392 31.2812 46.0143 31.1122C46.2894 30.9432 46.5993 30.8156 46.944 30.7294C47.292 30.6399 47.6516 30.5753 48.0228 30.5355C48.4703 30.4891 48.8332 30.4477 49.1116 30.4112C49.39 30.3714 49.5922 30.3118 49.7181 30.2322C49.8474 30.1494 49.912 30.0218 49.912 29.8494V29.8196C49.912 29.4451 49.801 29.1551 49.5789 28.9496C49.3569 28.7441 49.037 28.6413 48.6194 28.6413C48.1786 28.6413 47.8289 28.7375 47.5704 28.9297C47.3152 29.1219 47.1428 29.349 47.0534 29.6108L45.373 29.3722C45.5055 28.9081 45.7243 28.5204 46.0292 28.2088C46.3341 27.8939 46.707 27.6586 47.1478 27.5028C47.5886 27.3438 48.0758 27.2642 48.6095 27.2642C48.9774 27.2642 49.3436 27.3073 49.7082 27.3935C50.0728 27.4796 50.4059 27.6222 50.7075 27.821C51.0091 28.0166 51.251 28.2834 51.4333 28.6214C51.6189 28.9595 51.7117 29.3821 51.7117 29.8892V35H49.9816V33.951H49.922C49.8126 34.1631 49.6585 34.362 49.4596 34.5476C49.2641 34.7299 49.0171 34.8774 48.7188 34.9901C48.4239 35.0994 48.0775 35.1541 47.6798 35.1541ZM48.1471 33.8317C48.5084 33.8317 48.8216 33.7604 49.0867 33.6179C49.3519 33.4721 49.5557 33.2798 49.6982 33.0412C49.8441 32.8026 49.917 32.5424 49.917 32.2607V31.3608C49.8606 31.4072 49.7645 31.4503 49.6286 31.4901C49.4961 31.5298 49.3469 31.5646 49.1812 31.5945C49.0155 31.6243 48.8514 31.6508 48.689 31.674C48.5266 31.6972 48.3857 31.7171 48.2664 31.7337C47.998 31.7701 47.7577 31.8298 47.5455 31.9126C47.3334 31.9955 47.166 32.1115 47.0434 32.2607C46.9208 32.4065 46.8595 32.5954 46.8595 32.8274C46.8595 33.1589 46.9804 33.4091 47.2224 33.5781C47.4643 33.7472 47.7726 33.8317 48.1471 33.8317ZM57.3346 27.3636V28.7557H52.9447V27.3636H57.3346ZM54.0285 25.5341H55.8282V32.7031C55.8282 32.9451 55.8647 33.1307 55.9376 33.2599C56.0138 33.3859 56.1133 33.4721 56.2359 33.5185C56.3585 33.5649 56.4944 33.5881 56.6436 33.5881C56.7562 33.5881 56.859 33.5798 56.9518 33.5632C57.0479 33.5466 57.1208 33.5317 57.1705 33.5185L57.4738 34.9254C57.3777 34.9586 57.2401 34.995 57.0612 35.0348C56.8855 35.0746 56.6701 35.0978 56.4149 35.1044C55.9641 35.1177 55.5581 35.0497 55.1968 34.9006C54.8356 34.7481 54.5489 34.5128 54.3367 34.1946C54.1279 33.8764 54.0252 33.4787 54.0285 33.0014V25.5341ZM61.0372 35.1541C60.5533 35.1541 60.1175 35.0679 59.7297 34.8956C59.3452 34.7199 59.0403 34.4614 58.8149 34.12C58.5928 33.7786 58.4818 33.3577 58.4818 32.8572C58.4818 32.4264 58.5613 32.0701 58.7204 31.7884C58.8795 31.5066 59.0966 31.2812 59.3717 31.1122C59.6468 30.9432 59.9567 30.8156 60.3014 30.7294C60.6494 30.6399 61.009 30.5753 61.3802 30.5355C61.8277 30.4891 62.1906 30.4477 62.469 30.4112C62.7474 30.3714 62.9496 30.3118 63.0756 30.2322C63.2048 30.1494 63.2694 30.0218 63.2694 29.8494V29.8196C63.2694 29.4451 63.1584 29.1551 62.9363 28.9496C62.7143 28.7441 62.3944 28.6413 61.9768 28.6413C61.536 28.6413 61.1863 28.7375 60.9278 28.9297C60.6726 29.1219 60.5003 29.349 60.4108 29.6108L58.7304 29.3722C58.863 28.9081 59.0817 28.5204 59.3866 28.2088C59.6916 27.8939 60.0644 27.6586 60.5052 27.5028C60.9461 27.3438 61.4333 27.2642 61.9669 27.2642C62.3348 27.2642 62.701 27.3073 63.0656 27.3935C63.4302 27.4796 63.7633 27.6222 64.0649 27.821C64.3665 28.0166 64.6085 28.2834 64.7907 28.6214C64.9764 28.9595 65.0692 29.3821 65.0692 29.8892V35H63.339V33.951H63.2794C63.17 34.1631 63.0159 34.362 62.817 34.5476C62.6215 34.7299 62.3746 34.8774 62.0763 34.9901C61.7813 35.0994 61.4349 35.1541 61.0372 35.1541ZM61.5045 33.8317C61.8658 33.8317 62.179 33.7604 62.4442 33.6179C62.7093 33.4721 62.9131 33.2798 63.0557 33.0412C63.2015 32.8026 63.2744 32.5424 63.2744 32.2607V31.3608C63.2181 31.4072 63.122 31.4503 62.9861 31.4901C62.8535 31.5298 62.7043 31.5646 62.5386 31.5945C62.3729 31.6243 62.2088 31.6508 62.0464 31.674C61.884 31.6972 61.7432 31.7171 61.6238 31.7337C61.3554 31.7701 61.1151 31.8298 60.903 31.9126C60.6908 31.9955 60.5235 32.1115 60.4008 32.2607C60.2782 32.4065 60.2169 32.5954 60.2169 32.8274C60.2169 33.1589 60.3379 33.4091 60.5798 33.5781C60.8218 33.7472 61.13 33.8317 61.5045 33.8317Z" fill="black"/>
</svg>
