<svg width="115" height="132" viewBox="0 0 115 132" fill="none" xmlns="http://www.w3.org/2000/svg">
<path d="M75.6695 45.9747C74.9139 55.3481 67.0677 62.7193 57.4998 62.7193C47.4321 62.7193 39.2705 54.5578 39.2705 44.49V8.84113C39.2705 4.66485 42.6561 1.2793 46.8323 1.2793H68.1672C72.3435 1.2793 75.729 4.66485 75.729 8.84113V39.5747" stroke="black" stroke-width="2.56" stroke-linecap="round" stroke-linejoin="round"/>
<path d="M70.251 8.30664H44.6729V33.8848H70.251V8.30664Z" stroke="black" stroke-width="2.56" stroke-linecap="round" stroke-linejoin="round"/>
<path d="M57.4998 53.4704C60.9132 53.4704 63.6803 50.7033 63.6803 47.2899C63.6803 43.8765 60.9132 41.1094 57.4998 41.1094C54.0864 41.1094 51.3193 43.8765 51.3193 47.2899C51.3193 50.7033 54.0864 53.4704 57.4998 53.4704Z" stroke="black" stroke-width="2.56" stroke-linecap="round" stroke-linejoin="round"/>
<path d="M63.2756 18.3577C63.6567 17.8229 63.978 16.9676 63.978 16.2621C63.978 14.3127 62.3977 12.7324 60.4483 12.7324C59.1903 12.7324 58.0867 13.3911 57.4617 14.3819C56.8366 13.3911 55.733 12.7324 54.475 12.7324C52.5256 12.7324 50.9453 14.3127 50.9453 16.2621C50.9453 17.1985 51.3646 17.8948 51.9057 18.6809C53.1817 20.535 57.4616 24.4075 57.4616 24.4075C57.4616 24.4075 61.8629 20.3406 63.2756 18.3577Z" stroke="black" stroke-width="2.56" stroke-linecap="round" stroke-linejoin="round"/>
<path d="M50.9453 29.4629H63.978" stroke="black" stroke-width="2.56" stroke-linecap="round" stroke-linejoin="round"/>
<path d="M36.8555 89.5293V90.2617C36.8555 91.3359 36.7122 92.3027 36.4258 93.1621C36.1393 94.015 35.7324 94.7409 35.2051 95.3398C34.6777 95.9388 34.0495 96.3978 33.3203 96.7168C32.5911 97.0358 31.7806 97.1953 30.8887 97.1953C30.0098 97.1953 29.2025 97.0358 28.4668 96.7168C27.7376 96.3978 27.1061 95.9388 26.5723 95.3398C26.0384 94.7409 25.625 94.015 25.332 93.1621C25.0391 92.3027 24.8926 91.3359 24.8926 90.2617V89.5293C24.8926 88.4486 25.0391 87.4818 25.332 86.6289C25.625 85.776 26.0352 85.0501 26.5625 84.4512C27.0898 83.8457 27.7181 83.3835 28.4473 83.0645C29.1829 82.7454 29.9902 82.5859 30.8691 82.5859C31.7611 82.5859 32.5716 82.7454 33.3008 83.0645C34.0299 83.3835 34.6582 83.8457 35.1855 84.4512C35.7194 85.0501 36.1296 85.776 36.416 86.6289C36.709 87.4818 36.8555 88.4486 36.8555 89.5293ZM34.1406 90.2617V89.5098C34.1406 88.735 34.069 88.0547 33.9258 87.4688C33.7826 86.8763 33.571 86.3783 33.291 85.9746C33.0111 85.571 32.666 85.2682 32.2559 85.0664C31.8457 84.8581 31.3835 84.7539 30.8691 84.7539C30.3483 84.7539 29.8861 84.8581 29.4824 85.0664C29.0853 85.2682 28.7467 85.571 28.4668 85.9746C28.1868 86.3783 27.972 86.8763 27.8223 87.4688C27.679 88.0547 27.6074 88.735 27.6074 89.5098V90.2617C27.6074 91.0299 27.679 91.7103 27.8223 92.3027C27.972 92.8952 28.1868 93.3965 28.4668 93.8066C28.7533 94.2103 29.0983 94.5163 29.502 94.7246C29.9056 94.9329 30.3678 95.0371 30.8887 95.0371C31.4095 95.0371 31.8717 94.9329 32.2754 94.7246C32.679 94.5163 33.0176 94.2103 33.291 93.8066C33.571 93.3965 33.7826 92.8952 33.9258 92.3027C34.069 91.7103 34.1406 91.0299 34.1406 90.2617ZM40.957 86.4336L42.8418 89.793L44.7559 86.4336H47.5586L44.4531 91.6094L47.6855 97H44.8828L42.8613 93.4746L40.8301 97H38.0273L41.25 91.6094L38.1641 86.4336H40.957ZM52.1484 95.8281L54.9805 86.4336H57.7441L53.5059 98.6016C53.4082 98.862 53.2812 99.1452 53.125 99.4512C52.9753 99.7572 52.7734 100.047 52.5195 100.32C52.2656 100.6 51.9466 100.828 51.5625 101.004C51.1849 101.18 50.7259 101.268 50.1855 101.268C49.9512 101.268 49.7428 101.251 49.5605 101.219C49.3783 101.186 49.1862 101.144 48.9844 101.092V99.1582C49.0495 99.1647 49.1243 99.168 49.209 99.168C49.3001 99.1745 49.3783 99.1777 49.4434 99.1777C49.821 99.1777 50.1335 99.1322 50.3809 99.041C50.6283 98.9564 50.8268 98.8164 50.9766 98.6211C51.1328 98.4323 51.263 98.1849 51.3672 97.8789L52.1484 95.8281ZM50.752 86.4336L53.1445 94.2168L53.5645 96.9414L51.7871 97.2637L47.9688 86.4336H50.752ZM65.5762 86.4336H67.9199V96.6777C67.9199 97.6348 67.7116 98.4453 67.2949 99.1094C66.8848 99.7799 66.3086 100.288 65.5664 100.633C64.8242 100.984 63.9616 101.16 62.9785 101.16C62.5553 101.16 62.0964 101.102 61.6016 100.984C61.1133 100.867 60.6413 100.682 60.1855 100.428C59.7363 100.18 59.362 99.8581 59.0625 99.4609L60.2246 97.9375C60.5762 98.3477 60.9733 98.6569 61.416 98.8652C61.8587 99.0801 62.3372 99.1875 62.8516 99.1875C63.3724 99.1875 63.8151 99.0898 64.1797 98.8945C64.5508 98.7057 64.834 98.4258 65.0293 98.0547C65.2311 97.6901 65.332 97.2409 65.332 96.707V88.8457L65.5762 86.4336ZM58.4375 91.8438V91.6387C58.4375 90.8314 58.5352 90.099 58.7305 89.4414C58.9258 88.7773 59.2057 88.2077 59.5703 87.7324C59.9414 87.2572 60.3874 86.8893 60.9082 86.6289C61.4355 86.3685 62.028 86.2383 62.6855 86.2383C63.3822 86.2383 63.9681 86.3652 64.4434 86.6191C64.9251 86.873 65.3223 87.2344 65.6348 87.7031C65.9538 88.1719 66.2012 88.7285 66.377 89.373C66.5592 90.0111 66.6992 90.7142 66.7969 91.4824V92.0391C66.7057 92.7878 66.5592 93.4746 66.3574 94.0996C66.1621 94.7246 65.9017 95.2715 65.5762 95.7402C65.2507 96.2025 64.847 96.5605 64.3652 96.8145C63.8835 97.0684 63.3171 97.1953 62.666 97.1953C62.015 97.1953 61.429 97.0618 60.9082 96.7949C60.3874 96.528 59.9414 96.1536 59.5703 95.6719C59.2057 95.1901 58.9258 94.6237 58.7305 93.9727C58.5352 93.3216 58.4375 92.612 58.4375 91.8438ZM61.0156 91.6387V91.8438C61.0156 92.2995 61.0612 92.7259 61.1523 93.123C61.2435 93.5202 61.3835 93.8717 61.5723 94.1777C61.7611 94.4772 61.9987 94.7116 62.2852 94.8809C62.5716 95.0501 62.9134 95.1348 63.3105 95.1348C63.8444 95.1348 64.2806 95.0241 64.6191 94.8027C64.9642 94.5749 65.2246 94.2656 65.4004 93.875C65.5827 93.4779 65.6999 93.0319 65.752 92.5371V91.0039C65.7194 90.6133 65.6478 90.252 65.5371 89.9199C65.4329 89.5879 65.2865 89.3014 65.0977 89.0605C64.9089 88.8197 64.668 88.6309 64.375 88.4941C64.082 88.3574 63.7337 88.2891 63.3301 88.2891C62.9395 88.2891 62.5977 88.377 62.3047 88.5527C62.0117 88.722 61.7708 88.9596 61.582 89.2656C61.3932 89.5716 61.25 89.9264 61.1523 90.3301C61.0612 90.7337 61.0156 91.1699 61.0156 91.6387ZM74.9902 97.1953C74.1895 97.1953 73.4701 97.0651 72.832 96.8047C72.194 96.5443 71.6504 96.1829 71.2012 95.7207C70.7585 95.252 70.4167 94.7083 70.1758 94.0898C69.9414 93.4648 69.8242 92.7943 69.8242 92.0781V91.6875C69.8242 90.8737 69.9414 90.1348 70.1758 89.4707C70.4102 88.8001 70.7422 88.224 71.1719 87.7422C71.6016 87.2604 72.1159 86.8893 72.7148 86.6289C73.3138 86.3685 73.9746 86.2383 74.6973 86.2383C75.446 86.2383 76.1068 86.3652 76.6797 86.6191C77.2526 86.8665 77.7311 87.2181 78.1152 87.6738C78.4993 88.1296 78.7891 88.6764 78.9844 89.3145C79.1797 89.946 79.2773 90.6458 79.2773 91.4141V92.498H70.9961V90.7207H76.7383V90.5254C76.7253 90.1152 76.6471 89.7409 76.5039 89.4023C76.3607 89.0573 76.1393 88.7839 75.8398 88.582C75.5404 88.3737 75.153 88.2695 74.6777 88.2695C74.2936 88.2695 73.9583 88.3542 73.6719 88.5234C73.3919 88.6862 73.1576 88.9206 72.9688 89.2266C72.7865 89.526 72.6497 89.8841 72.5586 90.3008C72.4674 90.7174 72.4219 91.1797 72.4219 91.6875V92.0781C72.4219 92.5208 72.4805 92.931 72.5977 93.3086C72.7214 93.6862 72.9004 94.015 73.1348 94.2949C73.3757 94.5684 73.6621 94.7832 73.9941 94.9395C74.3327 95.0892 74.7168 95.1641 75.1465 95.1641C75.6868 95.1641 76.1751 95.0599 76.6113 94.8516C77.054 94.6367 77.4382 94.321 77.7637 93.9043L79.0625 95.252C78.8411 95.5775 78.5417 95.89 78.1641 96.1895C77.793 96.4889 77.3438 96.7331 76.8164 96.9219C76.2891 97.1042 75.6803 97.1953 74.9902 97.1953ZM83.5352 88.6895V97H80.957V86.4336H83.3789L83.5352 88.6895ZM83.125 91.3359H82.3633C82.3698 90.5677 82.474 89.8711 82.6758 89.2461C82.8776 88.6211 83.1608 88.084 83.5254 87.6348C83.8965 87.1855 84.3359 86.8405 84.8438 86.5996C85.3516 86.3587 85.918 86.2383 86.543 86.2383C87.0508 86.2383 87.5098 86.3099 87.9199 86.4531C88.3301 86.5964 88.6816 86.8242 88.9746 87.1367C89.2741 87.4492 89.502 87.8594 89.6582 88.3672C89.821 88.8685 89.9023 89.487 89.9023 90.2227V97H87.3047V90.2031C87.3047 89.7214 87.2331 89.3405 87.0898 89.0605C86.9531 88.7806 86.7513 88.582 86.4844 88.4648C86.224 88.3477 85.9017 88.2891 85.5176 88.2891C85.1204 88.2891 84.7721 88.3704 84.4727 88.5332C84.1797 88.6895 83.9323 88.9076 83.7305 89.1875C83.5352 89.4674 83.3854 89.7897 83.2812 90.1543C83.1771 90.5189 83.125 90.9128 83.125 91.3359ZM19.8633 121.309C19.8633 121.035 19.821 120.791 19.7363 120.576C19.6582 120.355 19.5117 120.156 19.2969 119.98C19.0885 119.798 18.7923 119.622 18.4082 119.453C18.0306 119.277 17.5423 119.095 16.9434 118.906C16.2793 118.698 15.6608 118.464 15.0879 118.203C14.515 117.943 14.0104 117.64 13.5742 117.295C13.1445 116.95 12.8092 116.553 12.5684 116.104C12.3275 115.648 12.207 115.12 12.207 114.521C12.207 113.936 12.3307 113.402 12.5781 112.92C12.832 112.438 13.1901 112.025 13.6523 111.68C14.1146 111.328 14.6582 111.058 15.2832 110.869C15.9147 110.68 16.6113 110.586 17.373 110.586C18.4277 110.586 19.3392 110.778 20.1074 111.162C20.8822 111.546 21.4811 112.067 21.9043 112.725C22.3275 113.382 22.5391 114.121 22.5391 114.941H19.8633C19.8633 114.499 19.7689 114.108 19.5801 113.77C19.3978 113.431 19.1178 113.164 18.7402 112.969C18.3691 112.773 17.9004 112.676 17.334 112.676C16.7871 112.676 16.3314 112.757 15.9668 112.92C15.6087 113.083 15.3385 113.304 15.1562 113.584C14.9805 113.864 14.8926 114.176 14.8926 114.521C14.8926 114.782 14.9544 115.016 15.0781 115.225C15.2018 115.426 15.3874 115.618 15.6348 115.801C15.8822 115.977 16.1882 116.143 16.5527 116.299C16.9238 116.449 17.3535 116.598 17.8418 116.748C18.623 116.982 19.3066 117.243 19.8926 117.529C20.485 117.816 20.9766 118.141 21.3672 118.506C21.7643 118.87 22.0605 119.281 22.2559 119.736C22.4577 120.192 22.5586 120.71 22.5586 121.289C22.5586 121.901 22.4382 122.448 22.1973 122.93C21.9564 123.411 21.6113 123.822 21.1621 124.16C20.7129 124.499 20.1725 124.756 19.541 124.932C18.916 125.107 18.2161 125.195 17.4414 125.195C16.7513 125.195 16.0677 125.104 15.3906 124.922C14.7201 124.733 14.1113 124.453 13.5645 124.082C13.0176 123.704 12.5814 123.229 12.2559 122.656C11.9303 122.077 11.7676 121.4 11.7676 120.625H14.4629C14.4629 121.074 14.5345 121.458 14.6777 121.777C14.8275 122.09 15.0358 122.347 15.3027 122.549C15.5762 122.744 15.8952 122.887 16.2598 122.979C16.6243 123.07 17.0182 123.115 17.4414 123.115C17.9883 123.115 18.4375 123.04 18.7891 122.891C19.1471 122.734 19.4141 122.52 19.5898 122.246C19.7721 121.973 19.8633 121.66 19.8633 121.309ZM30.2539 122.754V117.881C30.2539 117.523 30.1921 117.214 30.0684 116.953C29.9447 116.693 29.7559 116.491 29.502 116.348C29.248 116.204 28.9258 116.133 28.5352 116.133C28.1901 116.133 27.8874 116.191 27.627 116.309C27.373 116.426 27.1777 116.592 27.041 116.807C26.9043 117.015 26.8359 117.256 26.8359 117.529H24.248C24.248 117.093 24.3522 116.68 24.5605 116.289C24.7689 115.892 25.0651 115.54 25.4492 115.234C25.8398 114.922 26.3053 114.678 26.8457 114.502C27.3926 114.326 28.0046 114.238 28.6816 114.238C29.4824 114.238 30.1953 114.375 30.8203 114.648C31.4518 114.915 31.9466 115.319 32.3047 115.859C32.6693 116.4 32.8516 117.08 32.8516 117.9V122.51C32.8516 123.037 32.8841 123.49 32.9492 123.867C33.0208 124.238 33.125 124.561 33.2617 124.834V125H30.6348C30.5111 124.733 30.4167 124.395 30.3516 123.984C30.2865 123.568 30.2539 123.158 30.2539 122.754ZM30.6152 118.564L30.6348 120.098H29.0039C28.6003 120.098 28.2454 120.14 27.9395 120.225C27.6335 120.303 27.3828 120.42 27.1875 120.576C26.9922 120.726 26.8457 120.908 26.748 121.123C26.6504 121.331 26.6016 121.569 26.6016 121.836C26.6016 122.096 26.6602 122.331 26.7773 122.539C26.901 122.747 27.0768 122.913 27.3047 123.037C27.5391 123.154 27.8125 123.213 28.125 123.213C28.5807 123.213 28.9779 123.122 29.3164 122.939C29.6549 122.751 29.9186 122.523 30.1074 122.256C30.2962 121.989 30.3971 121.735 30.4102 121.494L31.1523 122.607C31.0612 122.874 30.9245 123.158 30.7422 123.457C30.5599 123.757 30.3255 124.036 30.0391 124.297C29.7526 124.557 29.4076 124.772 29.0039 124.941C28.6003 125.111 28.1315 125.195 27.5977 125.195C26.9141 125.195 26.3021 125.059 25.7617 124.785C25.2214 124.512 24.7949 124.137 24.4824 123.662C24.1699 123.187 24.0137 122.646 24.0137 122.041C24.0137 121.481 24.1178 120.986 24.3262 120.557C24.5345 120.127 24.8438 119.766 25.2539 119.473C25.6641 119.173 26.1719 118.949 26.7773 118.799C27.3893 118.643 28.0892 118.564 28.877 118.564H30.6152ZM40.1758 114.434V116.289H34.1211V114.434H40.1758ZM35.7422 111.836H38.3301V121.953C38.3301 122.266 38.3724 122.507 38.457 122.676C38.5417 122.845 38.6686 122.959 38.8379 123.018C39.0072 123.076 39.209 123.105 39.4434 123.105C39.6126 123.105 39.7689 123.096 39.9121 123.076C40.0553 123.057 40.1758 123.037 40.2734 123.018L40.2832 124.951C40.0684 125.023 39.8242 125.081 39.5508 125.127C39.2839 125.173 38.9811 125.195 38.6426 125.195C38.0632 125.195 37.5553 125.098 37.1191 124.902C36.6829 124.701 36.3444 124.378 36.1035 123.936C35.8626 123.486 35.7422 122.894 35.7422 122.158V111.836ZM48.1836 122.49V114.434H50.7812V125H48.3398L48.1836 122.49ZM48.5156 120.303L49.3164 120.283C49.3164 120.993 49.2383 121.647 49.082 122.246C48.9258 122.845 48.6816 123.366 48.3496 123.809C48.0241 124.245 47.6107 124.587 47.1094 124.834C46.6081 125.075 46.0156 125.195 45.332 125.195C44.8112 125.195 44.3359 125.124 43.9062 124.98C43.4766 124.831 43.1055 124.6 42.793 124.287C42.487 123.968 42.2493 123.561 42.0801 123.066C41.9108 122.565 41.8262 121.963 41.8262 121.26V114.434H44.4043V121.279C44.4043 121.631 44.4434 121.924 44.5215 122.158C44.6061 122.393 44.7201 122.585 44.8633 122.734C45.013 122.878 45.1855 122.982 45.3809 123.047C45.5827 123.105 45.7975 123.135 46.0254 123.135C46.6504 123.135 47.1419 123.011 47.5 122.764C47.8646 122.51 48.125 122.171 48.2812 121.748C48.4375 121.318 48.5156 120.837 48.5156 120.303ZM55.6445 116.592V125H53.0664V114.434H55.5078L55.6445 116.592ZM58.8574 114.365L58.8184 116.768C58.6751 116.742 58.5124 116.722 58.3301 116.709C58.1543 116.696 57.9883 116.689 57.832 116.689C57.4349 116.689 57.0866 116.745 56.7871 116.855C56.4876 116.96 56.237 117.113 56.0352 117.314C55.8398 117.516 55.6901 117.764 55.5859 118.057C55.4818 118.343 55.4232 118.669 55.4102 119.033L54.8535 118.965C54.8535 118.294 54.9219 117.673 55.0586 117.1C55.1953 116.527 55.3939 116.025 55.6543 115.596C55.9147 115.166 56.2402 114.834 56.6309 114.6C57.028 114.359 57.4837 114.238 57.998 114.238C58.1413 114.238 58.2943 114.251 58.457 114.277C58.6263 114.297 58.7598 114.326 58.8574 114.365ZM65.7617 122.754V117.881C65.7617 117.523 65.6999 117.214 65.5762 116.953C65.4525 116.693 65.2637 116.491 65.0098 116.348C64.7559 116.204 64.4336 116.133 64.043 116.133C63.6979 116.133 63.3952 116.191 63.1348 116.309C62.8809 116.426 62.6855 116.592 62.5488 116.807C62.4121 117.015 62.3438 117.256 62.3438 117.529H59.7559C59.7559 117.093 59.86 116.68 60.0684 116.289C60.2767 115.892 60.5729 115.54 60.957 115.234C61.3477 114.922 61.8132 114.678 62.3535 114.502C62.9004 114.326 63.5124 114.238 64.1895 114.238C64.9902 114.238 65.7031 114.375 66.3281 114.648C66.9596 114.915 67.4544 115.319 67.8125 115.859C68.1771 116.4 68.3594 117.08 68.3594 117.9V122.51C68.3594 123.037 68.3919 123.49 68.457 123.867C68.5286 124.238 68.6328 124.561 68.7695 124.834V125H66.1426C66.0189 124.733 65.9245 124.395 65.8594 123.984C65.7943 123.568 65.7617 123.158 65.7617 122.754ZM66.123 118.564L66.1426 120.098H64.5117C64.1081 120.098 63.7533 120.14 63.4473 120.225C63.1413 120.303 62.8906 120.42 62.6953 120.576C62.5 120.726 62.3535 120.908 62.2559 121.123C62.1582 121.331 62.1094 121.569 62.1094 121.836C62.1094 122.096 62.168 122.331 62.2852 122.539C62.4089 122.747 62.5846 122.913 62.8125 123.037C63.0469 123.154 63.3203 123.213 63.6328 123.213C64.0885 123.213 64.4857 123.122 64.8242 122.939C65.1628 122.751 65.4264 122.523 65.6152 122.256C65.804 121.989 65.9049 121.735 65.918 121.494L66.6602 122.607C66.569 122.874 66.4323 123.158 66.25 123.457C66.0677 123.757 65.8333 124.036 65.5469 124.297C65.2604 124.557 64.9154 124.772 64.5117 124.941C64.1081 125.111 63.6393 125.195 63.1055 125.195C62.4219 125.195 61.8099 125.059 61.2695 124.785C60.7292 124.512 60.3027 124.137 59.9902 123.662C59.6777 123.187 59.5215 122.646 59.5215 122.041C59.5215 121.481 59.6257 120.986 59.834 120.557C60.0423 120.127 60.3516 119.766 60.7617 119.473C61.1719 119.173 61.6797 118.949 62.2852 118.799C62.8971 118.643 63.597 118.564 64.3848 118.564H66.123ZM75.6836 114.434V116.289H69.6289V114.434H75.6836ZM71.25 111.836H73.8379V121.953C73.8379 122.266 73.8802 122.507 73.9648 122.676C74.0495 122.845 74.1764 122.959 74.3457 123.018C74.515 123.076 74.7168 123.105 74.9512 123.105C75.1204 123.105 75.2767 123.096 75.4199 123.076C75.5632 123.057 75.6836 123.037 75.7812 123.018L75.791 124.951C75.5762 125.023 75.332 125.081 75.0586 125.127C74.7917 125.173 74.4889 125.195 74.1504 125.195C73.571 125.195 73.0632 125.098 72.627 124.902C72.1908 124.701 71.8522 124.378 71.6113 123.936C71.3704 123.486 71.25 122.894 71.25 122.158V111.836ZM80.1367 114.434V125H77.5488V114.434H80.1367ZM77.373 111.67C77.373 111.286 77.5033 110.967 77.7637 110.713C78.0306 110.459 78.3887 110.332 78.8379 110.332C79.2871 110.332 79.6419 110.459 79.9023 110.713C80.1693 110.967 80.3027 111.286 80.3027 111.67C80.3027 112.048 80.1693 112.363 79.9023 112.617C79.6419 112.871 79.2871 112.998 78.8379 112.998C78.3887 112.998 78.0306 112.871 77.7637 112.617C77.5033 112.363 77.373 112.048 77.373 111.67ZM82.1387 119.824V119.619C82.1387 118.844 82.2493 118.132 82.4707 117.48C82.6921 116.823 83.0143 116.253 83.4375 115.771C83.8607 115.29 84.3783 114.915 84.9902 114.648C85.6022 114.375 86.2988 114.238 87.0801 114.238C87.8743 114.238 88.5775 114.375 89.1895 114.648C89.8079 114.915 90.3288 115.29 90.752 115.771C91.1751 116.253 91.4974 116.823 91.7188 117.48C91.9401 118.132 92.0508 118.844 92.0508 119.619V119.824C92.0508 120.592 91.9401 121.305 91.7188 121.963C91.4974 122.614 91.1751 123.184 90.752 123.672C90.3288 124.154 89.8112 124.528 89.1992 124.795C88.5872 125.062 87.8874 125.195 87.0996 125.195C86.3184 125.195 85.6185 125.062 85 124.795C84.3815 124.528 83.8607 124.154 83.4375 123.672C83.0143 123.184 82.6921 122.614 82.4707 121.963C82.2493 121.305 82.1387 120.592 82.1387 119.824ZM84.7168 119.619V119.824C84.7168 120.286 84.7624 120.719 84.8535 121.123C84.9447 121.527 85.0846 121.882 85.2734 122.188C85.4622 122.493 85.7064 122.734 86.0059 122.91C86.3118 123.079 86.6764 123.164 87.0996 123.164C87.5163 123.164 87.8743 123.079 88.1738 122.91C88.4733 122.734 88.7174 122.493 88.9062 122.188C89.1016 121.882 89.2448 121.527 89.3359 121.123C89.4271 120.719 89.4727 120.286 89.4727 119.824V119.619C89.4727 119.163 89.4271 118.737 89.3359 118.34C89.2448 117.936 89.1016 117.581 88.9062 117.275C88.7174 116.963 88.4701 116.719 88.1641 116.543C87.8646 116.361 87.5033 116.27 87.0801 116.27C86.6634 116.27 86.3053 116.361 86.0059 116.543C85.7064 116.719 85.4622 116.963 85.2734 117.275C85.0846 117.581 84.9447 117.936 84.8535 118.34C84.7624 118.737 84.7168 119.163 84.7168 119.619ZM96.4551 116.689V125H93.877V114.434H96.2988L96.4551 116.689ZM96.0449 119.336H95.2832C95.2897 118.568 95.3939 117.871 95.5957 117.246C95.7975 116.621 96.0807 116.084 96.4453 115.635C96.8164 115.186 97.2559 114.84 97.7637 114.6C98.2715 114.359 98.8379 114.238 99.4629 114.238C99.9707 114.238 100.43 114.31 100.84 114.453C101.25 114.596 101.602 114.824 101.895 115.137C102.194 115.449 102.422 115.859 102.578 116.367C102.741 116.868 102.822 117.487 102.822 118.223V125H100.225V118.203C100.225 117.721 100.153 117.34 100.01 117.061C99.873 116.781 99.6712 116.582 99.4043 116.465C99.1439 116.348 98.8216 116.289 98.4375 116.289C98.0404 116.289 97.6921 116.37 97.3926 116.533C97.0996 116.689 96.8522 116.908 96.6504 117.188C96.4551 117.467 96.3053 117.79 96.2012 118.154C96.097 118.519 96.0449 118.913 96.0449 119.336Z" fill="black"/>
</svg>
