<svg width="115" height="132" viewBox="0 0 115 132" fill="none" xmlns="http://www.w3.org/2000/svg">
<path d="M52.3974 23.6141C51.7507 20.3989 50.2539 17.2739 46.8499 17.2734C38.886 17.2722 22.7432 47.2062 30.6499 60.8137C33.781 66.2023 45.2563 59.0558 50.4296 53.1534C53.1615 50.0364 53.169 42.7647 53.1614 39.1872C53.1474 32.5759 52.817 25.7004 52.3974 23.6141Z" stroke="black" stroke-width="2.56" stroke-linecap="round" stroke-linejoin="round"/>
<path d="M52.6216 27.6465C52.6216 27.6465 44.1717 33.0311 42.1922 42.9575C40.7863 50.0072 33.4902 53.0914 33.4902 53.0914" stroke="black" stroke-width="2.56" stroke-linecap="round" stroke-linejoin="round"/>
<path d="M45.6267 34.8015C40.9928 33.6127 36.1338 38.3861 36.1338 38.3861" stroke="black" stroke-width="2.56" stroke-linecap="round" stroke-linejoin="round"/>
<path d="M39.1216 30.6738C39.1216 30.6738 43.3142 31.8584 45.1233 34.612" stroke="black" stroke-width="2.56" stroke-linecap="round" stroke-linejoin="round"/>
<path d="M42.8804 40.3691C42.8804 40.3691 43.487 44.7477 46.3785 48.3" stroke="black" stroke-width="2.56" stroke-linecap="round" stroke-linejoin="round"/>
<path d="M32.9121 46.0695C32.9121 46.0695 37.9791 42.1591 42.0189 43.699" stroke="black" stroke-width="2.56" stroke-linecap="round" stroke-linejoin="round"/>
<path d="M65.9872 54.6471C65.477 54.1458 65.0021 53.6453 64.5709 53.1534C61.839 50.0364 61.8315 42.7647 61.8391 39.1872C61.8531 32.5759 62.1835 25.7004 62.6031 23.6141C63.2498 20.3989 64.7466 17.2739 68.1506 17.2734C76.1145 17.2722 92.2573 47.2062 84.3506 60.8137C82.2141 64.4907 76.1922 62.3311 70.9386 58.7128" stroke="black" stroke-width="2.56" stroke-linecap="round" stroke-linejoin="round"/>
<path d="M62.3789 27.6465C62.3789 27.6465 70.8288 33.0311 72.8083 42.9575C74.2142 50.0072 81.5103 53.0914 81.5103 53.0914" stroke="black" stroke-width="2.56" stroke-linecap="round" stroke-linejoin="round"/>
<path d="M69.374 34.8015C74.008 33.6127 78.867 38.3861 78.867 38.3861" stroke="black" stroke-width="2.56" stroke-linecap="round" stroke-linejoin="round"/>
<path d="M75.8792 30.6738C75.8792 30.6738 71.6865 31.8584 69.8774 34.612" stroke="black" stroke-width="2.56" stroke-linecap="round" stroke-linejoin="round"/>
<path d="M72.1207 40.3691C72.1207 40.3691 71.514 44.7477 68.6226 48.3" stroke="black" stroke-width="2.56" stroke-linecap="round" stroke-linejoin="round"/>
<path d="M82.0882 46.0695C82.0882 46.0695 77.0213 42.1591 72.9814 43.699" stroke="black" stroke-width="2.56" stroke-linecap="round" stroke-linejoin="round"/>
<path d="M62.3789 23.3994L59.7075 20.4332C59.155 19.8198 58.3488 19.4668 57.5002 19.4668C56.6517 19.4668 55.8454 19.8198 55.2929 20.4332L52.6216 23.3994" stroke="black" stroke-width="2.56" stroke-linecap="round" stroke-linejoin="round"/>
<path d="M50.7202 18.2695L53.7212 14.43C54.548 13.1618 54.9882 11.6806 54.9882 10.1668V1.2793" stroke="black" stroke-width="2.56" stroke-linecap="round" stroke-linejoin="round"/>
<path d="M60.0127 1.2793V10.1668C60.0127 11.6806 60.4529 13.1618 61.2797 14.43L64.2807 18.2695" stroke="black" stroke-width="2.56" stroke-linecap="round" stroke-linejoin="round"/>
<path d="M7.38281 82.7812H12.5488C13.6296 82.7812 14.5573 82.944 15.332 83.2695C16.1068 83.5951 16.7025 84.0768 17.1191 84.7148C17.5358 85.3529 17.7441 86.1374 17.7441 87.0684C17.7441 87.804 17.6139 88.4421 17.3535 88.9824C17.0931 89.5228 16.7253 89.9753 16.25 90.3398C15.7812 90.7044 15.2279 90.9909 14.5898 91.1992L13.75 91.6289H9.18945L9.16992 89.5098H12.5781C13.1315 89.5098 13.5905 89.4121 13.9551 89.2168C14.3197 89.0215 14.5931 88.7513 14.7754 88.4062C14.9642 88.0612 15.0586 87.6673 15.0586 87.2246C15.0586 86.7493 14.9674 86.3392 14.7852 85.9941C14.6029 85.6426 14.3262 85.3724 13.9551 85.1836C13.584 84.9948 13.1152 84.9004 12.5488 84.9004H10.0684V97H7.38281V82.7812ZM15.4102 97L12.1191 90.6328L14.9609 90.623L18.291 96.8633V97H15.4102ZM24.6484 97.1953C23.8477 97.1953 23.1283 97.0651 22.4902 96.8047C21.8522 96.5443 21.3086 96.1829 20.8594 95.7207C20.4167 95.252 20.0749 94.7083 19.834 94.0898C19.5996 93.4648 19.4824 92.7943 19.4824 92.0781V91.6875C19.4824 90.8737 19.5996 90.1348 19.834 89.4707C20.0684 88.8001 20.4004 88.224 20.8301 87.7422C21.2598 87.2604 21.7741 86.8893 22.373 86.6289C22.972 86.3685 23.6328 86.2383 24.3555 86.2383C25.1042 86.2383 25.765 86.3652 26.3379 86.6191C26.9108 86.8665 27.3893 87.2181 27.7734 87.6738C28.1576 88.1296 28.4473 88.6764 28.6426 89.3145C28.8379 89.946 28.9355 90.6458 28.9355 91.4141V92.498H20.6543V90.7207H26.3965V90.5254C26.3835 90.1152 26.3053 89.7409 26.1621 89.4023C26.0189 89.0573 25.7975 88.7839 25.498 88.582C25.1986 88.3737 24.8112 88.2695 24.3359 88.2695C23.9518 88.2695 23.6165 88.3542 23.3301 88.5234C23.0501 88.6862 22.8158 88.9206 22.627 89.2266C22.4447 89.526 22.3079 89.8841 22.2168 90.3008C22.1257 90.7174 22.0801 91.1797 22.0801 91.6875V92.0781C22.0801 92.5208 22.1387 92.931 22.2559 93.3086C22.3796 93.6862 22.5586 94.015 22.793 94.2949C23.0339 94.5684 23.3203 94.7832 23.6523 94.9395C23.9909 95.0892 24.375 95.1641 24.8047 95.1641C25.3451 95.1641 25.8333 95.0599 26.2695 94.8516C26.7122 94.6367 27.0964 94.321 27.4219 93.9043L28.7207 95.252C28.4993 95.5775 28.1999 95.89 27.8223 96.1895C27.4512 96.4889 27.002 96.7331 26.4746 96.9219C25.9473 97.1042 25.3385 97.1953 24.6484 97.1953ZM36.4746 94.1094C36.4746 93.888 36.416 93.6895 36.2988 93.5137C36.1816 93.3379 35.9603 93.1784 35.6348 93.0352C35.3158 92.8854 34.847 92.7454 34.2285 92.6152C33.6816 92.498 33.1771 92.3516 32.7148 92.1758C32.2526 92 31.8555 91.7884 31.5234 91.541C31.1914 91.2871 30.931 90.9909 30.7422 90.6523C30.5599 90.3073 30.4688 89.9102 30.4688 89.4609C30.4688 89.0247 30.5632 88.6146 30.752 88.2305C30.9408 87.8398 31.2142 87.498 31.5723 87.2051C31.9303 86.9056 32.3665 86.6712 32.8809 86.502C33.3952 86.3262 33.9746 86.2383 34.6191 86.2383C35.5176 86.2383 36.2891 86.3848 36.9336 86.6777C37.5846 86.9707 38.0827 87.3743 38.4277 87.8887C38.7728 88.3965 38.9453 88.9694 38.9453 89.6074H36.3672C36.3672 89.3275 36.3021 89.0736 36.1719 88.8457C36.0482 88.6178 35.8561 88.4355 35.5957 88.2988C35.3353 88.1556 35.0065 88.084 34.6094 88.084C34.2513 88.084 33.9486 88.1426 33.7012 88.2598C33.4603 88.377 33.278 88.5299 33.1543 88.7188C33.0306 88.9076 32.9688 89.1159 32.9688 89.3438C32.9688 89.513 33.0013 89.666 33.0664 89.8027C33.138 89.9329 33.252 90.0534 33.4082 90.1641C33.5645 90.2747 33.776 90.3757 34.043 90.4668C34.3164 90.5579 34.6517 90.6458 35.0488 90.7305C35.8366 90.8867 36.5234 91.0951 37.1094 91.3555C37.7018 91.6094 38.1641 91.9479 38.4961 92.3711C38.8281 92.7943 38.9941 93.3346 38.9941 93.9922C38.9941 94.4609 38.8932 94.8906 38.6914 95.2812C38.4896 95.6654 38.1966 96.0007 37.8125 96.2871C37.4284 96.5736 36.9694 96.7982 36.4355 96.9609C35.9017 97.1172 35.2995 97.1953 34.6289 97.1953C33.6589 97.1953 32.8385 97.0228 32.168 96.6777C31.4974 96.3262 30.9896 95.8835 30.6445 95.3496C30.2995 94.8092 30.127 94.2493 30.127 93.6699H32.5977C32.6172 94.0801 32.7279 94.4089 32.9297 94.6562C33.1315 94.9036 33.3854 95.0827 33.6914 95.1934C34.0039 95.2975 34.3327 95.3496 34.6777 95.3496C35.0684 95.3496 35.3971 95.2975 35.6641 95.1934C35.931 95.0827 36.1328 94.9362 36.2695 94.7539C36.4062 94.5651 36.4746 94.3503 36.4746 94.1094ZM43.5352 88.4648V101.062H40.9473V86.4336H43.3398L43.5352 88.4648ZM50.3223 91.6094V91.8145C50.3223 92.5827 50.2311 93.2956 50.0488 93.9531C49.873 94.6042 49.6126 95.1738 49.2676 95.6621C48.9225 96.1439 48.4928 96.5215 47.9785 96.7949C47.4707 97.0618 46.8848 97.1953 46.2207 97.1953C45.5697 97.1953 45.0033 97.0716 44.5215 96.8242C44.0397 96.5703 43.6328 96.2122 43.3008 95.75C42.9688 95.2878 42.7018 94.7507 42.5 94.1387C42.3047 93.5202 42.1582 92.8464 42.0605 92.1172V91.4629C42.1582 90.6882 42.3047 89.985 42.5 89.3535C42.7018 88.7155 42.9688 88.1654 43.3008 87.7031C43.6328 87.2344 44.0365 86.873 44.5117 86.6191C44.9935 86.3652 45.5566 86.2383 46.2012 86.2383C46.8717 86.2383 47.4609 86.3652 47.9688 86.6191C48.4831 86.873 48.916 87.2376 49.2676 87.7129C49.6191 88.1882 49.8828 88.7546 50.0586 89.4121C50.2344 90.0697 50.3223 90.8021 50.3223 91.6094ZM47.7344 91.8145V91.6094C47.7344 91.1406 47.6921 90.7077 47.6074 90.3105C47.5228 89.9069 47.3926 89.5553 47.2168 89.2559C47.041 88.9499 46.8132 88.7122 46.5332 88.543C46.2533 88.3737 45.9147 88.2891 45.5176 88.2891C45.1204 88.2891 44.7786 88.3542 44.4922 88.4844C44.2057 88.6146 43.9714 88.8001 43.7891 89.041C43.6068 89.2819 43.4635 89.5684 43.3594 89.9004C43.2617 90.2259 43.1966 90.5872 43.1641 90.9844V92.6055C43.2227 93.0872 43.3366 93.5202 43.5059 93.9043C43.6751 94.2884 43.9225 94.5944 44.248 94.8223C44.5801 95.0501 45.0098 95.1641 45.5371 95.1641C45.9342 95.1641 46.2728 95.0762 46.5527 94.9004C46.8327 94.7246 47.0605 94.4837 47.2363 94.1777C47.4121 93.8652 47.5391 93.5072 47.6172 93.1035C47.6953 92.6999 47.7344 92.2702 47.7344 91.8145ZM54.9414 86.4336V97H52.3535V86.4336H54.9414ZM52.1777 83.6699C52.1777 83.2858 52.3079 82.9668 52.5684 82.7129C52.8353 82.459 53.1934 82.332 53.6426 82.332C54.0918 82.332 54.4466 82.459 54.707 82.7129C54.974 82.9668 55.1074 83.2858 55.1074 83.6699C55.1074 84.0475 54.974 84.3633 54.707 84.6172C54.4466 84.8711 54.0918 84.998 53.6426 84.998C53.1934 84.998 52.8353 84.8711 52.5684 84.6172C52.3079 84.3633 52.1777 84.0475 52.1777 83.6699ZM59.9805 88.5918V97H57.4023V86.4336H59.8438L59.9805 88.5918ZM63.1934 86.3652L63.1543 88.7676C63.0111 88.7415 62.8483 88.722 62.666 88.709C62.4902 88.696 62.3242 88.6895 62.168 88.6895C61.7708 88.6895 61.4225 88.7448 61.123 88.8555C60.8236 88.9596 60.5729 89.1126 60.3711 89.3145C60.1758 89.5163 60.026 89.7637 59.9219 90.0566C59.8177 90.3431 59.7591 90.6686 59.7461 91.0332L59.1895 90.9648C59.1895 90.2943 59.2578 89.6725 59.3945 89.0996C59.5312 88.5267 59.7298 88.0254 59.9902 87.5957C60.2507 87.166 60.5762 86.834 60.9668 86.5996C61.3639 86.3587 61.8197 86.2383 62.334 86.2383C62.4772 86.2383 62.6302 86.2513 62.793 86.2773C62.9622 86.2969 63.0957 86.3262 63.1934 86.3652ZM70.0977 94.7539V89.8809C70.0977 89.5228 70.0358 89.2135 69.9121 88.9531C69.7884 88.6927 69.5996 88.4909 69.3457 88.3477C69.0918 88.2044 68.7695 88.1328 68.3789 88.1328C68.0339 88.1328 67.7311 88.1914 67.4707 88.3086C67.2168 88.4258 67.0215 88.5918 66.8848 88.8066C66.748 89.015 66.6797 89.2559 66.6797 89.5293H64.0918C64.0918 89.0931 64.196 88.6797 64.4043 88.2891C64.6126 87.8919 64.9089 87.5404 65.293 87.2344C65.6836 86.9219 66.1491 86.6777 66.6895 86.502C67.2363 86.3262 67.8483 86.2383 68.5254 86.2383C69.3262 86.2383 70.0391 86.375 70.6641 86.6484C71.2956 86.9154 71.7904 87.319 72.1484 87.8594C72.513 88.3997 72.6953 89.0801 72.6953 89.9004V94.5098C72.6953 95.0371 72.7279 95.4896 72.793 95.8672C72.8646 96.2383 72.9688 96.5605 73.1055 96.834V97H70.4785C70.3548 96.7331 70.2604 96.3945 70.1953 95.9844C70.1302 95.5677 70.0977 95.1576 70.0977 94.7539ZM70.459 90.5645L70.4785 92.0977H68.8477C68.444 92.0977 68.0892 92.14 67.7832 92.2246C67.4772 92.3027 67.2266 92.4199 67.0312 92.5762C66.8359 92.7259 66.6895 92.9082 66.5918 93.123C66.4941 93.3314 66.4453 93.569 66.4453 93.8359C66.4453 94.0964 66.5039 94.3307 66.6211 94.5391C66.7448 94.7474 66.9206 94.9134 67.1484 95.0371C67.3828 95.1543 67.6562 95.2129 67.9688 95.2129C68.4245 95.2129 68.8216 95.1217 69.1602 94.9395C69.4987 94.7507 69.7624 94.5228 69.9512 94.2559C70.14 93.9889 70.2409 93.735 70.2539 93.4941L70.9961 94.6074C70.9049 94.8743 70.7682 95.1576 70.5859 95.457C70.4036 95.7565 70.1693 96.0365 69.8828 96.2969C69.5964 96.5573 69.2513 96.7721 68.8477 96.9414C68.444 97.1107 67.9753 97.1953 67.4414 97.1953C66.7578 97.1953 66.1458 97.0586 65.6055 96.7852C65.0651 96.5117 64.6387 96.1374 64.3262 95.6621C64.0137 95.1868 63.8574 94.6465 63.8574 94.041C63.8574 93.4811 63.9616 92.9863 64.1699 92.5566C64.3783 92.127 64.6875 91.7656 65.0977 91.4727C65.5078 91.1732 66.0156 90.9486 66.6211 90.7988C67.2331 90.6426 67.9329 90.5645 68.7207 90.5645H70.459ZM80.0195 86.4336V88.2891H73.9648V86.4336H80.0195ZM75.5859 83.8359H78.1738V93.9531C78.1738 94.2656 78.2161 94.5065 78.3008 94.6758C78.3854 94.8451 78.5124 94.959 78.6816 95.0176C78.8509 95.0762 79.0527 95.1055 79.2871 95.1055C79.4564 95.1055 79.6126 95.0957 79.7559 95.0762C79.8991 95.0566 80.0195 95.0371 80.1172 95.0176L80.127 96.9512C79.9121 97.0228 79.668 97.0814 79.3945 97.127C79.1276 97.1725 78.8249 97.1953 78.4863 97.1953C77.9069 97.1953 77.3991 97.0977 76.9629 96.9023C76.5267 96.7005 76.1882 96.3783 75.9473 95.9355C75.7064 95.4863 75.5859 94.8939 75.5859 94.1582V83.8359ZM81.0254 91.8242V91.6191C81.0254 90.8444 81.1361 90.1315 81.3574 89.4805C81.5788 88.8229 81.901 88.2533 82.3242 87.7715C82.7474 87.2897 83.265 86.9154 83.877 86.6484C84.4889 86.375 85.1855 86.2383 85.9668 86.2383C86.7611 86.2383 87.4642 86.375 88.0762 86.6484C88.6947 86.9154 89.2155 87.2897 89.6387 87.7715C90.0618 88.2533 90.3841 88.8229 90.6055 89.4805C90.8268 90.1315 90.9375 90.8444 90.9375 91.6191V91.8242C90.9375 92.5924 90.8268 93.3053 90.6055 93.9629C90.3841 94.6139 90.0618 95.1836 89.6387 95.6719C89.2155 96.1536 88.6979 96.528 88.0859 96.7949C87.474 97.0618 86.7741 97.1953 85.9863 97.1953C85.2051 97.1953 84.5052 97.0618 83.8867 96.7949C83.2682 96.528 82.7474 96.1536 82.3242 95.6719C81.901 95.1836 81.5788 94.6139 81.3574 93.9629C81.1361 93.3053 81.0254 92.5924 81.0254 91.8242ZM83.6035 91.6191V91.8242C83.6035 92.2865 83.6491 92.7194 83.7402 93.123C83.8314 93.5267 83.9714 93.8815 84.1602 94.1875C84.349 94.4935 84.5931 94.7344 84.8926 94.9102C85.1986 95.0794 85.5632 95.1641 85.9863 95.1641C86.403 95.1641 86.7611 95.0794 87.0605 94.9102C87.36 94.7344 87.6042 94.4935 87.793 94.1875C87.9883 93.8815 88.1315 93.5267 88.2227 93.123C88.3138 92.7194 88.3594 92.2865 88.3594 91.8242V91.6191C88.3594 91.1634 88.3138 90.737 88.2227 90.3398C88.1315 89.9362 87.9883 89.5814 87.793 89.2754C87.6042 88.9629 87.3568 88.7188 87.0508 88.543C86.7513 88.3607 86.39 88.2695 85.9668 88.2695C85.5501 88.2695 85.1921 88.3607 84.8926 88.543C84.5931 88.7188 84.349 88.9629 84.1602 89.2754C83.9714 89.5814 83.8314 89.9362 83.7402 90.3398C83.6491 90.737 83.6035 91.1634 83.6035 91.6191ZM95.3906 88.5918V97H92.8125V86.4336H95.2539L95.3906 88.5918ZM98.6035 86.3652L98.5645 88.7676C98.4212 88.7415 98.2585 88.722 98.0762 88.709C97.9004 88.696 97.7344 88.6895 97.5781 88.6895C97.181 88.6895 96.8327 88.7448 96.5332 88.8555C96.2337 88.9596 95.9831 89.1126 95.7812 89.3145C95.5859 89.5163 95.4362 89.7637 95.332 90.0566C95.2279 90.3431 95.1693 90.6686 95.1562 91.0332L94.5996 90.9648C94.5996 90.2943 94.668 89.6725 94.8047 89.0996C94.9414 88.5267 95.14 88.0254 95.4004 87.5957C95.6608 87.166 95.9863 86.834 96.377 86.5996C96.7741 86.3587 97.2298 86.2383 97.7441 86.2383C97.8874 86.2383 98.0404 86.2513 98.2031 86.2773C98.3724 86.2969 98.5059 86.3262 98.6035 86.3652ZM103.291 95.8281L106.123 86.4336H108.887L104.648 98.6016C104.551 98.862 104.424 99.1452 104.268 99.4512C104.118 99.7572 103.916 100.047 103.662 100.32C103.408 100.6 103.089 100.828 102.705 101.004C102.327 101.18 101.868 101.268 101.328 101.268C101.094 101.268 100.885 101.251 100.703 101.219C100.521 101.186 100.329 101.144 100.127 101.092V99.1582C100.192 99.1647 100.267 99.168 100.352 99.168C100.443 99.1745 100.521 99.1777 100.586 99.1777C100.964 99.1777 101.276 99.1322 101.523 99.041C101.771 98.9564 101.969 98.8164 102.119 98.6211C102.275 98.4323 102.406 98.1849 102.51 97.8789L103.291 95.8281ZM101.895 86.4336L104.287 94.2168L104.707 96.9414L102.93 97.2637L99.1113 86.4336H101.895ZM38.3887 110.781H43.5547C44.6354 110.781 45.5632 110.944 46.3379 111.27C47.1126 111.595 47.7083 112.077 48.125 112.715C48.5417 113.353 48.75 114.137 48.75 115.068C48.75 115.804 48.6198 116.442 48.3594 116.982C48.099 117.523 47.7311 117.975 47.2559 118.34C46.7871 118.704 46.2337 118.991 45.5957 119.199L44.7559 119.629H40.1953L40.1758 117.51H43.584C44.1374 117.51 44.5964 117.412 44.9609 117.217C45.3255 117.021 45.599 116.751 45.7812 116.406C45.9701 116.061 46.0645 115.667 46.0645 115.225C46.0645 114.749 45.9733 114.339 45.791 113.994C45.6087 113.643 45.332 113.372 44.9609 113.184C44.5898 112.995 44.1211 112.9 43.5547 112.9H41.0742V125H38.3887V110.781ZM46.416 125L43.125 118.633L45.9668 118.623L49.2969 124.863V125H46.416ZM56.7285 122.754V117.881C56.7285 117.523 56.6667 117.214 56.543 116.953C56.4193 116.693 56.2305 116.491 55.9766 116.348C55.7227 116.204 55.4004 116.133 55.0098 116.133C54.6647 116.133 54.362 116.191 54.1016 116.309C53.8477 116.426 53.6523 116.592 53.5156 116.807C53.3789 117.015 53.3105 117.256 53.3105 117.529H50.7227C50.7227 117.093 50.8268 116.68 51.0352 116.289C51.2435 115.892 51.5397 115.54 51.9238 115.234C52.3145 114.922 52.7799 114.678 53.3203 114.502C53.8672 114.326 54.4792 114.238 55.1562 114.238C55.957 114.238 56.6699 114.375 57.2949 114.648C57.9264 114.915 58.4212 115.319 58.7793 115.859C59.1439 116.4 59.3262 117.08 59.3262 117.9V122.51C59.3262 123.037 59.3587 123.49 59.4238 123.867C59.4954 124.238 59.5996 124.561 59.7363 124.834V125H57.1094C56.9857 124.733 56.8913 124.395 56.8262 123.984C56.7611 123.568 56.7285 123.158 56.7285 122.754ZM57.0898 118.564L57.1094 120.098H55.4785C55.0749 120.098 54.7201 120.14 54.4141 120.225C54.1081 120.303 53.8574 120.42 53.6621 120.576C53.4668 120.726 53.3203 120.908 53.2227 121.123C53.125 121.331 53.0762 121.569 53.0762 121.836C53.0762 122.096 53.1348 122.331 53.252 122.539C53.3757 122.747 53.5514 122.913 53.7793 123.037C54.0137 123.154 54.2871 123.213 54.5996 123.213C55.0553 123.213 55.4525 123.122 55.791 122.939C56.1296 122.751 56.3932 122.523 56.582 122.256C56.7708 121.989 56.8717 121.735 56.8848 121.494L57.627 122.607C57.5358 122.874 57.3991 123.158 57.2168 123.457C57.0345 123.757 56.8001 124.036 56.5137 124.297C56.2272 124.557 55.8822 124.772 55.4785 124.941C55.0749 125.111 54.6061 125.195 54.0723 125.195C53.3887 125.195 52.7767 125.059 52.2363 124.785C51.696 124.512 51.2695 124.137 50.957 123.662C50.6445 123.187 50.4883 122.646 50.4883 122.041C50.4883 121.481 50.5924 120.986 50.8008 120.557C51.0091 120.127 51.3184 119.766 51.7285 119.473C52.1387 119.173 52.6465 118.949 53.252 118.799C53.8639 118.643 54.5638 118.564 55.3516 118.564H57.0898ZM66.6504 114.434V116.289H60.5957V114.434H66.6504ZM62.2168 111.836H64.8047V121.953C64.8047 122.266 64.847 122.507 64.9316 122.676C65.0163 122.845 65.1432 122.959 65.3125 123.018C65.4818 123.076 65.6836 123.105 65.918 123.105C66.0872 123.105 66.2435 123.096 66.3867 123.076C66.5299 123.057 66.6504 123.037 66.748 123.018L66.7578 124.951C66.543 125.023 66.2988 125.081 66.0254 125.127C65.7585 125.173 65.4557 125.195 65.1172 125.195C64.5378 125.195 64.0299 125.098 63.5938 124.902C63.1576 124.701 62.819 124.378 62.5781 123.936C62.3372 123.486 62.2168 122.894 62.2168 122.158V111.836ZM73.1152 125.195C72.3145 125.195 71.5951 125.065 70.957 124.805C70.319 124.544 69.7754 124.183 69.3262 123.721C68.8835 123.252 68.5417 122.708 68.3008 122.09C68.0664 121.465 67.9492 120.794 67.9492 120.078V119.688C67.9492 118.874 68.0664 118.135 68.3008 117.471C68.5352 116.8 68.8672 116.224 69.2969 115.742C69.7266 115.26 70.2409 114.889 70.8398 114.629C71.4388 114.368 72.0996 114.238 72.8223 114.238C73.571 114.238 74.2318 114.365 74.8047 114.619C75.3776 114.867 75.8561 115.218 76.2402 115.674C76.6243 116.13 76.9141 116.676 77.1094 117.314C77.3047 117.946 77.4023 118.646 77.4023 119.414V120.498H69.1211V118.721H74.8633V118.525C74.8503 118.115 74.7721 117.741 74.6289 117.402C74.4857 117.057 74.2643 116.784 73.9648 116.582C73.6654 116.374 73.278 116.27 72.8027 116.27C72.4186 116.27 72.0833 116.354 71.7969 116.523C71.5169 116.686 71.2826 116.921 71.0938 117.227C70.9115 117.526 70.7747 117.884 70.6836 118.301C70.5924 118.717 70.5469 119.18 70.5469 119.688V120.078C70.5469 120.521 70.6055 120.931 70.7227 121.309C70.8464 121.686 71.0254 122.015 71.2598 122.295C71.5007 122.568 71.7871 122.783 72.1191 122.939C72.4577 123.089 72.8418 123.164 73.2715 123.164C73.8118 123.164 74.3001 123.06 74.7363 122.852C75.179 122.637 75.5632 122.321 75.8887 121.904L77.1875 123.252C76.9661 123.577 76.6667 123.89 76.2891 124.189C75.918 124.489 75.4688 124.733 74.9414 124.922C74.4141 125.104 73.8053 125.195 73.1152 125.195Z" fill="black"/>
</svg>
