<svg width="115" height="104" viewBox="0 0 115 104" fill="none" xmlns="http://www.w3.org/2000/svg">
<g clip-path="url(#clip0_6585_48091)">
<path d="M69.0004 1.91016C69.0678 2.11812 69.1352 2.33421 69.2018 2.5578C70.36 6.44314 71.2933 12.5926 68.0352 17.7604" stroke="black" stroke-width="2.56" stroke-linecap="round" stroke-linejoin="round"/>
<path d="M42.9955 17.5056C42.9955 17.5056 39.9561 14.8439 39.9531 10.4279C39.952 8.69557 40.2392 6.70573 41.0414 4.52282C41.3669 3.63708 41.7914 2.72532 42.2694 1.91016" stroke="black" stroke-width="2.56" stroke-linecap="round" stroke-linejoin="round"/>
<path d="M42.9883 38.7819C50.3427 37.3704 49.9377 32.466 49.9377 32.466C45.8494 29.7291 43.0366 24.0689 42.9952 17.5057C42.9883 17.4643 42.9883 17.416 42.9883 17.3609C42.9883 15.7476 43.4064 12.5772 43.7236 11.1018C53.2498 10.1929 61.1366 5.97852 61.1366 5.97852C63.5087 9.20042 64.8735 9.96689 67.2502 11.0924C67.7328 12.8849 68.035 15.3478 68.035 17.3609C68.035 17.609 68.0281 17.8504 68.0143 18.0916C67.8212 24.4481 65.0083 29.8876 60.989 32.5281C60.989 32.5281 59.6841 37.2051 66.4844 38.8667" stroke="black" stroke-width="2.56" stroke-linecap="round" stroke-linejoin="round"/>
<path d="M73.5284 40.7108C72.8225 40.4104 72.0874 40.1697 71.332 39.9928L66.5225 38.8671C64.0899 46.8776 49.4853 51.2865 43.0264 38.7822L38.2169 39.908C34.6538 40.7421 31.5438 42.9987 29.8076 46.2201C27.7248 50.0848 27.0791 55.3061 26.7793 62.0053" stroke="black" stroke-width="2.56" stroke-linecap="round" stroke-linejoin="round"/>
<path d="M82.7694 62.0896C82.5655 57.5343 82.2018 53.6623 81.335 50.4355" stroke="black" stroke-width="2.56" stroke-linecap="round" stroke-linejoin="round"/>
<path d="M80.8838 13.9346L75.6193 32.4255L80.2496 34.7006L73.3037 54.7932L88.22 31.1012L82.1391 28.7912L87.6035 16.5742L80.8838 13.9346Z" stroke="black" stroke-width="2.56" stroke-linecap="round" stroke-linejoin="round"/>
</g>
<path d="M18.1738 93.3086C18.1738 93.0352 18.1315 92.791 18.0469 92.5762C17.9688 92.3548 17.8223 92.1562 17.6074 91.9805C17.3991 91.7982 17.1029 91.6224 16.7188 91.4531C16.3411 91.2773 15.8529 91.0951 15.2539 90.9062C14.5898 90.6979 13.9714 90.4635 13.3984 90.2031C12.8255 89.9427 12.321 89.64 11.8848 89.2949C11.4551 88.9499 11.1198 88.5527 10.8789 88.1035C10.638 87.6478 10.5176 87.1204 10.5176 86.5215C10.5176 85.9355 10.6413 85.4017 10.8887 84.9199C11.1426 84.4382 11.5007 84.0247 11.9629 83.6797C12.4251 83.3281 12.9688 83.0579 13.5938 82.8691C14.2253 82.6803 14.9219 82.5859 15.6836 82.5859C16.7383 82.5859 17.6497 82.778 18.418 83.1621C19.1927 83.5462 19.7917 84.0671 20.2148 84.7246C20.638 85.3822 20.8496 86.1211 20.8496 86.9414H18.1738C18.1738 86.4987 18.0794 86.1081 17.8906 85.7695C17.7083 85.431 17.4284 85.1641 17.0508 84.9688C16.6797 84.7734 16.2109 84.6758 15.6445 84.6758C15.0977 84.6758 14.6419 84.7572 14.2773 84.9199C13.9193 85.0827 13.6491 85.304 13.4668 85.584C13.291 85.8639 13.2031 86.1764 13.2031 86.5215C13.2031 86.7819 13.265 87.0163 13.3887 87.2246C13.5124 87.4264 13.6979 87.6185 13.9453 87.8008C14.1927 87.9766 14.4987 88.1426 14.8633 88.2988C15.2344 88.4486 15.6641 88.5983 16.1523 88.748C16.9336 88.9824 17.6172 89.2428 18.2031 89.5293C18.7956 89.8158 19.2871 90.1413 19.6777 90.5059C20.0749 90.8704 20.3711 91.2806 20.5664 91.7363C20.7682 92.1921 20.8691 92.7096 20.8691 93.2891C20.8691 93.901 20.7487 94.4479 20.5078 94.9297C20.2669 95.4115 19.9219 95.8216 19.4727 96.1602C19.0234 96.4987 18.4831 96.7559 17.8516 96.9316C17.2266 97.1074 16.5267 97.1953 15.752 97.1953C15.0618 97.1953 14.3783 97.1042 13.7012 96.9219C13.0306 96.7331 12.4219 96.4531 11.875 96.082C11.3281 95.7044 10.8919 95.2292 10.5664 94.6562C10.2409 94.0768 10.0781 93.3997 10.0781 92.625H12.7734C12.7734 93.0742 12.8451 93.4583 12.9883 93.7773C13.138 94.0898 13.3464 94.347 13.6133 94.5488C13.8867 94.7441 14.2057 94.8874 14.5703 94.9785C14.9349 95.0697 15.3288 95.1152 15.752 95.1152C16.2988 95.1152 16.748 95.0404 17.0996 94.8906C17.4577 94.7344 17.7246 94.5195 17.9004 94.2461C18.0827 93.9727 18.1738 93.6602 18.1738 93.3086ZM25.8398 95.8281L28.6719 86.4336H31.4355L27.1973 98.6016C27.0996 98.862 26.9727 99.1452 26.8164 99.4512C26.6667 99.7572 26.4648 100.047 26.2109 100.32C25.957 100.6 25.638 100.828 25.2539 101.004C24.8763 101.18 24.4173 101.268 23.877 101.268C23.6426 101.268 23.4342 101.251 23.252 101.219C23.0697 101.186 22.8776 101.144 22.6758 101.092V99.1582C22.7409 99.1647 22.8158 99.168 22.9004 99.168C22.9915 99.1745 23.0697 99.1777 23.1348 99.1777C23.5124 99.1777 23.8249 99.1322 24.0723 99.041C24.3197 98.9564 24.5182 98.8164 24.668 98.6211C24.8242 98.4323 24.9544 98.1849 25.0586 97.8789L25.8398 95.8281ZM24.4434 86.4336L26.8359 94.2168L27.2559 96.9414L25.4785 97.2637L21.6602 86.4336H24.4434ZM35.2539 88.6016V97H32.6758V86.4336H35.1074L35.2539 88.6016ZM34.873 91.3359H34.082C34.082 90.6003 34.1699 89.9232 34.3457 89.3047C34.528 88.6862 34.7949 88.1491 35.1465 87.6934C35.498 87.2311 35.931 86.873 36.4453 86.6191C36.9661 86.3652 37.5684 86.2383 38.252 86.2383C38.7272 86.2383 39.1634 86.3099 39.5605 86.4531C39.9577 86.5898 40.2995 86.8079 40.5859 87.1074C40.8789 87.4004 41.1035 87.7845 41.2598 88.2598C41.416 88.7285 41.4941 89.2917 41.4941 89.9492V97H38.916V90.2129C38.916 89.7181 38.8444 89.3307 38.7012 89.0508C38.5645 88.7708 38.3659 88.5755 38.1055 88.4648C37.8451 88.3477 37.5326 88.2891 37.168 88.2891C36.7643 88.2891 36.416 88.3704 36.123 88.5332C35.8366 88.6895 35.599 88.9076 35.4102 89.1875C35.2279 89.4674 35.0911 89.7897 35 90.1543C34.9154 90.5189 34.873 90.9128 34.873 91.3359ZM41.2988 90.8574L40.2344 91.0527C40.2409 90.3887 40.332 89.7669 40.5078 89.1875C40.6836 88.6016 40.9408 88.0905 41.2793 87.6543C41.6243 87.2116 42.0508 86.8665 42.5586 86.6191C43.0729 86.3652 43.6654 86.2383 44.3359 86.2383C44.8568 86.2383 45.3255 86.3132 45.7422 86.4629C46.1654 86.6061 46.5267 86.8372 46.8262 87.1562C47.1257 87.4688 47.3535 87.8757 47.5098 88.377C47.6725 88.8783 47.7539 89.4902 47.7539 90.2129V97H45.1562V90.2031C45.1562 89.6888 45.0846 89.2949 44.9414 89.0215C44.8047 88.748 44.6061 88.5592 44.3457 88.4551C44.0853 88.3444 43.7793 88.2891 43.4277 88.2891C43.0697 88.2891 42.7572 88.3574 42.4902 88.4941C42.2298 88.6243 42.0085 88.8066 41.8262 89.041C41.6504 89.2754 41.5169 89.5488 41.4258 89.8613C41.3411 90.1673 41.2988 90.4993 41.2988 90.8574ZM52.6465 88.4648V101.062H50.0586V86.4336H52.4512L52.6465 88.4648ZM59.4336 91.6094V91.8145C59.4336 92.5827 59.3424 93.2956 59.1602 93.9531C58.9844 94.6042 58.724 95.1738 58.3789 95.6621C58.0339 96.1439 57.6042 96.5215 57.0898 96.7949C56.582 97.0618 55.9961 97.1953 55.332 97.1953C54.681 97.1953 54.1146 97.0716 53.6328 96.8242C53.151 96.5703 52.7441 96.2122 52.4121 95.75C52.0801 95.2878 51.8132 94.7507 51.6113 94.1387C51.416 93.5202 51.2695 92.8464 51.1719 92.1172V91.4629C51.2695 90.6882 51.416 89.985 51.6113 89.3535C51.8132 88.7155 52.0801 88.1654 52.4121 87.7031C52.7441 87.2344 53.1478 86.873 53.623 86.6191C54.1048 86.3652 54.668 86.2383 55.3125 86.2383C55.9831 86.2383 56.5723 86.3652 57.0801 86.6191C57.5944 86.873 58.0273 87.2376 58.3789 87.7129C58.7305 88.1882 58.9941 88.7546 59.1699 89.4121C59.3457 90.0697 59.4336 90.8021 59.4336 91.6094ZM56.8457 91.8145V91.6094C56.8457 91.1406 56.8034 90.7077 56.7188 90.3105C56.6341 89.9069 56.5039 89.5553 56.3281 89.2559C56.1523 88.9499 55.9245 88.7122 55.6445 88.543C55.3646 88.3737 55.026 88.2891 54.6289 88.2891C54.2318 88.2891 53.89 88.3542 53.6035 88.4844C53.3171 88.6146 53.0827 88.8001 52.9004 89.041C52.7181 89.2819 52.5749 89.5684 52.4707 89.9004C52.373 90.2259 52.3079 90.5872 52.2754 90.9844V92.6055C52.334 93.0872 52.4479 93.5202 52.6172 93.9043C52.7865 94.2884 53.0339 94.5944 53.3594 94.8223C53.6914 95.0501 54.1211 95.1641 54.6484 95.1641C55.0456 95.1641 55.3841 95.0762 55.6641 94.9004C55.944 94.7246 56.1719 94.4837 56.3477 94.1777C56.5234 93.8652 56.6504 93.5072 56.7285 93.1035C56.8066 92.6999 56.8457 92.2702 56.8457 91.8145ZM66.3184 86.4336V88.2891H60.2637V86.4336H66.3184ZM61.8848 83.8359H64.4727V93.9531C64.4727 94.2656 64.515 94.5065 64.5996 94.6758C64.6842 94.8451 64.8112 94.959 64.9805 95.0176C65.1497 95.0762 65.3516 95.1055 65.5859 95.1055C65.7552 95.1055 65.9115 95.0957 66.0547 95.0762C66.1979 95.0566 66.3184 95.0371 66.416 95.0176L66.4258 96.9512C66.2109 97.0228 65.9668 97.0814 65.6934 97.127C65.4264 97.1725 65.1237 97.1953 64.7852 97.1953C64.2057 97.1953 63.6979 97.0977 63.2617 96.9023C62.8255 96.7005 62.487 96.3783 62.2461 95.9355C62.0052 95.4863 61.8848 94.8939 61.8848 94.1582V83.8359ZM67.3242 91.8242V91.6191C67.3242 90.8444 67.4349 90.1315 67.6562 89.4805C67.8776 88.8229 68.1999 88.2533 68.623 87.7715C69.0462 87.2897 69.5638 86.9154 70.1758 86.6484C70.7878 86.375 71.4844 86.2383 72.2656 86.2383C73.0599 86.2383 73.763 86.375 74.375 86.6484C74.9935 86.9154 75.5143 87.2897 75.9375 87.7715C76.3607 88.2533 76.6829 88.8229 76.9043 89.4805C77.1257 90.1315 77.2363 90.8444 77.2363 91.6191V91.8242C77.2363 92.5924 77.1257 93.3053 76.9043 93.9629C76.6829 94.6139 76.3607 95.1836 75.9375 95.6719C75.5143 96.1536 74.9967 96.528 74.3848 96.7949C73.7728 97.0618 73.0729 97.1953 72.2852 97.1953C71.5039 97.1953 70.804 97.0618 70.1855 96.7949C69.5671 96.528 69.0462 96.1536 68.623 95.6719C68.1999 95.1836 67.8776 94.6139 67.6562 93.9629C67.4349 93.3053 67.3242 92.5924 67.3242 91.8242ZM69.9023 91.6191V91.8242C69.9023 92.2865 69.9479 92.7194 70.0391 93.123C70.1302 93.5267 70.2702 93.8815 70.459 94.1875C70.6478 94.4935 70.8919 94.7344 71.1914 94.9102C71.4974 95.0794 71.862 95.1641 72.2852 95.1641C72.7018 95.1641 73.0599 95.0794 73.3594 94.9102C73.6589 94.7344 73.903 94.4935 74.0918 94.1875C74.2871 93.8815 74.4303 93.5267 74.5215 93.123C74.6126 92.7194 74.6582 92.2865 74.6582 91.8242V91.6191C74.6582 91.1634 74.6126 90.737 74.5215 90.3398C74.4303 89.9362 74.2871 89.5814 74.0918 89.2754C73.903 88.9629 73.6556 88.7188 73.3496 88.543C73.0501 88.3607 72.6888 88.2695 72.2656 88.2695C71.849 88.2695 71.4909 88.3607 71.1914 88.543C70.8919 88.7188 70.6478 88.9629 70.459 89.2754C70.2702 89.5814 70.1302 89.9362 70.0391 90.3398C69.9479 90.737 69.9023 91.1634 69.9023 91.6191ZM81.6797 88.6016V97H79.1016V86.4336H81.5332L81.6797 88.6016ZM81.2988 91.3359H80.5078C80.5078 90.6003 80.5957 89.9232 80.7715 89.3047C80.9538 88.6862 81.2207 88.1491 81.5723 87.6934C81.9238 87.2311 82.3568 86.873 82.8711 86.6191C83.3919 86.3652 83.9941 86.2383 84.6777 86.2383C85.153 86.2383 85.5892 86.3099 85.9863 86.4531C86.3835 86.5898 86.7253 86.8079 87.0117 87.1074C87.3047 87.4004 87.5293 87.7845 87.6855 88.2598C87.8418 88.7285 87.9199 89.2917 87.9199 89.9492V97H85.3418V90.2129C85.3418 89.7181 85.2702 89.3307 85.127 89.0508C84.9902 88.7708 84.7917 88.5755 84.5312 88.4648C84.2708 88.3477 83.9583 88.2891 83.5938 88.2891C83.1901 88.2891 82.8418 88.3704 82.5488 88.5332C82.2624 88.6895 82.0247 88.9076 81.8359 89.1875C81.6536 89.4674 81.5169 89.7897 81.4258 90.1543C81.3411 90.5189 81.2988 90.9128 81.2988 91.3359ZM87.7246 90.8574L86.6602 91.0527C86.6667 90.3887 86.7578 89.7669 86.9336 89.1875C87.1094 88.6016 87.3665 88.0905 87.7051 87.6543C88.0501 87.2116 88.4766 86.8665 88.9844 86.6191C89.4987 86.3652 90.0911 86.2383 90.7617 86.2383C91.2826 86.2383 91.7513 86.3132 92.168 86.4629C92.5911 86.6061 92.9525 86.8372 93.252 87.1562C93.5514 87.4688 93.7793 87.8757 93.9355 88.377C94.0983 88.8783 94.1797 89.4902 94.1797 90.2129V97H91.582V90.2031C91.582 89.6888 91.5104 89.2949 91.3672 89.0215C91.2305 88.748 91.0319 88.5592 90.7715 88.4551C90.5111 88.3444 90.2051 88.2891 89.8535 88.2891C89.4954 88.2891 89.1829 88.3574 88.916 88.4941C88.6556 88.6243 88.4342 88.8066 88.252 89.041C88.0762 89.2754 87.9427 89.5488 87.8516 89.8613C87.7669 90.1673 87.7246 90.4993 87.7246 90.8574ZM102.305 94.1094C102.305 93.888 102.246 93.6895 102.129 93.5137C102.012 93.3379 101.79 93.1784 101.465 93.0352C101.146 92.8854 100.677 92.7454 100.059 92.6152C99.5117 92.498 99.0072 92.3516 98.5449 92.1758C98.0827 92 97.6855 91.7884 97.3535 91.541C97.0215 91.2871 96.7611 90.9909 96.5723 90.6523C96.39 90.3073 96.2988 89.9102 96.2988 89.4609C96.2988 89.0247 96.3932 88.6146 96.582 88.2305C96.7708 87.8398 97.0443 87.498 97.4023 87.2051C97.7604 86.9056 98.1966 86.6712 98.7109 86.502C99.2253 86.3262 99.8047 86.2383 100.449 86.2383C101.348 86.2383 102.119 86.3848 102.764 86.6777C103.415 86.9707 103.913 87.3743 104.258 87.8887C104.603 88.3965 104.775 88.9694 104.775 89.6074H102.197C102.197 89.3275 102.132 89.0736 102.002 88.8457C101.878 88.6178 101.686 88.4355 101.426 88.2988C101.165 88.1556 100.837 88.084 100.439 88.084C100.081 88.084 99.7786 88.1426 99.5312 88.2598C99.2904 88.377 99.1081 88.5299 98.9844 88.7188C98.8607 88.9076 98.7988 89.1159 98.7988 89.3438C98.7988 89.513 98.8314 89.666 98.8965 89.8027C98.9681 89.9329 99.082 90.0534 99.2383 90.1641C99.3945 90.2747 99.6061 90.3757 99.873 90.4668C100.146 90.5579 100.482 90.6458 100.879 90.7305C101.667 90.8867 102.354 91.0951 102.939 91.3555C103.532 91.6094 103.994 91.9479 104.326 92.3711C104.658 92.7943 104.824 93.3346 104.824 93.9922C104.824 94.4609 104.723 94.8906 104.521 95.2812C104.32 95.6654 104.027 96.0007 103.643 96.2871C103.258 96.5736 102.799 96.7982 102.266 96.9609C101.732 97.1172 101.13 97.1953 100.459 97.1953C99.4889 97.1953 98.6686 97.0228 97.998 96.6777C97.3275 96.3262 96.8197 95.8835 96.4746 95.3496C96.1296 94.8092 95.957 94.2493 95.957 93.6699H98.4277C98.4473 94.0801 98.5579 94.4089 98.7598 94.6562C98.9616 94.9036 99.2155 95.0827 99.5215 95.1934C99.834 95.2975 100.163 95.3496 100.508 95.3496C100.898 95.3496 101.227 95.2975 101.494 95.1934C101.761 95.0827 101.963 94.9362 102.1 94.7539C102.236 94.5651 102.305 94.3503 102.305 94.1094Z" fill="black"/>
<defs>
<clipPath id="clip0_6585_48091">
<rect width="64" height="64" fill="white" transform="translate(25.5)"/>
</clipPath>
</defs>
</svg>
