<svg width="115" height="104" viewBox="0 0 115 104" fill="none" xmlns="http://www.w3.org/2000/svg">
<path d="M56.5621 17.5177L52.2377 24.3145L51.2769 25.8245L48.7352 29.8193L47.2329 32.1805C46.382 33.5179 45.9654 35.0857 46.0403 36.6691L46.0871 37.6586C46.1619 39.242 45.7453 40.8098 44.8944 42.1472L35.6899 56.614C34.8358 57.9564 35.2316 59.7369 36.574 60.591L39.2108 62.2687C40.5532 63.1227 42.3337 62.7269 43.1878 61.3846L52.3923 46.9177C53.2433 45.5803 54.4869 44.5388 55.9529 43.9357L56.869 43.5589C58.335 42.9558 59.5786 41.9143 60.4296 40.5769L79.3887 10.7787C80.0945 9.66938 79.7674 8.19787 78.658 7.49204L69.4787 1.6517C68.3694 0.945872 66.8978 1.27299 66.192 2.38235L60.0016 12.1118" stroke="black" stroke-width="2.56" stroke-linecap="round" stroke-linejoin="round"/>
<path d="M37.2168 54.2148L44.7147 58.9854" stroke="black" stroke-width="2.56" stroke-linecap="round" stroke-linejoin="round"/>
<path d="M70.0763 16.1103L65.3076 13.0762L55.0105 29.2602L59.7792 32.2943L70.0763 16.1103Z" stroke="black" stroke-width="2.56" stroke-linecap="round" stroke-linejoin="round"/>
<path d="M72.0776 10.3719L69.6328 8.81641" stroke="black" stroke-width="2.56" stroke-linecap="round" stroke-linejoin="round"/>
<path d="M7.54883 82.7812V97H4.87305V82.7812H7.54883ZM11.9629 82.7812V84.9004H0.507812V82.7812H11.9629ZM17.3828 97.1953C16.582 97.1953 15.8626 97.0651 15.2246 96.8047C14.5866 96.5443 14.043 96.1829 13.5938 95.7207C13.151 95.252 12.8092 94.7083 12.5684 94.0898C12.334 93.4648 12.2168 92.7943 12.2168 92.0781V91.6875C12.2168 90.8737 12.334 90.1348 12.5684 89.4707C12.8027 88.8001 13.1348 88.224 13.5645 87.7422C13.9941 87.2604 14.5085 86.8893 15.1074 86.6289C15.7064 86.3685 16.3672 86.2383 17.0898 86.2383C17.8385 86.2383 18.4993 86.3652 19.0723 86.6191C19.6452 86.8665 20.1237 87.2181 20.5078 87.6738C20.8919 88.1296 21.1816 88.6764 21.377 89.3145C21.5723 89.946 21.6699 90.6458 21.6699 91.4141V92.498H13.3887V90.7207H19.1309V90.5254C19.1178 90.1152 19.0397 89.7409 18.8965 89.4023C18.7533 89.0573 18.5319 88.7839 18.2324 88.582C17.9329 88.3737 17.5456 88.2695 17.0703 88.2695C16.6862 88.2695 16.3509 88.3542 16.0645 88.5234C15.7845 88.6862 15.5501 88.9206 15.3613 89.2266C15.179 89.526 15.0423 89.8841 14.9512 90.3008C14.86 90.7174 14.8145 91.1797 14.8145 91.6875V92.0781C14.8145 92.5208 14.873 92.931 14.9902 93.3086C15.1139 93.6862 15.293 94.015 15.5273 94.2949C15.7682 94.5684 16.0547 94.7832 16.3867 94.9395C16.7253 95.0892 17.1094 95.1641 17.5391 95.1641C18.0794 95.1641 18.5677 95.0599 19.0039 94.8516C19.4466 94.6367 19.8307 94.321 20.1562 93.9043L21.4551 95.252C21.2337 95.5775 20.9342 95.89 20.5566 96.1895C20.1855 96.4889 19.7363 96.7331 19.209 96.9219C18.6816 97.1042 18.0729 97.1953 17.3828 97.1953ZM25.9668 88.6016V97H23.3887V86.4336H25.8203L25.9668 88.6016ZM25.5859 91.3359H24.7949C24.7949 90.6003 24.8828 89.9232 25.0586 89.3047C25.2409 88.6862 25.5078 88.1491 25.8594 87.6934C26.2109 87.2311 26.6439 86.873 27.1582 86.6191C27.679 86.3652 28.2812 86.2383 28.9648 86.2383C29.4401 86.2383 29.8763 86.3099 30.2734 86.4531C30.6706 86.5898 31.0124 86.8079 31.2988 87.1074C31.5918 87.4004 31.8164 87.7845 31.9727 88.2598C32.1289 88.7285 32.207 89.2917 32.207 89.9492V97H29.6289V90.2129C29.6289 89.7181 29.5573 89.3307 29.4141 89.0508C29.2773 88.7708 29.0788 88.5755 28.8184 88.4648C28.5579 88.3477 28.2454 88.2891 27.8809 88.2891C27.4772 88.2891 27.1289 88.3704 26.8359 88.5332C26.5495 88.6895 26.3118 88.9076 26.123 89.1875C25.9408 89.4674 25.804 89.7897 25.7129 90.1543C25.6283 90.5189 25.5859 90.9128 25.5859 91.3359ZM32.0117 90.8574L30.9473 91.0527C30.9538 90.3887 31.0449 89.7669 31.2207 89.1875C31.3965 88.6016 31.6536 88.0905 31.9922 87.6543C32.3372 87.2116 32.7637 86.8665 33.2715 86.6191C33.7858 86.3652 34.3783 86.2383 35.0488 86.2383C35.5697 86.2383 36.0384 86.3132 36.4551 86.4629C36.8783 86.6061 37.2396 86.8372 37.5391 87.1562C37.8385 87.4688 38.0664 87.8757 38.2227 88.377C38.3854 88.8783 38.4668 89.4902 38.4668 90.2129V97H35.8691V90.2031C35.8691 89.6888 35.7975 89.2949 35.6543 89.0215C35.5176 88.748 35.319 88.5592 35.0586 88.4551C34.7982 88.3444 34.4922 88.2891 34.1406 88.2891C33.7826 88.2891 33.4701 88.3574 33.2031 88.4941C32.9427 88.6243 32.7214 88.8066 32.5391 89.041C32.3633 89.2754 32.2298 89.5488 32.1387 89.8613C32.054 90.1673 32.0117 90.4993 32.0117 90.8574ZM43.3594 88.4648V101.062H40.7715V86.4336H43.1641L43.3594 88.4648ZM50.1465 91.6094V91.8145C50.1465 92.5827 50.0553 93.2956 49.873 93.9531C49.6973 94.6042 49.4368 95.1738 49.0918 95.6621C48.7467 96.1439 48.3171 96.5215 47.8027 96.7949C47.2949 97.0618 46.709 97.1953 46.0449 97.1953C45.3939 97.1953 44.8275 97.0716 44.3457 96.8242C43.8639 96.5703 43.457 96.2122 43.125 95.75C42.793 95.2878 42.526 94.7507 42.3242 94.1387C42.1289 93.5202 41.9824 92.8464 41.8848 92.1172V91.4629C41.9824 90.6882 42.1289 89.985 42.3242 89.3535C42.526 88.7155 42.793 88.1654 43.125 87.7031C43.457 87.2344 43.8607 86.873 44.3359 86.6191C44.8177 86.3652 45.3809 86.2383 46.0254 86.2383C46.696 86.2383 47.2852 86.3652 47.793 86.6191C48.3073 86.873 48.7402 87.2376 49.0918 87.7129C49.4434 88.1882 49.707 88.7546 49.8828 89.4121C50.0586 90.0697 50.1465 90.8021 50.1465 91.6094ZM47.5586 91.8145V91.6094C47.5586 91.1406 47.5163 90.7077 47.4316 90.3105C47.347 89.9069 47.2168 89.5553 47.041 89.2559C46.8652 88.9499 46.6374 88.7122 46.3574 88.543C46.0775 88.3737 45.7389 88.2891 45.3418 88.2891C44.9447 88.2891 44.6029 88.3542 44.3164 88.4844C44.0299 88.6146 43.7956 88.8001 43.6133 89.041C43.431 89.2819 43.2878 89.5684 43.1836 89.9004C43.0859 90.2259 43.0208 90.5872 42.9883 90.9844V92.6055C43.0469 93.0872 43.1608 93.5202 43.3301 93.9043C43.4993 94.2884 43.7467 94.5944 44.0723 94.8223C44.4043 95.0501 44.834 95.1641 45.3613 95.1641C45.7585 95.1641 46.097 95.0762 46.377 94.9004C46.6569 94.7246 46.8848 94.4837 47.0605 94.1777C47.2363 93.8652 47.3633 93.5072 47.4414 93.1035C47.5195 92.6999 47.5586 92.2702 47.5586 91.8145ZM56.7773 97.1953C55.9766 97.1953 55.2572 97.0651 54.6191 96.8047C53.9811 96.5443 53.4375 96.1829 52.9883 95.7207C52.5456 95.252 52.2038 94.7083 51.9629 94.0898C51.7285 93.4648 51.6113 92.7943 51.6113 92.0781V91.6875C51.6113 90.8737 51.7285 90.1348 51.9629 89.4707C52.1973 88.8001 52.5293 88.224 52.959 87.7422C53.3887 87.2604 53.903 86.8893 54.502 86.6289C55.1009 86.3685 55.7617 86.2383 56.4844 86.2383C57.2331 86.2383 57.8939 86.3652 58.4668 86.6191C59.0397 86.8665 59.5182 87.2181 59.9023 87.6738C60.2865 88.1296 60.5762 88.6764 60.7715 89.3145C60.9668 89.946 61.0645 90.6458 61.0645 91.4141V92.498H52.7832V90.7207H58.5254V90.5254C58.5124 90.1152 58.4342 89.7409 58.291 89.4023C58.1478 89.0573 57.9264 88.7839 57.627 88.582C57.3275 88.3737 56.9401 88.2695 56.4648 88.2695C56.0807 88.2695 55.7454 88.3542 55.459 88.5234C55.179 88.6862 54.9447 88.9206 54.7559 89.2266C54.5736 89.526 54.4368 89.8841 54.3457 90.3008C54.2546 90.7174 54.209 91.1797 54.209 91.6875V92.0781C54.209 92.5208 54.2676 92.931 54.3848 93.3086C54.5085 93.6862 54.6875 94.015 54.9219 94.2949C55.1628 94.5684 55.4492 94.7832 55.7812 94.9395C56.1198 95.0892 56.5039 95.1641 56.9336 95.1641C57.474 95.1641 57.9622 95.0599 58.3984 94.8516C58.8411 94.6367 59.2253 94.321 59.5508 93.9043L60.8496 95.252C60.6283 95.5775 60.3288 95.89 59.9512 96.1895C59.5801 96.4889 59.1309 96.7331 58.6035 96.9219C58.0762 97.1042 57.4674 97.1953 56.7773 97.1953ZM65.3711 88.5918V97H62.793V86.4336H65.2344L65.3711 88.5918ZM68.584 86.3652L68.5449 88.7676C68.4017 88.7415 68.2389 88.722 68.0566 88.709C67.8809 88.696 67.7148 88.6895 67.5586 88.6895C67.1615 88.6895 66.8132 88.7448 66.5137 88.8555C66.2142 88.9596 65.9635 89.1126 65.7617 89.3145C65.5664 89.5163 65.4167 89.7637 65.3125 90.0566C65.2083 90.3431 65.1497 90.6686 65.1367 91.0332L64.5801 90.9648C64.5801 90.2943 64.6484 89.6725 64.7852 89.0996C64.9219 88.5267 65.1204 88.0254 65.3809 87.5957C65.6413 87.166 65.9668 86.834 66.3574 86.5996C66.7546 86.3587 67.2103 86.2383 67.7246 86.2383C67.8678 86.2383 68.0208 86.2513 68.1836 86.2773C68.3529 86.2969 68.4863 86.3262 68.584 86.3652ZM75.4883 94.7539V89.8809C75.4883 89.5228 75.4264 89.2135 75.3027 88.9531C75.179 88.6927 74.9902 88.4909 74.7363 88.3477C74.4824 88.2044 74.1602 88.1328 73.7695 88.1328C73.4245 88.1328 73.1217 88.1914 72.8613 88.3086C72.6074 88.4258 72.4121 88.5918 72.2754 88.8066C72.1387 89.015 72.0703 89.2559 72.0703 89.5293H69.4824C69.4824 89.0931 69.5866 88.6797 69.7949 88.2891C70.0033 87.8919 70.2995 87.5404 70.6836 87.2344C71.0742 86.9219 71.5397 86.6777 72.0801 86.502C72.627 86.3262 73.2389 86.2383 73.916 86.2383C74.7168 86.2383 75.4297 86.375 76.0547 86.6484C76.6862 86.9154 77.181 87.319 77.5391 87.8594C77.9036 88.3997 78.0859 89.0801 78.0859 89.9004V94.5098C78.0859 95.0371 78.1185 95.4896 78.1836 95.8672C78.2552 96.2383 78.3594 96.5605 78.4961 96.834V97H75.8691C75.7454 96.7331 75.651 96.3945 75.5859 95.9844C75.5208 95.5677 75.4883 95.1576 75.4883 94.7539ZM75.8496 90.5645L75.8691 92.0977H74.2383C73.8346 92.0977 73.4798 92.14 73.1738 92.2246C72.8678 92.3027 72.6172 92.4199 72.4219 92.5762C72.2266 92.7259 72.0801 92.9082 71.9824 93.123C71.8848 93.3314 71.8359 93.569 71.8359 93.8359C71.8359 94.0964 71.8945 94.3307 72.0117 94.5391C72.1354 94.7474 72.3112 94.9134 72.5391 95.0371C72.7734 95.1543 73.0469 95.2129 73.3594 95.2129C73.8151 95.2129 74.2122 95.1217 74.5508 94.9395C74.8893 94.7507 75.153 94.5228 75.3418 94.2559C75.5306 93.9889 75.6315 93.735 75.6445 93.4941L76.3867 94.6074C76.2956 94.8743 76.1589 95.1576 75.9766 95.457C75.7943 95.7565 75.5599 96.0365 75.2734 96.2969C74.987 96.5573 74.6419 96.7721 74.2383 96.9414C73.8346 97.1107 73.3659 97.1953 72.832 97.1953C72.1484 97.1953 71.5365 97.0586 70.9961 96.7852C70.4557 96.5117 70.0293 96.1374 69.7168 95.6621C69.4043 95.1868 69.248 94.6465 69.248 94.041C69.248 93.4811 69.3522 92.9863 69.5605 92.5566C69.7689 92.127 70.0781 91.7656 70.4883 91.4727C70.8984 91.1732 71.4062 90.9486 72.0117 90.7988C72.6237 90.6426 73.3236 90.5645 74.1113 90.5645H75.8496ZM85.4102 86.4336V88.2891H79.3555V86.4336H85.4102ZM80.9766 83.8359H83.5645V93.9531C83.5645 94.2656 83.6068 94.5065 83.6914 94.6758C83.776 94.8451 83.903 94.959 84.0723 95.0176C84.2415 95.0762 84.4434 95.1055 84.6777 95.1055C84.847 95.1055 85.0033 95.0957 85.1465 95.0762C85.2897 95.0566 85.4102 95.0371 85.5078 95.0176L85.5176 96.9512C85.3027 97.0228 85.0586 97.0814 84.7852 97.127C84.5182 97.1725 84.2155 97.1953 83.877 97.1953C83.2975 97.1953 82.7897 97.0977 82.3535 96.9023C81.9173 96.7005 81.5788 96.3783 81.3379 95.9355C81.097 95.4863 80.9766 94.8939 80.9766 94.1582V83.8359ZM93.418 94.4902V86.4336H96.0156V97H93.5742L93.418 94.4902ZM93.75 92.3027L94.5508 92.2832C94.5508 92.9928 94.4727 93.6471 94.3164 94.2461C94.1602 94.8451 93.916 95.3659 93.584 95.8086C93.2585 96.2448 92.8451 96.5866 92.3438 96.834C91.8424 97.0749 91.25 97.1953 90.5664 97.1953C90.0456 97.1953 89.5703 97.1237 89.1406 96.9805C88.7109 96.8307 88.3398 96.5996 88.0273 96.2871C87.7214 95.9681 87.4837 95.5612 87.3145 95.0664C87.1452 94.5651 87.0605 93.9629 87.0605 93.2598V86.4336H89.6387V93.2793C89.6387 93.6309 89.6777 93.9238 89.7559 94.1582C89.8405 94.3926 89.9544 94.5846 90.0977 94.7344C90.2474 94.8776 90.4199 94.9818 90.6152 95.0469C90.8171 95.1055 91.0319 95.1348 91.2598 95.1348C91.8848 95.1348 92.3763 95.0111 92.7344 94.7637C93.099 94.5098 93.3594 94.1712 93.5156 93.748C93.6719 93.3184 93.75 92.8366 93.75 92.3027ZM100.879 88.5918V97H98.3008V86.4336H100.742L100.879 88.5918ZM104.092 86.3652L104.053 88.7676C103.91 88.7415 103.747 88.722 103.564 88.709C103.389 88.696 103.223 88.6895 103.066 88.6895C102.669 88.6895 102.321 88.7448 102.021 88.8555C101.722 88.9596 101.471 89.1126 101.27 89.3145C101.074 89.5163 100.924 89.7637 100.82 90.0566C100.716 90.3431 100.658 90.6686 100.645 91.0332L100.088 90.9648C100.088 90.2943 100.156 89.6725 100.293 89.0996C100.43 88.5267 100.628 88.0254 100.889 87.5957C101.149 87.166 101.475 86.834 101.865 86.5996C102.262 86.3587 102.718 86.2383 103.232 86.2383C103.376 86.2383 103.529 86.2513 103.691 86.2773C103.861 86.2969 103.994 86.3262 104.092 86.3652ZM110.059 97.1953C109.258 97.1953 108.538 97.0651 107.9 96.8047C107.262 96.5443 106.719 96.1829 106.27 95.7207C105.827 95.252 105.485 94.7083 105.244 94.0898C105.01 93.4648 104.893 92.7943 104.893 92.0781V91.6875C104.893 90.8737 105.01 90.1348 105.244 89.4707C105.479 88.8001 105.811 88.224 106.24 87.7422C106.67 87.2604 107.184 86.8893 107.783 86.6289C108.382 86.3685 109.043 86.2383 109.766 86.2383C110.514 86.2383 111.175 86.3652 111.748 86.6191C112.321 86.8665 112.799 87.2181 113.184 87.6738C113.568 88.1296 113.857 88.6764 114.053 89.3145C114.248 89.946 114.346 90.6458 114.346 91.4141V92.498H106.064V90.7207H111.807V90.5254C111.794 90.1152 111.715 89.7409 111.572 89.4023C111.429 89.0573 111.208 88.7839 110.908 88.582C110.609 88.3737 110.221 88.2695 109.746 88.2695C109.362 88.2695 109.027 88.3542 108.74 88.5234C108.46 88.6862 108.226 88.9206 108.037 89.2266C107.855 89.526 107.718 89.8841 107.627 90.3008C107.536 90.7174 107.49 91.1797 107.49 91.6875V92.0781C107.49 92.5208 107.549 92.931 107.666 93.3086C107.79 93.6862 107.969 94.015 108.203 94.2949C108.444 94.5684 108.73 94.7832 109.062 94.9395C109.401 95.0892 109.785 95.1641 110.215 95.1641C110.755 95.1641 111.243 95.0599 111.68 94.8516C112.122 94.6367 112.507 94.321 112.832 93.9043L114.131 95.252C113.91 95.5775 113.61 95.89 113.232 96.1895C112.861 96.4889 112.412 96.7331 111.885 96.9219C111.357 97.1042 110.749 97.1953 110.059 97.1953Z" fill="black"/>
</svg>
