<svg width="115" height="104" viewBox="0 0 115 104" fill="none" xmlns="http://www.w3.org/2000/svg">
<path d="M33.7065 37.6036L31.1779 8.44247C30.9448 4.55773 34.0324 1.2793 37.9242 1.2793H77.0761C80.9678 1.2793 84.0554 4.55773 83.8223 8.44247L79.6669 56.3657C79.4528 59.9346 76.496 62.7193 72.9207 62.7193H42.0796C38.5042 62.7193 35.5474 59.9346 35.3333 56.3657L34.2606 43.9949" stroke="black" stroke-width="2.56" stroke-linecap="round" stroke-linejoin="round"/>
<path d="M75.6532 15.0625L68.4098 27.6036C65.4242 25.4112 61.7427 24.1241 57.7618 24.1241C53.549 24.1241 49.6804 25.5608 46.605 27.9852L39.3467 15.4141C44.5772 11.8074 50.9225 9.69727 57.7618 9.69727C64.3766 9.69727 70.52 11.6727 75.6532 15.0625Z" stroke="black" stroke-width="2.56" stroke-linecap="round" stroke-linejoin="round"/>
<path d="M57.5 9.69727V12.5435" stroke="black" stroke-width="2.56" stroke-linecap="round" stroke-linejoin="round"/>
<path d="M46.6807 11.8574L47.6393 14.2093" stroke="black" stroke-width="2.56" stroke-linecap="round" stroke-linejoin="round"/>
<path d="M68.3197 11.8574L67.4414 14.0122" stroke="black" stroke-width="2.56" stroke-linecap="round" stroke-linejoin="round"/>
<path d="M57.7617 24.1247L59.5346 18.8418" stroke="black" stroke-width="2.56" stroke-linecap="round" stroke-linejoin="round"/>
<path d="M31.1133 94.2754L33.9453 82.7812H35.4785L35.5762 85.2031L32.5488 97H30.9277L31.1133 94.2754ZM29.3262 82.7812L31.6504 94.2363V97H29.8828L26.6602 82.7812H29.3262ZM38.5156 94.1875L40.8008 82.7812H43.4766L40.2539 97H38.4863L38.5156 94.1875ZM36.2109 82.7812L39.043 94.3145L39.209 97H37.5879L34.5703 85.1934L34.6875 82.7812H36.2109ZM49.4141 97.1953C48.6133 97.1953 47.8939 97.0651 47.2559 96.8047C46.6178 96.5443 46.0742 96.1829 45.625 95.7207C45.1823 95.252 44.8405 94.7083 44.5996 94.0898C44.3652 93.4648 44.248 92.7943 44.248 92.0781V91.6875C44.248 90.8737 44.3652 90.1348 44.5996 89.4707C44.834 88.8001 45.166 88.224 45.5957 87.7422C46.0254 87.2604 46.5397 86.8893 47.1387 86.6289C47.7376 86.3685 48.3984 86.2383 49.1211 86.2383C49.8698 86.2383 50.5306 86.3652 51.1035 86.6191C51.6764 86.8665 52.1549 87.2181 52.5391 87.6738C52.9232 88.1296 53.2129 88.6764 53.4082 89.3145C53.6035 89.946 53.7012 90.6458 53.7012 91.4141V92.498H45.4199V90.7207H51.1621V90.5254C51.1491 90.1152 51.071 89.7409 50.9277 89.4023C50.7845 89.0573 50.5632 88.7839 50.2637 88.582C49.9642 88.3737 49.5768 88.2695 49.1016 88.2695C48.7174 88.2695 48.3822 88.3542 48.0957 88.5234C47.8158 88.6862 47.5814 88.9206 47.3926 89.2266C47.2103 89.526 47.0736 89.8841 46.9824 90.3008C46.8913 90.7174 46.8457 91.1797 46.8457 91.6875V92.0781C46.8457 92.5208 46.9043 92.931 47.0215 93.3086C47.1452 93.6862 47.3242 94.015 47.5586 94.2949C47.7995 94.5684 48.0859 94.7832 48.418 94.9395C48.7565 95.0892 49.1406 95.1641 49.5703 95.1641C50.1107 95.1641 50.599 95.0599 51.0352 94.8516C51.4779 94.6367 51.862 94.321 52.1875 93.9043L53.4863 95.252C53.265 95.5775 52.9655 95.89 52.5879 96.1895C52.2168 96.4889 51.7676 96.7331 51.2402 96.9219C50.7129 97.1042 50.1042 97.1953 49.4141 97.1953ZM58.1641 86.4336V97H55.5762V86.4336H58.1641ZM55.4004 83.6699C55.4004 83.2858 55.5306 82.9668 55.791 82.7129C56.0579 82.459 56.416 82.332 56.8652 82.332C57.3145 82.332 57.6693 82.459 57.9297 82.7129C58.1966 82.9668 58.3301 83.2858 58.3301 83.6699C58.3301 84.0475 58.1966 84.3633 57.9297 84.6172C57.6693 84.8711 57.3145 84.998 56.8652 84.998C56.416 84.998 56.0579 84.8711 55.791 84.6172C55.5306 84.3633 55.4004 84.0475 55.4004 83.6699ZM67.3438 86.4336H69.6875V96.6777C69.6875 97.6348 69.4792 98.4453 69.0625 99.1094C68.6523 99.7799 68.0762 100.288 67.334 100.633C66.5918 100.984 65.7292 101.16 64.7461 101.16C64.3229 101.16 63.8639 101.102 63.3691 100.984C62.8809 100.867 62.4089 100.682 61.9531 100.428C61.5039 100.18 61.1296 99.8581 60.8301 99.4609L61.9922 97.9375C62.3438 98.3477 62.7409 98.6569 63.1836 98.8652C63.6263 99.0801 64.1048 99.1875 64.6191 99.1875C65.14 99.1875 65.5827 99.0898 65.9473 98.8945C66.3184 98.7057 66.6016 98.4258 66.7969 98.0547C66.9987 97.6901 67.0996 97.2409 67.0996 96.707V88.8457L67.3438 86.4336ZM60.2051 91.8438V91.6387C60.2051 90.8314 60.3027 90.099 60.498 89.4414C60.6934 88.7773 60.9733 88.2077 61.3379 87.7324C61.709 87.2572 62.1549 86.8893 62.6758 86.6289C63.2031 86.3685 63.7956 86.2383 64.4531 86.2383C65.1497 86.2383 65.7357 86.3652 66.2109 86.6191C66.6927 86.873 67.0898 87.2344 67.4023 87.7031C67.7214 88.1719 67.9688 88.7285 68.1445 89.373C68.3268 90.0111 68.4668 90.7142 68.5645 91.4824V92.0391C68.4733 92.7878 68.3268 93.4746 68.125 94.0996C67.9297 94.7246 67.6693 95.2715 67.3438 95.7402C67.0182 96.2025 66.6146 96.5605 66.1328 96.8145C65.651 97.0684 65.0846 97.1953 64.4336 97.1953C63.7826 97.1953 63.1966 97.0618 62.6758 96.7949C62.1549 96.528 61.709 96.1536 61.3379 95.6719C60.9733 95.1901 60.6934 94.6237 60.498 93.9727C60.3027 93.3216 60.2051 92.612 60.2051 91.8438ZM62.7832 91.6387V91.8438C62.7832 92.2995 62.8288 92.7259 62.9199 93.123C63.0111 93.5202 63.151 93.8717 63.3398 94.1777C63.5286 94.4772 63.7663 94.7116 64.0527 94.8809C64.3392 95.0501 64.681 95.1348 65.0781 95.1348C65.612 95.1348 66.0482 95.0241 66.3867 94.8027C66.7318 94.5749 66.9922 94.2656 67.168 93.875C67.3503 93.4779 67.4674 93.0319 67.5195 92.5371V91.0039C67.487 90.6133 67.4154 90.252 67.3047 89.9199C67.2005 89.5879 67.054 89.3014 66.8652 89.0605C66.6764 88.8197 66.4355 88.6309 66.1426 88.4941C65.8496 88.3574 65.5013 88.2891 65.0977 88.2891C64.707 88.2891 64.3652 88.377 64.0723 88.5527C63.7793 88.722 63.5384 88.9596 63.3496 89.2656C63.1608 89.5716 63.0176 89.9264 62.9199 90.3301C62.8288 90.7337 62.7832 91.1699 62.7832 91.6387ZM74.541 82V97H71.9531V82H74.541ZM74.1309 91.3359H73.3691C73.3691 90.6003 73.4668 89.9232 73.6621 89.3047C73.8574 88.6862 74.1341 88.1491 74.4922 87.6934C74.8503 87.2311 75.2767 86.873 75.7715 86.6191C76.2728 86.3652 76.8262 86.2383 77.4316 86.2383C77.9525 86.2383 78.4245 86.3132 78.8477 86.4629C79.2773 86.6061 79.6452 86.8372 79.9512 87.1562C80.2572 87.4753 80.4915 87.8919 80.6543 88.4062C80.8236 88.9141 80.9082 89.5326 80.9082 90.2617V97H78.3105V90.2422C78.3105 89.7539 78.2389 89.3698 78.0957 89.0898C77.9525 88.8034 77.7474 88.5983 77.4805 88.4746C77.2201 88.3509 76.8978 88.2891 76.5137 88.2891C76.097 88.2891 75.7389 88.3704 75.4395 88.5332C75.14 88.6895 74.8926 88.9076 74.6973 89.1875C74.5085 89.4674 74.3652 89.7897 74.2676 90.1543C74.1764 90.5189 74.1309 90.9128 74.1309 91.3359ZM88.1836 86.4336V88.2891H82.1289V86.4336H88.1836ZM83.75 83.8359H86.3379V93.9531C86.3379 94.2656 86.3802 94.5065 86.4648 94.6758C86.5495 94.8451 86.6764 94.959 86.8457 95.0176C87.015 95.0762 87.2168 95.1055 87.4512 95.1055C87.6204 95.1055 87.7767 95.0957 87.9199 95.0762C88.0632 95.0566 88.1836 95.0371 88.2812 95.0176L88.291 96.9512C88.0762 97.0228 87.832 97.0814 87.5586 97.127C87.2917 97.1725 86.9889 97.1953 86.6504 97.1953C86.071 97.1953 85.5632 97.0977 85.127 96.9023C84.6908 96.7005 84.3522 96.3783 84.1113 95.9355C83.8704 95.4863 83.75 94.8939 83.75 94.1582V83.8359Z" fill="black"/>
</svg>
